<?xml version="1.0" encoding="utf-8"?>
<!-- Generator: Adobe Illustrator 22.0.0, SVG Export Plug-In . SVG Version: 6.00 Build 0)  -->
<svg version="1.1" id="图层_1" xmlns="http://www.w3.org/2000/svg" xmlns:xlink="http://www.w3.org/1999/xlink" x="0px" y="0px"
	 viewBox="0 0 200 200" style="enable-background:new 0 0 200 200;" xml:space="preserve">
<style type="text/css">
	.st0{fill:#37B9DA;}
</style>
<path class="st0" d="M108,100.1l80.4-80.4c2.1-2.2,2.1-5.7,0-7.9c-2.2-2.1-5.7-2.1-7.9,0l-80.4,80.4L19.7,11.8
	c-2.2-2.1-5.7-2.1-7.9,0c-2.1,2.2-2.1,5.7,0,7.9l80.4,80.4l-80.4,80.4c-2.1,2.2-2.1,5.7,0,7.9c2.2,2.1,5.7,2.1,7.9,0l80.4-80.4
	l80.4,80.4c2.2,2.1,5.7,2.1,7.9,0c2.1-2.2,2.1-5.7,0-7.9L108,100.1z"/>
</svg>
