<?xml version="1.0" encoding="utf-8"?>
<!-- Generator: Adobe Illustrator 22.0.0, SVG Export Plug-In . SVG Version: 6.00 Build 0)  -->
<svg version="1.1" id="图层_1" xmlns="http://www.w3.org/2000/svg" xmlns:xlink="http://www.w3.org/1999/xlink" x="0px" y="0px"
	 viewBox="0 0 200 200" style="enable-background:new 0 0 200 200;" xml:space="preserve">
<style type="text/css">
	.st0{fill:#535659;}
</style>
<path class="st0" d="M11.8,188.4L11.8,188.4c-2.1-2.1-2.1-5.7,0-7.9L180.5,11.8c2.1-2.1,5.7-2.1,7.9,0l0,0c2.1,2.1,2.1,5.7,0,7.9
	L19.7,188.4C17.6,190.5,14.1,190.5,11.8,188.4z"/>
<path class="st0" d="M11.8,11.8L11.8,11.8c2.1-2.1,5.7-2.1,7.9,0l168.7,168.7c2.1,2.1,2.1,5.7,0,7.9l0,0c-2.1,2.1-5.7,2.1-7.9,0
	L11.8,19.7C9.7,17.6,9.7,14.1,11.8,11.8z"/>
</svg>
