<?xml version="1.0" encoding="utf-8"?>
<!-- Generator: Adobe Illustrator 23.0.0, SVG Export Plug-In . SVG Version: 6.00 Build 0)  -->
<svg version="1.1" id="图层_1" xmlns="http://www.w3.org/2000/svg" xmlns:xlink="http://www.w3.org/1999/xlink" x="0px" y="0px"
	 viewBox="0 0 64 64" style="enable-background:new 0 0 64 64;" xml:space="preserve">
<style type="text/css">
	.st0{fill:#535659;}
</style>
<path class="st0" d="M57.8,57.6H6.2c-0.8,0.1-1.5-0.5-1.9-1.3c-0.4-0.9-0.4-2,0-2.9c0.4-0.9,1.1-1.4,1.9-1.3h51.6
	c0.8-0.1,1.5,0.5,1.9,1.3c0.4,0.9,0.4,2,0,2.9C59.3,57.2,58.6,57.7,57.8,57.6z M57.8,35H6.2c-0.8,0.1-1.5-0.5-1.9-1.3
	c-0.4-0.9-0.4-2,0-2.9s1.1-1.4,1.9-1.3h51.6c0.8-0.1,1.5,0.5,1.9,1.3c0.4,0.9,0.4,2,0,2.9C59.3,34.6,58.6,35.1,57.8,35z M57.8,12.3
	H6.2c-0.8,0.1-1.5-0.5-1.9-1.3C4,10.1,4,9,4.4,8.1s1.1-1.4,1.9-1.3h51.6c0.8-0.1,1.5,0.5,1.9,1.3c0.4,0.9,0.4,2,0,2.9
	C59.3,11.8,58.6,12.3,57.8,12.3z"/>
</svg>
