<?xml version="1.0" encoding="utf-8"?>
<!-- Generator: Adobe Illustrator 22.0.0, SVG Export Plug-In . SVG Version: 6.00 Build 0)  -->
<svg version="1.1" id="图层_1" xmlns="http://www.w3.org/2000/svg" xmlns:xlink="http://www.w3.org/1999/xlink" x="0px" y="0px"
	 viewBox="0 0 200 200" style="enable-background:new 0 0 200 200;" xml:space="preserve">
<style type="text/css">
	.st0{fill:#535659;}
</style>
<path class="st0" d="M130.393,75.695H16.971C11.506,75.695,7,80.01,7,85.283v82.166c0,5.273,4.506,9.492,9.971,9.492h113.518
	c5.465,0,9.971-4.314,9.971-9.492V85.283C140.364,80.01,135.858,75.695,130.393,75.695z M131,166.654H16.268V85.695h114.637v80.959
	H131z"/>
<path class="st0" d="M183.029,23.059H69.607c-5.465,0-9.971,4.314-9.971,9.492v52.732h9.821v-51.54h113.531v79.591h-51.636v10.971
	h51.677c5.465,0,9.971-4.314,9.971-9.492V32.551C193,27.374,188.494,23.059,183.029,23.059z"/>
</svg>
