<?xml version="1.0" encoding="utf-8"?>
<!-- Generator: Adobe Illustrator 23.0.0, SVG Export Plug-In . SVG Version: 6.00 Build 0)  -->
<svg version="1.1" id="图层_1" xmlns="http://www.w3.org/2000/svg" xmlns:xlink="http://www.w3.org/1999/xlink" x="0px" y="0px"
	 viewBox="0 0 200 200" style="enable-background:new 0 0 200 200;" xml:space="preserve">
<style type="text/css">
	.st0{fill:none;stroke:#000000;stroke-width:10;stroke-miterlimit:10;}
</style>
<path class="st0" d="M21.4,97c0,0-3.8-8.9-3-19.5c0.3-4.3,3.3-11.2,11.6-11.2c8.4,0,8.4,4.6,11.8,4.7c4,0.2,3.7-4.7,12.2-4.8
	c7,0,11.9,3.3,11.3,12.5c-0.7,10.9-2.6,19.4-3.9,21c0,0-9.1,0-19.7-0.6S21.4,97,21.4,97z"/>
<path class="st0" d="M81.3,99.7c0,0-4.6-11.6-3.9-22.2c0.3-4.3,3.3-11.2,11.6-11.2c8.4,0,8.4,4.6,11.8,4.7c4,0.2,3.7-4.7,12.2-4.8
	c7,0,11.9,3.3,11.3,12.5c-0.7,10.9-3.2,18.4-4.5,20c0,0-6.9,1.5-18.5,1.5S81.3,99.7,81.3,99.7z"/>
<path class="st0" d="M140.3,98.5c0,0-4.8-12.1-4-22.6c0.3-4.3,3.3-11.2,11.6-11.2c8.4,0,8.4,4.6,11.8,4.7c4,0.2,3.7-4.7,12.2-4.8
	c7,0,11.9,3.3,11.3,12.5c-0.7,10.9-2.6,19.3-3.9,20.9c0,0-8.9,0.9-17.7,1.2C153,99.4,140.3,98.5,140.3,98.5z"/>
<path class="st0" d="M100,112.2c24.4-0.5,68-2.3,79-1.7c11,0.6,19.1,15.5,11.2,29.2H7.8c0,0-8.4-32.3,19.6-29.6
	C54.2,112.5,81.3,112.6,100,112.2z"/>
</svg>
