<?xml version="1.0" encoding="utf-8"?>
<!-- Generator: Adobe Illustrator 22.1.0, SVG Export Plug-In . SVG Version: 6.00 Build 0)  -->
<svg version="1.1" id="Layer_1" xmlns="http://www.w3.org/2000/svg" xmlns:xlink="http://www.w3.org/1999/xlink" x="0px" y="0px"
	 viewBox="0 0 187.2 51.2" enable-background="new 0 0 187.2 51.2" xml:space="preserve">
<g>
	<path fill="none" stroke="#B2C3D1" stroke-width="0.75" stroke-miterlimit="10" d="M180.6,50.4H6.4c-3.3,0-6-2.7-6-6v-38
		c0-3.3,2.7-6,6-6h174.2c3.3,0,6,2.7,6,6v38C186.6,47.7,183.9,50.4,180.6,50.4z"/>
	<path opacity="0.2" fill="#B2C3D1" stroke="#B2C3D1" stroke-width="0.75" stroke-miterlimit="10" d="M180.8,50.8H6.6
		c-3.3,0-6-2.7-6-6v-38c0-3.3,2.7-6,6-6h174.2c3.3,0,6,2.7,6,6v38C186.8,48.1,184.1,50.8,180.8,50.8z"/>
	<g>
		<path fill="#FFFFFF" d="M30.4,32.9c2.3-1.9,3.6-4.8,3.9-8.6l1.7,0.3c-0.2,1.3-0.4,2.4-0.7,3.5c1.1,2.2,2.7,3.5,4.9,3.9v-9h-9.3
			v-1.5h19.4V23h-8.4v3.3H49v1.5h-7.1v4.3c2.7,0.1,5.7,0,8.8-0.1c-0.2,0.5-0.4,1.1-0.6,1.7c-3.3,0-6.2,0-8.7-0.1
			c-3.1,0-5.3-1.2-6.8-3.7c-0.8,1.8-1.8,3.3-3.2,4.6C31.2,34,30.8,33.4,30.4,32.9z M31.6,16.7h8.7c-0.4-0.6-0.8-1.2-1.3-1.7l1.6-0.8
			c0.5,0.6,1.1,1.3,1.7,2.1l-0.9,0.5h8.3v3.9h-1.6v-2.3H33.2v2.3h-1.6V16.7z"/>
		<path fill="#FFFFFF" d="M57.6,29.9c-1,1.9-1.9,3.3-2.7,4.4l-1.4-1c0.9-1.2,1.8-2.6,2.7-4.2L57.6,29.9z M56.1,20.6h6.4v-6.4h1.7
			v2.5h9.1v1.5h-9.1v2.5h7.2v7.8h-1.7v-0.9h-12v0.9h-1.7V20.6z M69.8,22.1h-12v4h12V22.1z M61,29c0.6,1.4,1.2,2.8,1.6,4.4L61,33.9
			c-0.4-1.5-0.9-2.9-1.5-4.4L61,29z M65.9,28.8c0.7,1.3,1.2,2.8,1.8,4.2l-1.6,0.6c-0.4-1.2-0.9-2.7-1.7-4.3L65.9,28.8z M70.9,28.9
			c1.1,1.6,2,3.1,2.6,4.5l-1.6,0.8c-0.7-1.4-1.5-2.9-2.5-4.6L70.9,28.9z"/>
		<path fill="#FFFFFF" d="M76.3,22.6c2.8-2,5.2-4.7,7.2-8.1l1.5,0.8c-2.1,3.6-4.6,6.5-7.5,8.7C77.2,23.6,76.8,23.1,76.3,22.6z
			 M79.1,23.3h13.6c-0.1,2.3-0.2,4.6-0.3,6.8c-0.2,2.5-1.4,3.8-3.6,3.8c-1.1,0-2.3,0-3.5-0.1c-0.1-0.6-0.2-1.2-0.3-1.7
			c1,0.1,2.2,0.2,3.5,0.2c1.4,0,2.1-0.8,2.2-2.4c0.1-1.5,0.2-3.2,0.2-5.1h-6.3c-0.2,2.3-0.6,4.1-1.4,5.5c-1,1.8-2.8,3.2-5.2,4.2
			c-0.4-0.5-0.7-0.9-1.2-1.4c2.3-0.8,3.9-2.1,4.9-3.7c0.7-1.2,1.1-2.8,1.2-4.7h-3.9V23.3z M87.5,14.8l1.5-0.6
			c1.5,3.6,4.1,6.4,7.9,8.2c-0.6,0.6-1.1,1.2-1.3,1.6C91.8,21.7,89.1,18.7,87.5,14.8z"/>
		<path fill="#FFFFFF" d="M99.4,27.1c1.4-2.1,2.5-4.5,3.2-7.2h-2.9v-1.4h3v-4.1h1.5v4.1h2.8v1.4h-2.8v2.3l0.8-0.6
			c1.2,1.5,2.1,2.6,2.7,3.5l-1.3,0.9c-0.6-1-1.4-2.1-2.2-3.1v11.4h-1.5V23.8c-0.7,2-1.5,3.7-2.5,5.1C100,28.5,99.7,27.9,99.4,27.1z
			 M108.2,16c3.4-0.1,6.7-0.3,10.1-0.9l0.6,1.5c-2.9,0.4-5.9,0.7-9.1,0.8V22h10v1.5h-3.8v10.9h-1.6V23.5h-4.6v0.8
			c0,4.4-1.1,7.8-3.4,10.2c-0.3-0.5-0.7-0.9-1.1-1.3c1.9-2,2.9-5,2.9-8.9V16z"/>
	</g>
	<g>
		<path fill="#FFFFFF" d="M143.3,21c1.2,0,2.2-0.7,2.7-1.8h12.5c0.4,0,0.7-0.3,0.7-0.7c0-0.4-0.3-0.7-0.7-0.7h-12.3
			c-0.2-1.4-1.4-2.5-2.8-2.5c-1.6,0-2.9,1.3-2.9,2.9C140.4,19.8,141.7,21,143.3,21L143.3,21z M143.3,16.7c0.5,0,1,0.3,1.2,0.7
			c0.3,0.4,0.3,1,0,1.4c-0.3,0.4-0.7,0.7-1.2,0.7c-0.8,0-1.4-0.6-1.4-1.4C141.9,17.4,142.5,16.7,143.3,16.7L143.3,16.7z M158.4,27.5
			h-12.3c0,0-0.1,0-0.1,0c-0.3-1.3-1.5-2.2-2.8-2.2c-1.6,0-2.9,1.3-2.9,2.9c0,1.6,1.3,2.9,2.9,2.9c1.3,0,2.5-0.9,2.8-2.2
			c0,0,0.1,0,0.1,0h12.3c0.4,0,0.7-0.3,0.7-0.7C159.2,27.8,158.8,27.5,158.4,27.5L158.4,27.5z M143.3,29.7c-0.5,0-1-0.3-1.2-0.7
			c-0.3-0.4-0.3-1,0-1.4c0.3-0.4,0.7-0.7,1.2-0.7c0.8,0,1.4,0.6,1.4,1.4S144.1,29.7,143.3,29.7L143.3,29.7z M158.4,22.5H152
			c-0.4,0-0.7,0.3-0.7,0.7c0,0.4,0.3,0.7,0.7,0.7h6.5c0.4,0,0.7-0.3,0.7-0.7C159.2,22.8,158.8,22.5,158.4,22.5L158.4,22.5z
			 M158.4,31.8H152c-0.4,0-0.7,0.3-0.7,0.7c0,0.4,0.3,0.7,0.7,0.7h6.5c0.4,0,0.7-0.3,0.7-0.7C159.2,32.2,158.8,31.8,158.4,31.8
			L158.4,31.8z M158.4,31.8"/>
	</g>
</g>
</svg>
