<?xml version="1.0" standalone="no"?><!DOCTYPE svg PUBLIC "-//W3C//DTD SVG 1.1//EN" "http://www.w3.org/Graphics/SVG/1.1/DTD/svg11.dtd"><svg class="icon" width="64px" height="64.00px" viewBox="0 0 1024 1024" version="1.1" xmlns="http://www.w3.org/2000/svg"><path fill="#ffffff" d="M253.952 384.512c47.104 0 89.088-28.672 107.008-72.192h499.712c15.872 0 28.672-12.8 28.672-28.672 0-15.872-12.8-28.672-28.672-28.672H368.128C360.96 197.632 312.832 153.6 253.952 153.6 189.952 153.6 138.24 205.312 138.24 269.312c0.512 63.488 52.224 115.2 115.712 115.2z m0-173.056c20.48 0 39.936 11.264 50.176 28.672 10.24 17.92 10.24 39.936 0 57.856-10.24 17.92-29.184 28.672-50.176 28.672-31.744 0-57.856-26.112-57.856-57.856 0-31.744 26.112-57.344 57.856-57.344z m606.72 433.152h-491.52c-1.536 0-2.56 0.512-4.096 1.024C352.768 593.92 306.688 558.08 253.952 558.08 189.952 558.08 138.24 609.792 138.24 673.792c0 64 51.712 115.712 115.712 115.712 52.736 0 98.816-36.352 111.616-87.552 1.536 0 2.56 1.024 4.096 1.024h491.52c15.872 0 28.672-12.8 28.672-28.672 0-16.896-12.8-29.696-29.184-29.696zM253.952 731.136c-20.48 0-39.936-11.264-50.176-28.672-10.24-17.92-10.24-39.936 0-57.856 10.24-17.92 29.184-28.672 50.176-28.672 31.744 0 57.856 26.112 57.856 57.856 0 31.744-26.112 57.344-57.856 57.344z m606.72-288.768h-260.096c-15.872 0-28.672 12.8-28.672 28.672 0 15.872 12.8 28.672 28.672 28.672h260.096c15.872 0 28.672-12.8 28.672-28.672 0.512-15.872-12.288-28.672-28.672-28.672z m0 375.296h-260.096c-15.872 0-28.672 12.8-28.672 28.672 0 15.872 12.8 28.672 28.672 28.672h260.096c15.872 0 28.672-12.8 28.672-28.672 0.512-15.872-12.288-28.672-28.672-28.672z m0 0"  /></svg>