<?xml version="1.0" standalone="no"?><!DOCTYPE svg PUBLIC "-//W3C//DTD SVG 1.1//EN" "http://www.w3.org/Graphics/SVG/1.1/DTD/svg11.dtd"><svg class="icon" width="64px" height="64.00px" viewBox="0 0 1024 1024" version="1.1" xmlns="http://www.w3.org/2000/svg"><path fill="#ffffff" d="M518.144 678.4c-9.216 0-16.896-3.072-23.552-9.728l-163.84-163.84a32.8704 32.8704 0 0 1-9.728-23.552c0-9.216 3.072-17.408 9.216-23.552 6.144-6.144 13.824-9.216 23.552-9.216 9.216 0 16.896 3.072 23.552 9.728l108.032 108.032V186.368c0-9.216 3.072-16.896 9.728-23.04 6.656-6.656 14.336-9.728 23.04-9.728 9.216 0 16.896 3.072 23.04 9.728 6.656 6.656 9.728 14.336 9.728 23.04v380.416l108.032-108.032c6.656-6.144 14.336-9.728 23.552-9.728 9.216 0 16.896 3.072 23.04 9.728 6.656 6.656 9.728 14.336 9.728 23.04 0 8.704-3.072 16.896-9.728 23.552l-163.84 163.84c-6.656 6.144-14.336 9.728-23.552 9.216z m324.096-65.536c9.216 0 16.896 3.072 23.04 9.728 6.656 6.656 9.728 14.336 9.728 23.04v131.072c0 27.136-9.728 50.688-28.672 69.632-19.456 19.456-42.496 29.184-69.12 29.184H251.904c-26.624 0-50.176-9.728-69.632-28.672-18.944-19.456-28.672-43.008-28.672-69.632v-131.072c0-9.216 3.072-16.896 9.728-23.04 6.656-6.656 14.336-9.728 23.04-9.728 9.216 0 16.896 3.072 23.04 9.728 6.656 6.656 9.728 14.336 9.728 23.04v131.072c0 9.216 3.072 16.896 9.728 23.04 6.656 6.656 14.336 9.728 23.04 9.728h525.824c8.704 0 16.384-3.072 22.528-9.728 6.144-6.656 9.216-14.336 9.216-23.04v-131.072c0-9.216 3.072-16.896 9.728-23.04 6.656-6.656 14.336-10.24 23.04-10.24z m0 0"  /></svg>