<?xml version="1.0" encoding="utf-8"?>
<!-- Generator: Adobe Illustrator 22.0.0, SVG Export Plug-In . SVG Version: 6.00 Build 0)  -->
<svg version="1.1" id="图层_1" xmlns="http://www.w3.org/2000/svg" xmlns:xlink="http://www.w3.org/1999/xlink" x="0px" y="0px"
	 viewBox="0 0 200 200" style="enable-background:new 0 0 200 200;" xml:space="preserve">
<style type="text/css">
	.st0{fill:#535659;}
</style>
<path class="st0" d="M172,53.8l-43.2-43.1c-1.2-1.3-3-1.9-4.7-1.8H32.8c-3.4,0-6.1,2.7-6.1,6.1l0,0v170.4c0,3.4,2.7,6.1,6.1,6.1l0,0
	h134.8c3.4,0,6.1-2.7,6.1-6.1l0,0V57.6C173.6,56.2,173,54.8,172,53.8z M155.4,54.4h-27.6V26.9L155.4,54.4z M38.8,179.3V21.1h76.8
	v39.4c0,3.4,2.7,6.1,6.1,6.1l0,0h39.8v112.7H38.8z"/>
<path class="st0" d="M136.2,106.3h-29.6V76.7c0-3.4-2.7-6.1-6.1-6.1s-6.1,2.7-6.1,6.1l0,0v29.6H63.2c-3.4,0-6.1,2.7-6.1,6.1l0,0
	c0,1,0.3,2,0.9,2.9c0.9,2.3,3.1,3.8,5.6,3.8H94v30.4c0,3.4,2.7,6.1,6.1,6.1c3.4,0,6.1-2.7,6.1-6.1v-30.2h30.4c3.4,0,6.1-2.7,6.1-6.1
	l0,0c0-1-0.3-2-0.9-2.9C140.9,107.9,138.7,106.3,136.2,106.3z"/>
</svg>
