<?xml version="1.0" encoding="utf-8"?>
<!-- Generator: Adobe Illustrator 22.1.0, SVG Export Plug-In . SVG Version: 6.00 Build 0)  -->
<svg version="1.1" id="Layer_1" xmlns="http://www.w3.org/2000/svg" xmlns:xlink="http://www.w3.org/1999/xlink" x="0px" y="0px"
	 viewBox="0 0 64 64" enable-background="new 0 0 64 64" xml:space="preserve">
<g>
	<path fill="#FFFFFF" d="M7.9,29.7c-1.4,0-2.5,1.1-2.5,2.5c0,1.4,1.1,2.5,2.5,2.5h42L33.2,50.5c-0.5,0.5-0.8,1.1-0.8,1.8
		c0,0.7,0.3,1.3,0.8,1.8c1.1,1,2.7,1,3.8,0l21.1-19.9c0.5-0.5,0.8-1.1,0.8-1.8c0-1-0.5-1.9-1.4-2.3L36.7,10.4c-1-1-2.7-1-3.8,0
		c-0.5,0.5-0.8,1.1-0.8,1.8c0,0.7,0.3,1.3,0.8,1.8l16.7,15.8H7.9z M49.6,29.7"/>
</g>
</svg>
