<?xml version="1.0" encoding="utf-8"?>
<!-- Generator: Adobe Illustrator 22.0.0, SVG Export Plug-In . SVG Version: 6.00 Build 0)  -->
<svg version="1.1" id="图层_1" xmlns="http://www.w3.org/2000/svg" xmlns:xlink="http://www.w3.org/1999/xlink" x="0px" y="0px"
	 viewBox="0 0 200 200" style="enable-background:new 0 0 200 200;" xml:space="preserve">
<style type="text/css">
	.st0{fill:#37B9DA;}
</style>
<path class="st0" d="M13.4,172c-2.2-0.2-3.9-2-3.9-4.2C9,138,17.1,114.4,33.7,97.6c10.8-10.9,24.8-18.7,41.7-23.2
	c10.6-2.8,19.8-3.6,25-3.8V34c0-1.6,0.9-3.1,2.3-3.8s3.1-0.5,4.4,0.4l81.4,59.3c1.1,0.8,1.7,2,1.7,3.4c0,1.3-0.7,2.6-1.8,3.4
	l-81.4,59c-1.3,0.9-3,1-4.4,0.3s-2.3-2.2-2.3-3.8v-34.5c-29.3,0.8-52.7,9.5-67.8,25.4c-11.9,12.4-14.6,25.1-14.7,25.4
	c-0.4,2-2.2,3.4-4.2,3.4C13.5,171.9,13.3,171.9,13.4,172z M108.7,113.3v30.5l69.9-50.7l-69.9-50.9v32.5c0,1.2-0.5,2.3-1.4,3.1
	c-0.8,0.8-1.9,1.2-3.1,1.2c0,0-0.4,0-1.1,0c-6.6,0-40.6,1.1-63.6,24.5c-10.7,10.9-17.5,25-20.3,42.2c1.9-2.6,4-5.4,6.6-8.1
	c7.8-8.3,17.6-15,29-19.7c14.1-5.8,30.8-8.8,49.6-8.8C106.8,109.1,108.7,111,108.7,113.3z"/>
</svg>
