<?xml version="1.0" standalone="no"?><!DOCTYPE svg PUBLIC "-//W3C//DTD SVG 1.1//EN" "http://www.w3.org/Graphics/SVG/1.1/DTD/svg11.dtd"><svg class="icon" width="64px" height="64.00px" viewBox="0 0 1024 1024" version="1.1" xmlns="http://www.w3.org/2000/svg"><path fill="#ffffff" d="M901.632 554.496c22.016 0 39.936-17.92 39.936-39.936s-17.92-39.936-39.936-39.936H229.888l267.776-252.416c8.192-7.168 12.288-17.408 12.288-28.16s-4.608-20.992-12.8-28.16c-17.408-15.36-43.52-15.36-60.416 0l-337.92 318.976c-8.192 7.68-12.8 17.92-12.288 29.184-0.512 15.872 8.704 30.72 23.04 37.376l331.776 312.832c16.896 15.872 43.52 15.872 60.416 0 8.192-7.168 12.8-17.408 12.8-28.16s-4.608-20.992-12.288-28.16l-267.776-252.416h667.136z m-667.648 0"  /></svg>