<?xml version="1.0" encoding="utf-8"?>
<!-- Generator: Adobe Illustrator 22.0.0, SVG Export Plug-In . SVG Version: 6.00 Build 0)  -->
<svg version="1.1" id="图层_1" xmlns="http://www.w3.org/2000/svg" xmlns:xlink="http://www.w3.org/1999/xlink" x="0px" y="0px"
	 viewBox="0 0 225.8 200" style="enable-background:new 0 0 225.8 200;" xml:space="preserve">
<style type="text/css">
	.st0{fill:#FFFFFF;}
</style>
<path class="st0" d="M208.4,64.3h-10.6V49.4c0-12.5-10.2-22.7-22.7-22.7h-70.7v-2.8c0-12.3-10-22.3-22.3-22.3h-59
	c-12.1,0-22,9.9-22,22.1v156.7c0,9.9,8,18,18,18h2.7h154.6h0.4l0,0c10.7-0.2,20-7.5,22.7-17.9l24.6-95.9
	C226.8,74.3,219,64.3,208.4,64.3z M28.9,13.5h51.3c7.7,0,13,6.2,12.9,14v3.2c0,4.6,3.7,8.3,8.3,8.3h71.2c7.9,0,13.3,4.4,13.3,12.3
	v10.9h-135c-11.3,0-21,7.9-23.3,18.9L13,147.3V29.4C13,19.5,19,13.5,28.9,13.5z M210.5,91.5l-22,78.7c-2.4,9.4-10.9,16-20.6,16h-136
	c-11.8-0.3-15.8-4.3-13.2-16.3l18.4-79.6c2.1-9.8,10.8-16.8,20.8-16.8h138.6C211.3,73.5,213.2,78.7,210.5,91.5z"/>
</svg>
