<?xml version="1.0" encoding="utf-8"?>
<!-- Generator: Adobe Illustrator 22.1.0, SVG Export Plug-In . SVG Version: 6.00 Build 0)  -->
<svg version="1.1" id="Layer_1" xmlns="http://www.w3.org/2000/svg" xmlns:xlink="http://www.w3.org/1999/xlink" x="0px" y="0px"
	 viewBox="0 0 64 64" enable-background="new 0 0 64 64" xml:space="preserve">
<g>
	<path fill="#FFFFFF" d="M53.1,33.5L32.5,54c-0.7,0.7-1.9,0.7-2.7,0c-0.7-0.7-0.7-1.9,0-2.7L49.2,32L29.9,12.7
		c-0.7-0.7-0.7-1.9,0-2.7c0.7-0.7,1.9-0.7,2.7,0l20.6,20.5c0.4,0.4,0.6,0.9,0.5,1.5C53.7,32.5,53.5,33.1,53.1,33.5L53.1,33.5z
		 M30.9,32c0,0.5-0.1,1.1-0.5,1.5L13.6,50.2c-0.7,0.7-1.9,0.7-2.7,0c-0.7-0.7-0.7-1.9,0-2.7L26.5,32L10.9,16.5
		c-0.7-0.7-0.7-1.9,0-2.7c0.7-0.7,1.9-0.7,2.7,0l16.8,16.7C30.8,30.9,30.9,31.5,30.9,32L30.9,32z M30.9,32"/>
</g>
</svg>
