<?xml version="1.0" encoding="utf-8"?>
<!-- Generator: Adobe Illustrator 22.0.0, SVG Export Plug-In . SVG Version: 6.00 Build 0)  -->
<svg version="1.1" id="Layer_1" xmlns="http://www.w3.org/2000/svg" xmlns:xlink="http://www.w3.org/1999/xlink" x="0px" y="0px"
	 viewBox="0 0 229 34" style="enable-background:new 0 0 229 34;" xml:space="preserve">
<style type="text/css">
	.st0{fill:#37B9DA;enable-background:new    ;}
	.st1{enable-background:new    ;}
	.st2{fill:#37B9DA;}
</style>
<path class="st0" d="M174.821,8.023l-1.348,15.742l-0.104,0.099c-0.193,0.183-0.556,0.4-1.142,0.683
	c-0.587,0.283-1.369,0.455-2.39,0.525c-0.001,0-0.002,0-0.003,0c-2.682,0-4.219-1.548-4.469-4.477
	c-0.088-1.039-0.069-2.14,0.056-3.271c0.255-2.615,0.791-4.467,1.637-5.655c0.866-1.219,2.261-1.838,4.147-1.838
	c0.895,0.157,1.627,0.449,2.24,0.874c0.045,0.031,0.072,0.053,0.113,0.082l0.143-1.714c-0.056-0.034-0.108-0.066-0.176-0.106
	c-0.43-0.253-0.937-0.488-1.504-0.695c-0.557-0.204-1.198-0.326-1.907-0.362c-1.261,0-2.426,0.174-3.442,0.515
	c-0.973,0.327-1.912,1.18-2.791,2.537c-0.894,1.376-1.503,3.507-1.809,6.333c-0.175,1.404-0.21,2.725-0.107,3.931
	c0.191,2.247,0.806,3.732,1.827,4.415c1.066,0.712,2.471,1.11,4.18,1.182c0.804,0,1.579-0.072,2.291-0.213
	c0.711-0.141,1.295-0.3,1.734-0.473c0.45-0.176,0.717-0.284,0.803-0.321l0.568-0.25l-0.295,3.131
	c-0.156,1.995-1.796,3.01-4.873,3.01l-0.015,0c-1.173-0.049-2.241-0.214-3.175-0.49c-0.931-0.276-1.702-0.575-2.292-0.889
	c-0.113-0.06-0.214-0.114-0.304-0.163l0.068,2.13c0.189,0.104,0.677,0.313,1.914,0.657c1.206,0.334,2.805,0.504,4.752,0.504
	c5.376-0.101,8.153-1.969,8.482-5.71l1.653-19.723H174.821z"/>
<path class="st0" d="M39.347,26.07c1.052,0.246,2.36,0.371,3.891,0.371c0.559,0,0.978-0.018,1.246-0.053
	c2.225-0.179,3.967-0.755,5.195-1.716c1.198-0.936,1.874-2.509,2.008-4.672c-0.12-1.359-0.584-2.387-1.417-3.087
	c-0.86-0.725-1.859-1.257-2.971-1.583c-1.157-0.339-2.331-0.712-3.49-1.11c-1.296-0.445-1.99-1.09-2.06-1.917l-0.003-0.041
	l0.006-0.041c0.143-1.044,0.618-1.742,1.408-2.075c0.718-0.302,1.661-0.449,2.886-0.449c1.75,0,3.153,0.176,4.166,0.523
	c0.555,0.19,1.007,0.363,1.361,0.522l0.148-1.922c-0.351-0.135-1.485-0.499-2.294-0.697c-0.947-0.232-2.236-0.35-3.832-0.35
	c-0.11,0-0.29,0.009-0.541,0.028c-0.274,0.019-0.489,0.028-0.645,0.028c-4.263,0.204-6.537,1.692-6.935,4.55
	c-0.053,0.53-0.064,0.999-0.032,1.382c0.098,1.146,0.508,1.919,1.254,2.362c0.803,0.477,1.983,0.85,3.504,1.108
	c1.614,0.275,2.788,0.572,3.587,0.906c0.898,0.378,1.4,1.118,1.492,2.199c0.017,0.204-0.001,0.489-0.055,0.871
	c-0.13,1.152-0.543,2.027-1.226,2.588c-0.682,0.561-1.833,0.833-3.52,0.833c-1.537-0.019-2.848-0.257-3.901-0.706
	c-0.616-0.262-1.112-0.497-1.498-0.708l-0.187,2.123C37.317,25.485,38.446,25.86,39.347,26.07z"/>
<path class="st0" d="M139.511,26.07c1.052,0.246,2.36,0.371,3.891,0.371c0.559,0,0.978-0.018,1.246-0.053
	c2.225-0.179,3.967-0.755,5.195-1.716c1.198-0.936,1.874-2.509,2.008-4.672c-0.12-1.359-0.584-2.387-1.417-3.087
	c-0.86-0.725-1.859-1.257-2.971-1.583c-1.157-0.339-2.331-0.712-3.49-1.11c-1.296-0.445-1.99-1.09-2.06-1.917l-0.003-0.041
	l0.006-0.041c0.143-1.044,0.618-1.742,1.408-2.075c0.718-0.302,1.661-0.449,2.886-0.449c1.75,0,3.153,0.176,4.166,0.523
	c0.555,0.19,1.007,0.363,1.361,0.522l0.148-1.922c-0.351-0.135-1.485-0.499-2.294-0.697c-0.947-0.232-2.236-0.35-3.832-0.35
	c-0.11,0-0.29,0.009-0.541,0.028c-0.274,0.019-0.489,0.028-0.645,0.028c-4.263,0.204-6.537,1.692-6.935,4.55
	c-0.053,0.53-0.064,0.999-0.032,1.382c0.098,1.146,0.508,1.919,1.254,2.362c0.803,0.477,1.983,0.85,3.504,1.108
	c1.614,0.275,2.788,0.572,3.587,0.906c0.898,0.378,1.4,1.118,1.492,2.199c0.017,0.204-0.001,0.489-0.055,0.871
	c-0.13,1.152-0.543,2.027-1.226,2.588c-0.682,0.561-1.833,0.833-3.52,0.833c-1.537-0.019-2.848-0.257-3.901-0.706
	c-0.616-0.262-1.112-0.497-1.498-0.708l-0.187,2.123C137.481,25.485,138.61,25.86,139.511,26.07z"/>
<g class="st1">
	<polygon class="st2" points="55.251,8.128 53.716,26.244 58.042,26.244 59.576,8.128 	"/>
	<path class="st2" d="M59.671,1.11c-0.364-0.381-0.887-0.566-1.595-0.566c-0.916,0-1.613,0.327-2.13,1
		c-0.53,0.691-0.755,1.418-0.686,2.222c0.05,0.601,0.267,1.093,0.661,1.505c0.385,0.4,0.904,0.595,1.586,0.595
		c0.916,0,1.61-0.327,2.122-1c0.527-0.69,0.748-1.435,0.676-2.279C60.254,1.986,60.047,1.503,59.671,1.11z"/>
</g>
<polygon class="st0" points="155.599,8.207 154.064,26.323 158.389,26.323 159.924,8.207 "/>
<polygon class="st0" points="217.266,8.607 215.731,26.723 220.056,26.723 221.591,8.607 "/>
<path class="st0" d="M160.019,1.19c-0.364-0.381-0.887-0.566-1.595-0.566c-0.916,0-1.613,0.327-2.13,1
	c-0.53,0.691-0.755,1.418-0.686,2.222c0.05,0.601,0.266,1.093,0.661,1.505c0.385,0.4,0.904,0.595,1.586,0.595
	c0.916,0,1.61-0.327,2.122-1c0.527-0.69,0.748-1.435,0.676-2.279C160.602,2.066,160.395,1.583,160.019,1.19z"/>
<path class="st0" d="M76.898,21.351c0.416-1.172,0.688-2.592,0.809-4.22c0.109-1.171,0.125-2.213,0.048-3.104
	c-0.115-1.354-0.446-2.491-0.983-3.377c-0.526-0.868-1.32-1.527-2.36-1.961c-1.067-0.445-2.449-0.671-4.106-0.671
	c-5.517,0-8.485,3.02-9.073,9.231c-0.067,1.225-0.07,2.234-0.005,2.986c0.181,2.134,0.873,3.714,2.057,4.694
	c1.196,0.992,2.979,1.509,5.297,1.536c1.495,0,2.806-0.187,3.892-0.554c1.069-0.362,1.979-0.927,2.706-1.679
	C75.908,23.477,76.486,22.508,76.898,21.351z M73.385,17.306c-0.129,1.512-0.293,2.744-0.486,3.653
	c-0.205,0.966-0.609,1.804-1.198,2.491c-0.623,0.724-1.531,1.091-2.701,1.091c-1.429,0-3.19-0.676-3.465-3.897
	c-0.068-0.808-0.06-1.988,0.023-3.506v-0.006c0.15-2.135,0.521-3.859,1.103-5.124c0.626-1.358,1.798-2.072,3.484-2.123
	c1.391,0,3.094,0.657,3.361,3.787C73.581,14.555,73.54,15.777,73.385,17.306z"/>
<g class="st1">
	<polygon class="st2" points="7.444,14.127 16.023,14.127 16.228,11.581 7.656,11.581 	"/>
	<polygon class="st2" points="2.562,0.599 0.422,26.244 5.45,26.244 7.387,3.157 18.834,3.157 19.038,0.599 	"/>
</g>
<g class="st1">
	<polygon class="st2" points="32.158,8.128 30.618,26.244 33.705,26.244 35.239,8.128 	"/>
	<path class="st2" d="M29.895,23.114c-0.054,0.056-0.1,0.107-0.158,0.165c-0.696,0.689-1.767,1.058-3.183,1.097
		c-0.835,0-1.524-0.272-2.06-0.809c-0.528-0.53-0.838-1.286-0.919-2.246l-0.002-0.031l0.002-0.031l1.092-13.131h-4.38l-1.134,13.358
		c-0.03,0.902-0.022,1.09-0.019,1.125c0.098,1.165,0.499,2.036,1.221,2.662c0.725,0.63,1.704,0.974,2.909,1.026
		c1.971,0,3.548-0.22,4.672-0.654c0.918-0.353,1.474-0.62,1.815-0.817L29.895,23.114z"/>
</g>
<g class="st1">
	<polygon class="st2" points="85.273,8.128 80.898,8.128 79.363,26.244 83.741,26.244 	"/>
	<path class="st2" d="M90.752,8.018c-0.958,0-1.817,0.115-2.553,0.343c-0.737,0.229-1.321,0.483-1.737,0.754
		c-0.13,0.086-0.239,0.157-0.336,0.221l-0.16,1.921c0.599-0.641,1.505-1.042,2.703-1.188c0.007,0,0.015,0,0.023,0
		c1.236,0,2.091,0.203,2.658,0.618c0.585,0.433,0.922,1.135,1.004,2.088l-1.122,13.47h3.082l1.172-14.127
		C95.24,9.359,93.691,8.018,90.752,8.018z"/>
</g>
<g class="st1">
	<polygon class="st2" points="186.273,8.128 181.898,8.128 180.363,26.244 184.741,26.244 	"/>
	<path class="st2" d="M191.752,8.018c-0.958,0-1.817,0.115-2.553,0.343c-0.737,0.229-1.321,0.483-1.737,0.754
		c-0.13,0.086-0.239,0.157-0.336,0.221l-0.16,1.921c0.599-0.641,1.505-1.042,2.703-1.188c0.007,0,0.015,0,0.023,0
		c1.236,0,2.091,0.203,2.658,0.618c0.585,0.433,0.922,1.135,1.004,2.088l-1.122,13.47h3.082l1.172-14.127
		C196.24,9.359,194.691,8.018,191.752,8.018z"/>
</g>
<path class="st0" d="M228.385,8.713c-0.199-0.071-0.698-0.106-1.5-0.106c-1.04,0-1.911,0.146-2.61,0.438
	c-0.65,0.23-1.172,0.474-1.56,0.731c-0.157,0.104-0.289,0.205-0.416,0.306l-0.302,3.394c0.512-0.716,1.189-1.287,2.039-1.705
	c0.789-0.443,1.752-0.664,2.886-0.664c0.521,0,1.072,0.076,1.656,0.226L228.385,8.713z"/>
<path class="st0" d="M128.936,7.94c-6.512-0.609-9.462,3.878-9.883,8.822c-0.339,3.982-0.325,8.998,6.212,9.361
	c2.808,0.156,5.039-0.155,6.321-0.59c0.409-0.139,0.796-0.265,0.986-0.443c0.13-0.358,0.555-1.691,1.063-3.193
	c0,0-1.134,0.734-1.91,1.093c-0.775,0.359-3.709,1.363-5.539,1.176c-3.313-0.339-3.078-4.695-2.844-7.451
	c0.309-3.633,1.219-6.589,5.153-6.548c2.7,0.028,3.262,2.513,3.239,5.392h-7.446l-0.196,2.371h7.517h1.43h1.618
	c0.006-0.043,0.011-0.082,0.018-0.126C135.262,13.645,135.495,8.553,128.936,7.94z"/>
<path class="st0" d="M208.087,8.44c-6.512-0.609-9.462,3.878-9.883,8.822c-0.339,3.982-0.325,8.998,6.212,9.361
	c2.808,0.156,5.039-0.155,6.321-0.59c0.409-0.139,0.796-0.265,0.986-0.443c0.13-0.358,0.555-1.691,1.063-3.193
	c0,0-1.134,0.734-1.91,1.093c-0.775,0.359-3.709,1.363-5.539,1.176c-3.313-0.339-3.078-4.695-2.844-7.451
	c0.309-3.633,1.219-6.589,5.153-6.548c2.7,0.028,3.262,2.513,3.238,5.392h-7.446l-0.196,2.371h7.517h1.43h1.618
	c0.006-0.043,0.011-0.082,0.018-0.126C214.413,14.145,214.646,9.053,208.087,8.44z"/>
<g class="st1">
	<polygon class="st2" points="104.408,0.702 99.65,0.702 99.577,0.702 99.577,1.537 97.416,26.244 97.744,26.244 102.174,26.244 	
		"/>
	<path class="st2" d="M114.537,3.547c-0.813-1.315-2.524-2.844-3.503-2.845c-0.978-0.001-3.113,0-3.113,0h-2.607l-0.226,2.58
		c2.479,0,4.915,0,5.192,0c1.694,0,2.978,2.757,3.624,4.395c0.622,1.577,0.964,3.294,0.964,5.093c0,2.506-0.661,4.856-1.817,6.889
		c-0.877,1.541-2.83,4.005-4.383,4.005c-0.366,0-2.854,0-5.363,0l-0.226,2.58h1.489c0,0,4.126,0,4.473,0
		c1.318,0,2.765-1.391,3.562-2.221c2.805-2.919,4.53-6.885,4.53-11.253C117.134,9.632,116.088,6.056,114.537,3.547z"/>
</g>
</svg>
