<?xml version="1.0" standalone="no"?><!DOCTYPE svg PUBLIC "-//W3C//DTD SVG 1.1//EN" "http://www.w3.org/Graphics/SVG/1.1/DTD/svg11.dtd"><svg class="icon" width="64px" height="64.00px" viewBox="0 0 1024 1024" version="1.1" xmlns="http://www.w3.org/2000/svg"><path fill="#546371" d="M872.448 564.224C860.672 412.16 765.44 50.688 540.16 50.688s-347.648 343.04-369.152 506.368c-36.864 284.16 89.088 416.256 314.368 416.256 225.792 0.512 415.232-48.64 387.072-409.088z m-335.36-465.92c189.952 0 270.848 323.072 280.576 459.776 3.584 54.784 3.072 101.888-3.584 141.824L300.544 302.08c52.224-109.056 131.072-203.776 236.544-203.776z m66.56 498.176l-250.88 299.52c-21.504-10.752-40.448-23.552-56.832-39.424l252.928-301.568 54.784 41.472z m17.408 14.336l54.784 42.496-225.28 268.8c-27.648-3.072-52.736-8.192-76.288-16.896l246.784-294.4z m-395.264-59.392c2.048-14.848 4.608-31.744 8.192-49.664l97.28-116.224 55.808 43.008L220.16 627.2c0-23.552 2.048-48.64 5.632-75.776z m19.456-97.28c9.216-34.304 20.992-70.656 35.328-107.008l32.768 25.088-68.096 81.92z m158.72-11.776l56.32 43.52-224.256 267.776c-8.704-27.648-13.312-58.368-15.36-92.672l183.296-218.624z m-159.232 336.384l233.472-278.528 52.736 40.96L280.576 839.68c-14.336-17.408-26.112-37.888-35.84-60.928z m233.984 144.896l215.552-257.536 60.416 46.592-172.544 205.824c-29.184 3.584-59.904 4.608-91.136 4.608-4.096 1.024-8.192 1.024-12.288 0.512z m137.216-9.728l156.672-186.88 31.232 24.064c-30.72 102.912-100.352 146.432-187.904 162.816z"  /></svg>