<?xml version="1.0" standalone="no"?><!DOCTYPE svg PUBLIC "-//W3C//DTD SVG 1.1//EN" "http://www.w3.org/Graphics/SVG/1.1/DTD/svg11.dtd"><svg t="1612858457788" class="icon" viewBox="0 0 1024 1024" version="1.1" xmlns="http://www.w3.org/2000/svg" p-id="5003" xmlns:xlink="http://www.w3.org/1999/xlink" width="64" height="64"><defs><style type="text/css"></style></defs><path d="M872.38144 564.27008c-11.93472-152.27392-106.92608-513.62816-332.2368-513.62816S192.63488 393.856 171.15648 557.1072c-36.75648 284.02176 89.26208 416.24576 314.5728 416.24576 225.3056 0.48128 414.81216-48.68608 386.65216-409.08288z m-335.09888-465.8944c189.98272 0 270.65344 323.16416 280.6784 459.68384 3.81952 54.89664 2.86208 101.67296-3.34336 141.7728L300.5184 302.20288c52.02944-109.312 131.27168-203.8272 236.76416-203.8272z m66.35008 498.35008L353.024 896.0256c-21.4784-10.50112-40.576-23.38816-56.8064-39.61856l252.99456-301.68576 54.42048 42.00448z m17.664 13.84448l54.89664 42.48576-225.78688 269.21984c-27.68384-2.86208-52.98688-8.1152-76.37504-16.70656l247.26528-294.99904z m-395.7248-59.19232c1.90976-14.7968 4.77184-31.50336 8.1152-49.64352l97.3824-115.9936 55.84896 42.96192-166.59456 198.57408c0-23.38816 1.90976-48.68608 5.248-75.89888z m19.57376-97.37728c9.06752-34.37056 21.00224-70.64576 35.32288-106.92608l32.93696 25.29792L245.1456 454.00064z m158.95552-11.45856l56.32512 43.43808-224.35328 267.79136c-8.59136-27.68384-13.3632-58.23488-15.27296-92.60544l183.30112-218.624zM244.66944 778.5984l233.4208-278.76864 52.98688 41.05216-250.60864 298.81856c-14.32064-17.664-26.25536-37.71392-35.79904-61.10208z m233.89696 145.11104l215.76192-257.29024 60.6208 46.78144-172.32384 205.73696c-29.11744 3.34336-59.66848 4.77184-91.17184 4.77184a58.2656 58.2656 0 0 1-12.88704 0z m137.47712-9.54368l156.5696-187.12064 31.0272 23.86944c-30.55104 103.10144-100.23936 146.53952-187.5968 163.2512z" fill="#ffffff" p-id="5004"></path></svg>