<?xml version="1.0" standalone="no"?><!DOCTYPE svg PUBLIC "-//W3C//DTD SVG 1.1//EN" "http://www.w3.org/Graphics/SVG/1.1/DTD/svg11.dtd"><svg class="icon" width="64px" height="64.00px" viewBox="0 0 1024 1024" version="1.1" xmlns="http://www.w3.org/2000/svg"><path fill="#b2c3d1" d="M512 962a450 450 0 1 1 450-450 450.5175 450.5175 0 0 1-450 450z m0-838.5975A388.62 388.62 0 1 0 900.62 512 389.07 389.07 0 0 0 512 123.38zM512 422h22.5a22.5 22.5 0 0 1 22.5 22.5v315a22.5 22.5 0 0 1-22.5 22.5h-22.5a22.5 22.5 0 0 1-22.5-22.5V444.5a22.5 22.5 0 0 1 22.5-22.5z m11.25-157.5a33.75 33.75 0 1 1-33.75 33.75A33.75 33.75 0 0 1 523.25 264.5z"  /></svg>