<?xml version="1.0" standalone="no"?><!DOCTYPE svg PUBLIC "-//W3C//DTD SVG 1.1//EN" "http://www.w3.org/Graphics/SVG/1.1/DTD/svg11.dtd"><svg class="icon" width="64px" height="64.00px" viewBox="0 0 1024 1024" version="1.1" xmlns="http://www.w3.org/2000/svg"><path fill="#b2c3d1" d="M158.39687111 542.87473778c-16.31118222 0-29.12711111-12.81592889-29.12711111-29.12711111s12.81592889-29.12711111 29.12711111-29.12711112h480.59733334c16.31118222 0 29.12711111 12.81592889 29.1271111 29.12711112s-12.81592889 29.12711111-29.1271111 29.12711111H158.39687111z m0 0"  /><path fill="#b2c3d1" d="M132.18247111 535.88423111c-7.57304889 0-15.14609778-2.91271111-20.38897778-8.73813333-11.06830222-11.06830222-11.06830222-29.70965333 0-41.36049778l174.76266667-174.76266667c11.06830222-11.06830222 29.70965333-11.06830222 41.36049778 0 11.06830222 11.06830222 11.06830222 29.70965333 0 41.36049778l-174.76266667 174.76266667c-6.40796445 5.82542222-13.39847111 8.73813333-20.97152 8.73813333z m0 0"  /><path fill="#b2c3d1" d="M306.94513778 724.62791111c-7.57304889 0-15.14609778-2.91271111-20.38897778-8.73813333l-174.76266667-174.76266667c-11.06830222-11.06830222-11.06830222-29.70965333 0-41.36049778 11.06830222-11.06830222 29.70965333-11.06830222 41.36049778 0l174.76266667 174.76266667c11.06830222 11.06830222 11.06830222 29.70965333 0 41.36049778-5.82542222 5.82542222-13.39847111 8.73813333-20.97152 8.73813333z m0 0M416.46307555 919.77955555c-16.31118222 0-29.12711111-12.81592889-29.1271111-29.1271111s12.81592889-29.12711111 29.1271111-29.12711112H750.84231111c58.83676445 0 106.60522667-47.76846222 106.60522667-106.60522666V274.90531555C856.86499555 216.06855111 809.09653333 168.30008889 750.84231111 168.30008889H416.46307555c-16.31118222 0-29.12711111-12.81592889-29.1271111-29.12711111s12.81592889-29.12711111 29.1271111-29.12711111H750.84231111c43.69066667 0 85.05116445 16.89372445 116.50844444 48.35100444 30.87473778 31.45728 48.35100445 72.23523555 48.35100445 116.50844444v480.59733334c0 43.69066667-16.89372445 85.05116445-48.35100445 116.50844444s-72.23523555 48.35100445-116.50844444 48.35100445H416.46307555v-0.58254223z m0 0"  /></svg>