<?xml version="1.0" standalone="no"?><!DOCTYPE svg PUBLIC "-//W3C//DTD SVG 1.1//EN" "http://www.w3.org/Graphics/SVG/1.1/DTD/svg11.dtd"><svg t="1650252798312" class="icon" viewBox="0 0 1024 1024" version="1.1" xmlns="http://www.w3.org/2000/svg" p-id="17807" xmlns:xlink="http://www.w3.org/1999/xlink" width="64" height="64"><defs><style type="text/css">@font-face { font-family: feedback-iconfont; src: url("//at.alicdn.com/t/font_1031158_u69w8yhxdu.woff2?t=1630033759944") format("woff2"), url("//at.alicdn.com/t/font_1031158_u69w8yhxdu.woff?t=1630033759944") format("woff"), url("//at.alicdn.com/t/font_1031158_u69w8yhxdu.ttf?t=1630033759944") format("truetype"); }
</style></defs><path d="M60.416 964.608c-10.752-10.752-10.752-29.184 0-40.448L924.16 60.416c10.752-10.752 29.184-10.752 40.448 0 10.752 10.752 10.752 29.184 0 40.448L100.864 964.608c-10.752 10.752-28.672 10.752-40.448 0z" p-id="17808" fill="#707070"></path><path d="M60.416 60.416c10.752-10.752 29.184-10.752 40.448 0L964.608 924.16c10.752 10.752 10.752 29.184 0 40.448-10.752 10.752-29.184 10.752-40.448 0L60.416 100.864c-10.752-10.752-10.752-28.672 0-40.448z" p-id="17809" fill="#707070"></path></svg>