<?xml version="1.0" standalone="no"?><!DOCTYPE svg PUBLIC "-//W3C//DTD SVG 1.1//EN" "http://www.w3.org/Graphics/SVG/1.1/DTD/svg11.dtd"><svg class="icon" width="64px" height="64.00px" viewBox="0 0 1024 1024" version="1.1" xmlns="http://www.w3.org/2000/svg"><path fill="#b2c3d1" d="M913.92 915.456c-6.656 0-13.312-1.024-19.968-3.584-48.128-16.896-201.728-52.224-369.664-52.224-160.256 0-311.296 30.72-375.808 43.52-12.8 2.56-21.504 4.096-26.624 5.12-16.384 2.56-32.256-2.048-45.056-12.8-12.8-11.264-20.48-27.136-20.48-43.008 0-3.072 0-9.216-0.512-18.432-2.56-117.76-1.024-171.008 5.632-189.44 16.896-44.544 54.784-60.416 75.264-69.12 4.096-1.536 7.68-3.072 9.728-4.096l19.456 36.352c-4.096 2.048-8.704 4.096-13.312 6.144-18.432 7.68-41.984 17.408-52.224 45.568-3.072 8.704-6.144 45.568-3.072 174.08 0 9.728 0.512 16.384 0.512 19.456 0 3.072 2.048 8.192 6.144 12.288 3.584 3.072 7.168 4.096 11.776 3.584 4.096-0.512 13.312-2.56 24.576-4.608 65.536-13.312 219.648-44.544 384-44.544 166.912 0 323.584 33.792 383.488 54.784 7.68 2.56 13.312 0 15.872-2.048s7.168-6.144 7.168-14.336v-196.096c0-24.064-32.768-50.688-46.592-50.688v-40.96c37.376 0 87.552 45.568 87.552 91.648v196.096c0 19.456-8.704 36.864-24.576 48.128-10.24 5.632-22.016 9.216-33.28 9.216z"  /><path fill="#b2c3d1" d="M519.168 756.736h-3.072c-65.024-2.56-89.088-84.48-89.088-135.68V522.24c0-26.624 6.656-40.448 25.6-50.688 17.408-9.728 116.224-4.608 125.952-1.536 11.264 4.096 25.088 15.36 28.16 44.544 1.024 7.68 0.512 34.816-1.024 84.992-0.512 12.8-0.512 23.552-0.512 26.624 0 0.512-1.536 74.752-38.912 111.104-13.312 12.8-29.184 19.456-47.104 19.456z m-49.664-247.296s-1.536 2.56-1.536 13.312v98.816c0 24.576 11.776 93.184 49.664 94.72 7.68 0.512 13.824-2.048 19.968-7.68 19.968-19.456 26.624-67.072 26.624-81.408 0-3.584 0.512-13.824 0.512-27.648 0.512-23.552 2.048-72.704 1.024-79.872-0.512-5.632-1.536-8.704-2.56-10.24-17.408-2.048-78.848-3.072-92.672-0.512-0.512 0-1.024 0.512-1.024 0.512z m0.512-1.024z"  /><path fill="#b2c3d1" d="M352.768 755.712c-10.752 0-21.504-2.56-32.256-7.68-57.856-29.184-51.712-108.032-34.304-150.528l33.28-81.408c9.728-23.04 22.016-32.768 43.008-33.792h0.512c16.896 0 75.776 30.208 93.184 39.424l-18.944 36.352c-28.672-14.848-65.536-31.744-75.264-34.816h-0.512c-0.512 1.024-2.048 3.072-4.096 8.192l-33.28 81.408c-6.144 14.848-22.528 79.36 14.848 98.816 8.192 4.096 15.36 4.608 23.552 1.536 22.528-8.704 43.008-41.984 47.104-52.736 1.024-3.072 4.608-10.24 10.24-23.04 3.072-6.656 6.656-14.336 9.728-22.528l37.376 16.384c-3.584 7.68-6.656 15.36-9.728 22.528-4.608 10.24-8.704 19.456-9.728 22.016 0 0.512-25.6 58.88-70.656 75.776-7.68 2.56-15.872 4.096-24.064 4.096z m11.264-232.448z"  /><path fill="#b2c3d1" d="M235.008 765.44c-28.672 0-53.76-14.848-71.168-43.008-14.336-22.528-20.992-49.152-22.528-66.048L133.12 572.416c-2.048-24.064 4.096-37.888 22.016-49.152 15.36-9.216 113.664-15.872 122.88-14.336 9.728 2.048 26.624 9.216 32.768 37.376 1.536 6.656 3.072 29.184 5.632 73.216l1.024 13.824-40.96 2.56-1.024-13.824c-1.024-19.968-3.584-60.928-5.12-67.072-0.512-3.072-1.536-4.608-2.048-5.632-17.408 0-80.896 5.632-94.208 9.728-0.512 0.512-1.024 0.512-1.024 1.024 0 1.024-0.512 3.584 0 8.704l7.68 83.968c1.536 14.848 15.872 74.752 56.32 71.68 19.968-1.536 32.768-18.432 37.888-50.688l40.448 6.656c-8.192 51.2-35.84 81.92-75.264 84.992h-5.12zM687.616 755.712c-8.192 0-16.384-1.536-24.064-4.608-45.056-16.896-70.656-75.264-70.656-75.776-1.024-2.56-5.12-11.264-9.728-21.504-5.12-11.776-11.264-25.6-16.896-38.4l37.376-16.384c5.12 12.288 11.776 26.624 16.896 37.888 5.632 12.8 8.704 19.968 10.24 23.04 4.096 10.752 24.576 44.032 47.104 52.736 8.192 3.072 15.36 2.56 23.552-1.536 12.8-6.656 20.48-18.944 23.04-37.376l40.448 5.632c-4.096 31.744-19.968 55.296-45.056 68.096-10.24 5.632-20.992 8.192-32.256 8.192zM723.456 638.464c-2.048-13.312-5.632-22.528-7.168-25.6l-33.28-81.408c-2.048-4.608-3.072-7.168-4.096-8.192h-0.512c-11.264 3.072-57.344 24.576-81.92 38.4l-19.456-35.84c1.024-0.512 80.384-43.52 100.864-43.52h0.512c20.992 0.512 33.792 10.24 43.008 33.792l33.28 81.408c4.096 9.728 7.168 22.016 9.216 34.304l-40.448 6.656z"  /><path fill="#b2c3d1" d="M805.888 765.44h-6.144c-20.48-1.536-37.888-10.24-50.688-25.6-26.112-30.72-28.16-81.408-26.624-96.768 0-2.56 1.024-12.288 1.536-22.528 2.56-44.032 4.608-66.56 6.144-73.216 6.144-28.16 23.04-35.328 32.768-37.376 9.216-2.048 107.52 4.608 122.88 14.336 17.92 10.752 24.064 24.576 22.016 49.152l-7.68 83.968c-1.536 17.408-8.192 43.52-22.528 66.048-17.92 27.136-43.008 41.984-71.68 41.984z m-34.304-215.552c-0.512 1.024-1.536 2.56-2.048 5.632-1.024 6.144-3.584 47.104-5.12 67.072-1.024 13.312-1.536 20.992-1.536 24.064-0.512 6.656 0 46.08 16.896 66.56 6.144 7.168 13.312 10.752 22.528 11.264 40.448 3.072 54.784-56.832 56.32-71.68l7.68-83.968c0.512-5.12 0-7.68 0-8.704-0.512 0-0.512-0.512-1.024-1.024-12.288-3.584-76.288-9.216-93.696-9.216zM972.8 353.28c-9.728 0-18.944-5.632-23.04-14.848-34.304-73.216-179.712-189.952-426.496-189.952-247.808 0-384.512 102.4-426.496 190.464-6.144 12.8-21.504 18.432-34.304 12.288-12.8-6.144-17.92-21.504-12.288-34.304C78.848 256.512 136.192 202.24 211.968 163.84c85.504-43.52 193.024-66.56 311.296-66.56 272.384 0 432.128 131.584 472.576 219.648 6.144 12.8 0.512 28.16-12.288 33.792-3.584 2.048-7.168 2.56-10.752 2.56z"  /></svg>