<?xml version="1.0" standalone="no"?><!DOCTYPE svg PUBLIC "-//W3C//DTD SVG 1.1//EN" "http://www.w3.org/Graphics/SVG/1.1/DTD/svg11.dtd"><svg class="icon" width="64px" height="64.00px" viewBox="0 0 1024 1024" version="1.1" xmlns="http://www.w3.org/2000/svg"><path fill="#b2c3d1" d="M221.12334094 148.31465546C189.00636138 148.31465546 162.8620689 174.26535015 162.8620689 206.37213221L162.8620689 875.81752243C162.8620689 907.95475281 188.98554367 933.875 221.12334094 933.875L802.87665906 933.875C834.99363862 933.875 861.1379311 907.92430529 861.1379311 875.81752243L861.1379311 206.37213221C861.1379311 174.23490265 835.01445633 148.31465546 802.87665906 148.31465546L715.66379327 148.31465546 744.758621 177.40948236 744.758621 133.72403525C744.758621 109.74137259 725.24191226 90.125 701.16678647 90.125L322.83321353 90.125C298.66556609 90.125 279.241379 109.64477804 279.241379 133.72403525L279.241379 177.40948236 308.33620673 148.31465546 221.12334094 148.31465546ZM337.43103446 206.50431009L337.43103446 177.40948236 337.43103446 133.72403525C337.43103446 141.71826163 330.86695033 148.31465546 322.83321353 148.31465546L701.16678647 148.31465546C693.03811298 148.31465546 686.56896554 141.81247076 686.56896554 133.72403525L686.56896554 177.40948236 686.56896554 206.50431009 715.66379327 206.50431009 802.87665906 206.50431009C802.97849078 206.50431009 802.94827563 875.81752243 802.94827563 875.81752243 802.94827563 875.68982532 221.12334094 875.68534454 221.12334094 875.68534454 221.02150922 875.68534454 221.05172437 206.37213221 221.05172437 206.37213221 221.05172437 206.49983014 308.33620673 206.50431009 308.33620673 206.50431009L337.43103446 206.50431009ZM686.56896554 221.09493029C686.56896554 213.10070391 693.13304967 206.50431009 701.16678647 206.50431009L322.83321353 206.50431009C330.96188702 206.50431009 337.43103446 213.00649478 337.43103446 221.09493029L337.43103446 177.40948236C337.43103446 161.34086016 324.40482892 148.31465546 308.33620673 148.31465546 292.26758454 148.31465546 279.241379 161.34086016 279.241379 177.40948236L279.241379 221.09493029C279.241379 245.07759296 298.75808774 264.69396554 322.83321353 264.69396554L701.16678647 264.69396554C725.33443391 264.69396554 744.758621 245.1741875 744.758621 221.09493029L744.758621 177.40948236C744.758621 161.34086016 731.73241546 148.31465546 715.66379327 148.31465546 699.59517108 148.31465546 686.56896554 161.34086016 686.56896554 177.40948236L686.56896554 221.09493029ZM686.56896554 453.81034454C702.63758774 453.81034454 715.66379327 440.78413984 715.66379327 424.71551764 715.66379327 408.64689463 702.63758774 395.62068991 686.56896554 395.62068991L337.43103446 395.62068991C321.36241226 395.62068991 308.33620673 408.64689463 308.33620673 424.71551764 308.33620673 440.78413984 321.36241226 453.81034454 337.43103446 453.81034454L686.56896554 453.81034454ZM337.43103446 541.09482773C321.36241226 541.09482773 308.33620673 554.12103327 308.33620673 570.18965546 308.33620673 586.25827766 321.36241226 599.28448236 337.43103446 599.28448236L686.56896554 599.28448236C702.63758774 599.28448236 715.66379327 586.25827766 715.66379327 570.18965546 715.66379327 554.12103327 702.63758774 541.09482773 686.56896554 541.09482773L337.43103446 541.09482773ZM337.43103446 686.56896554C321.36241226 686.56896554 308.33620673 699.59517108 308.33620673 715.66379327 308.33620673 731.73241546 321.36241226 744.758621 337.43103446 744.758621L570.18965546 744.758621C586.25827766 744.758621 599.28448236 731.73241546 599.28448236 715.66379327 599.28448236 699.59517108 586.25827766 686.56896554 570.18965546 686.56896554L337.43103446 686.56896554Z"  /></svg>