<?xml version="1.0" standalone="no"?><!DOCTYPE svg PUBLIC "-//W3C//DTD SVG 1.1//EN" "http://www.w3.org/Graphics/SVG/1.1/DTD/svg11.dtd"><svg class="icon" width="64px" height="64.00px" viewBox="0 0 1024 1024" version="1.1" xmlns="http://www.w3.org/2000/svg"><path fill="#b2c3d1" d="M290.6 182H148.43l1.71 543.84a30 30 0 0 1-60 0L88.4 182a60 60 0 0 1 60-60h166.8l91.2 90h467.13a30 30 0 1 1 0 60H381.83l-91.2-90z"  /><path fill="#b2c3d1" d="M151.55 721.64a30 30 0 0 1-59.1-10.26l51.21-294.51C151.91 369.44 195.86 332 243.65 332h627.06c51.9 0 88.05 43.8 79.11 95.13l-67.8 390C873.71 864.56 829.79 902 782 902H182a30 30 0 0 1 0-60h600c18.48 0 37.59-16.29 40.89-35.13l67.8-390c2.61-14.91-5.61-24.87-19.98-24.87H243.65c-18.45 0-37.59 16.29-40.86 35.13l-51.24 294.51z"  /></svg>