<?xml version="1.0" standalone="no"?><!DOCTYPE svg PUBLIC "-//W3C//DTD SVG 1.1//EN" "http://www.w3.org/Graphics/SVG/1.1/DTD/svg11.dtd"><svg class="icon" width="64px" height="64.00px" viewBox="0 0 1024 1024" version="1.1" xmlns="http://www.w3.org/2000/svg"><path fill="#b2c3d1" d="M511.488 153.6c-198.656 0-360.96 162.304-360.96 360.96S312.832 875.52 511.488 875.52s360.96-162.304 360.96-360.96S710.144 153.6 511.488 153.6z m-1.024 574.464c-17.92 0-32.256-14.336-32.256-32.256s14.336-32.256 32.256-32.256 32.256 14.336 32.256 32.256-14.336 32.256-32.256 32.256z m120.32-260.608c-8.192 15.36-25.088 33.792-49.664 55.296-16.384 14.848-27.136 25.6-32.256 32.256-9.728 13.312-13.312 28.16-14.336 44.544-1.536 16.896-6.144 34.816-28.672 31.232-17.92-2.56-21.504-17.408-20.992-32.256 0.512-15.872 3.584-30.208 8.192-42.496 4.096-10.752 10.752-22.016 19.968-32.768 6.656-8.192 18.944-19.968 36.352-35.328 17.408-15.36 28.672-27.648 34.304-36.864 5.12-9.216 7.68-19.456 7.68-30.208 0-19.456-7.68-36.864-23.04-52.224-29.696-28.672-79.872-30.72-110.592-2.048C443.904 379.392 435.2 398.848 430.08 424.96c-7.68 36.864-55.808 24.576-50.688-5.632C392.704 348.16 436.224 301.056 510.976 300.544c36.352 0 71.68 14.848 96.256 37.376 24.064 22.016 35.84 48.64 35.84 79.872 0.512 17.92-3.584 34.816-12.288 49.664z m0 0"  /></svg>