<?xml version="1.0" standalone="no"?><!DOCTYPE svg PUBLIC "-//W3C//DTD SVG 1.1//EN" "http://www.w3.org/Graphics/SVG/1.1/DTD/svg11.dtd"><svg class="icon" width="64px" height="64.00px" viewBox="0 0 1024 1024" version="1.1" xmlns="http://www.w3.org/2000/svg"><path fill="#b2c3d1" d="M852.48 153.6c-18.944-2.56-180.736 19.456-341.504 20.48-163.328 1.024-326.144-18.944-341.504-16.896-21.504 2.56-69.632 2.56-88.576 40.96-13.824 27.136-6.656 116.224-6.656 116.224 30.72-34.304 54.784-34.304 61.44-27.136 7.168 7.168 15.36 12.8 16.896 20.48 3.584 16.896-1.536 41.472 0 44.544l15.872-0.512V332.8c0-15.36 12.288-28.16 27.648-28.16 27.136-0.512 49.152 20.48 50.688 47.104h20.48v-0.512c0-15.872 12.8-29.184 28.16-29.184 20.992-0.512 39.424 11.776 47.616 29.696h33.28c2.56-24.064 24.064-42.496 49.664-42.496 29.184 0 53.76 17.92 62.976 42.496h27.136c10.752-25.6 36.864-43.52 67.584-43.52 25.6 0 46.08 19.456 46.592 43.52h25.088c8.192-26.112 32.768-45.056 61.44-45.056 17.408 0 31.744 14.336 31.744 31.744v13.312h18.432c1.024-26.112 23.552-47.104 51.712-47.104 17.408 0 31.232 13.312 31.232 29.696v17.92l13.312 0.512c-4.096-19.968-2.048-39.424 6.656-51.2 10.24-13.824 71.68 6.656 71.68 16.896 0 13.824 5.12-104.448-6.656-122.88-24.064-38.4-54.784-38.4-82.432-41.984z"  /><path fill="#b2c3d1" d="M198.656 287.232h-7.68c-22.528 0-40.448 17.92-40.448 40.448v71.68c0 26.624 21.504 48.128 48.128 48.128h53.248c6.656 0 11.776-5.12 11.776-11.776V351.744c-0.512-35.84-29.696-64.512-65.024-64.512z m47.616 139.776c0 3.072-2.56 5.12-5.12 5.12h-38.912c-18.944 0-33.792-15.36-33.792-33.792V332.8c0-15.36 12.288-28.16 27.648-28.16 28.16-0.512 50.688 22.016 50.688 50.176v72.192z"  /><path fill="#b2c3d1" d="M111.616 280.064h-6.144c-17.92 0-32.768 14.848-32.768 32.768v58.368c0 21.504 17.408 38.912 38.912 38.912h43.008c5.12 0 9.728-4.096 9.728-9.728V332.288c-0.512-28.672-23.552-52.224-52.736-52.224z m38.912 113.152c0 2.56-2.048 4.096-4.096 4.096h-31.744c-15.36 0-27.648-12.288-27.648-27.648V316.928c0-12.288 9.728-22.528 22.528-23.04 22.528-0.512 40.96 17.92 40.96 40.448v58.88zM298.496 304.128h-8.192c-23.04 0-41.984 18.944-41.984 41.984v66.56c0 29.184 23.552 53.248 53.248 53.248h49.664c7.68 0 13.312-6.144 13.312-13.312v-81.92c0.512-36.864-29.696-66.56-66.048-66.56z m49.152 138.752c0 3.584-3.072 6.656-6.656 6.656h-29.696c-24.576 0-44.544-19.968-44.544-44.544V351.232c0-15.872 12.8-29.184 28.16-29.184 28.672-0.512 52.736 23.04 52.736 51.712v69.12z"  /><path fill="#b2c3d1" d="M424.96 287.232h-3.584c-35.328 0-64.512 27.648-64.512 61.44v96.256c0 20.992 17.92 38.4 39.936 38.4H486.4c13.312 0 24.576-10.24 24.576-23.552V369.664c0.512-45.568-37.888-82.432-86.016-82.432z m68.096 159.744c0 10.24-8.704 18.432-18.944 18.432H407.04c-17.408 0-31.232-13.312-31.232-30.208V356.352c0-26.624 22.528-48.128 50.176-48.128 36.864 0 67.072 29.184 67.072 64.512v74.24z"  /><path fill="#b2c3d1" d="M588.288 291.84c-50.176 0-90.624 37.376-90.624 83.456v91.136c0 9.216 8.192 16.384 17.92 16.384h95.232c19.456 0 35.328-14.336 35.328-32.256V345.6c0-29.696-26.112-53.76-57.856-53.76z m42.496 146.944c0 14.848-12.8 26.624-28.16 26.624h-76.8c-8.192 0-14.336-6.144-14.336-13.312V376.832c0-37.888 32.768-68.608 72.704-68.608 25.6 0 46.592 19.456 46.592 44.032v86.528z"  /><path fill="#b2c3d1" d="M723.456 287.232H716.8c-45.568 0-81.92 36.864-81.92 81.92v81.92c0 9.728 8.192 17.92 17.92 17.92h58.368c29.184 0 52.224-23.552 52.224-52.224V327.68c0.512-22.528-17.92-40.448-39.936-40.448z m25.088 120.32c0 23.552-18.944 41.984-41.984 41.984h-39.936c-7.68 0-13.824-6.144-13.824-13.824V370.688c0-35.84 28.672-64.512 64-64.512 17.408 0 31.744 14.336 31.744 31.744v69.632z"  /><path fill="#b2c3d1" d="M824.32 286.208h-6.144c-38.912 0-70.144 29.696-70.144 66.048v82.432c0 8.704 7.168 15.872 16.384 15.872h48.64c29.696 0 53.248-22.528 53.248-50.688V326.144c0.512-22.016-18.432-39.936-41.984-39.936z m25.088 108.544c0 20.48-17.408 37.376-39.424 37.376h-31.232c-6.656 0-12.288-5.12-12.288-11.776V353.28c0-27.136 23.04-48.64 51.712-48.64 17.408 0 31.232 13.312 31.232 29.696v60.416z"  /><path fill="#b2c3d1" d="M908.8 287.232h-4.608c-28.672 0-52.224 22.016-52.224 49.664v61.952c0 6.656 5.632 11.776 12.288 11.776h36.352c22.016 0 39.936-16.896 39.936-37.888V316.928c0-16.384-13.824-29.696-31.744-29.696z m18.944 81.408c0 15.36-13.312 27.648-29.184 27.648h-23.552c-5.12 0-9.216-4.096-9.216-8.704v-50.688c0-19.968 17.408-36.352 38.4-36.352 12.8 0 23.552 9.728 23.552 22.016v46.08z"  /><path fill="#b2c3d1" d="M851.456 627.712h-17.408c-2.56 23.04-11.776 90.112-40.96 90.112-13.824 0-29.184-9.728-35.328-28.672-6.656-20.48-7.168-47.616-6.656-61.44h-20.992c-0.512 6.144-1.536 13.312-2.56 22.016-4.608 41.472-20.48 88.064-47.616 88.064-36.864 0-44.032-54.784-46.592-83.968-1.024-9.216-2.56-18.432-2.56-26.112h-19.968v50.688c0 10.24-7.168 72.704-49.152 72.704-41.472 0-46.592-60.928-46.592-70.144v-52.224-1.024h-21.504V680.96c0 9.216-5.12 70.144-46.592 70.144s-49.152-62.464-49.152-72.704v-50.688h-21.504c0 8.192-1.536 16.896-2.56 26.112-3.072 29.184-10.24 83.968-46.592 83.968-27.136 0-43.008-46.592-47.616-88.064-1.024-8.704-2.048-15.872-2.56-22.016h-14.848c0.512 14.848 0 42.496-7.168 63.488-7.168 19.968-23.552 30.208-38.912 30.208-31.744 0-41.984-68.608-45.056-93.696h-12.8s4.096 26.112-7.68 49.664c-5.12 10.752-7.68 24.064-23.552 27.136-38.912 7.68-50.176-59.904-54.272-73.216-1.536-5.12-3.072 82.944-3.072 136.704 0 66.56 54.784 107.008 96.256 107.52 92.16 0.512 160.256-12.288 335.872-11.776 178.688 0.512 287.744 9.728 324.608 11.776 77.824 4.096 111.616-40.96 111.616-107.52 0-57.856-3.584-153.088-6.656-136.704-11.776 61.44-34.816 69.12-54.272 65.536-11.264-2.048-19.456-15.36-23.552-30.72-1.024-8.192-2.56-27.136-2.048-38.4z"  /><path fill="#b2c3d1" d="M273.408 608.256c0.512-22.016-14.336-32.768-32.256-32.768h-48.128c-18.944 0-37.376 15.872-36.352 34.304 0 0 7.168 134.656 57.344 134.656 19.968 0 41.472-13.312 50.688-39.424 12.8-38.912 8.704-96.768 8.704-96.768zM255.488 691.2c-7.168 19.968-23.552 30.208-38.912 30.208-38.912 0-45.568-102.4-45.568-102.4-1.024-14.336 10.752-26.112 25.088-26.112h41.984c13.824 0 25.088 8.192 24.576 25.088-0.512-0.512 3.072 43.52-7.168 73.216z"  /><path fill="#b2c3d1" d="M164.352 602.112c0.512-17.92-11.264-26.624-26.112-26.624h-38.912c-14.848 0-30.208 12.8-29.184 27.648 0 0 5.632 108.544 46.08 108.544 16.384 0 33.792-10.752 40.96-31.744 10.752-31.232 7.168-77.824 7.168-77.824z m-13.824 67.072c-5.632 16.384-18.944 24.064-31.232 24.064-31.232 0-36.864-82.432-36.864-82.432-0.512-11.264 8.704-20.992 19.968-20.992h33.792c11.264 0 20.48 6.656 19.968 19.968-0.512-0.512 2.56 35.328-5.632 59.392zM328.192 580.096c-79.36 0-68.608 13.312-62.976 65.024 6.144 52.736 26.624 111.104 62.976 111.104 48.128 0 57.856-68.608 61.44-105.472 4.096-37.376 17.408-70.656-61.44-70.656z m46.08 74.24c-3.072 29.184-10.24 83.968-46.592 83.968-27.136 0-43.008-46.592-47.616-88.064-4.608-40.96-12.288-51.712 47.616-51.712s49.664 26.112 46.592 55.808z"  /><path fill="#b2c3d1" d="M481.792 586.752H408.576c-14.336 0-26.112 11.776-26.112 26.112v64.512c0 12.8 9.728 90.112 65.536 90.112s62.464-75.776 62.464-87.552v-65.024c0-15.872-12.8-28.16-28.672-28.16z m12.288 94.208c0 9.216-5.12 70.144-46.592 70.144s-49.152-62.464-49.152-72.704v-51.712c0-11.776 8.704-20.992 19.456-20.992h54.272c11.776 0 21.504 10.24 21.504 23.04 0.512 0 0.512 43.008 0.512 52.224z"  /><path fill="#b2c3d1" d="M601.088 586.752h-73.216c-15.872 0-28.672 12.8-28.672 28.672v65.024c0 11.264 6.656 87.552 62.464 87.552s65.536-77.312 65.536-90.112v-64.512c0-15.36-11.776-26.624-26.112-26.624z m9.728 91.648c0 10.24-7.168 72.704-49.152 72.704-41.472 0-46.592-60.928-46.592-70.144v-52.224c0-12.8 9.728-23.04 21.504-23.04h54.272c10.752 0 19.456 9.216 19.456 20.992 0.512 0 0.512 41.472 0.512 51.712zM816.64 575.488h-48.128c-17.92 0-32.768 10.752-32.256 32.768 0 0-4.608 57.856 8.704 96.768 9.216 26.112 30.208 39.424 50.688 39.424 50.176 0 57.344-134.656 57.344-134.656 1.024-18.432-17.92-34.304-36.352-34.304z m17.92 44.544s-6.144 97.792-41.472 97.792c-13.824 0-29.184-9.728-35.328-28.672-9.216-28.672-6.144-70.144-6.144-70.144-0.512-15.872 9.728-23.552 22.528-23.552h37.888c13.312-0.512 23.552 11.264 22.528 24.576z"  /><path fill="#b2c3d1" d="M907.776 577.024H870.4c-13.824 0-25.6 8.192-25.088 25.6 0 0-3.584 45.056 7.168 75.776 7.168 20.48 23.552 30.72 39.424 30.72 39.424 0 44.544-104.96 44.544-104.96 0.512-14.848-14.336-27.136-28.672-27.136z m14.336 34.816s-5.12 76.288-32.256 76.288c-10.752 0-22.528-7.168-27.648-22.528-7.168-22.016-4.608-54.784-4.608-54.784-0.512-12.288 7.68-18.432 17.408-18.432h29.696c9.728 0 17.92 9.216 17.408 19.456zM679.936 580.096c-79.36 0-65.536 33.28-61.44 70.656 4.096 36.864 13.312 105.472 61.44 105.472 35.84 0 56.832-58.368 62.976-111.104 5.632-51.712 15.872-65.024-62.976-65.024z m47.616 69.632c-4.608 41.472-20.48 88.064-47.616 88.064-36.864 0-44.032-54.784-46.592-83.968-3.072-29.696-13.312-55.808 46.592-55.808 60.416 0.512 52.224 10.752 47.616 51.712z"  /></svg>