<?xml version="1.0" encoding="utf-8"?>
<!-- Generator: Adobe Illustrator 22.0.0, SVG Export Plug-In . SVG Version: 6.00 Build 0)  -->
<svg version="1.1" id="图层_1" xmlns="http://www.w3.org/2000/svg" xmlns:xlink="http://www.w3.org/1999/xlink" x="0px" y="0px"
	 viewBox="0 0 300 200" style="enable-background:new 0 0 300 200;" xml:space="preserve">
<style type="text/css">
	.st0{enable-background:new    ;}
	.st1{fill:#33B5D5;}
	.st2{fill:#2E9ADC;}
</style>
<g class="st0">
	<path class="st1" d="M56.7,109.7h-5.3l4.1-23.4h15.9l-0.5,2.9H60.3L59.1,96H68l-0.5,2.9h-8.9L56.7,109.7z"/>
	<path class="st1" d="M73.9,105c0,0.8,0.2,1.4,0.6,1.8c0.4,0.4,0.9,0.6,1.6,0.6c1.2,0,2.2-0.3,2.8-0.9c0.6-0.6,1-1,1.2-1.4l2.2-12.2
		h3.5l-3,16.7h-3.5l0.3-1.6c-0.4,0.3-1.1,0.6-2.2,1c-1.1,0.4-2.6,0.6-4.5,0.6c-1.2,0-2.1-0.4-2.8-1c-0.7-0.6-1-1.5-1-2.6
		c0-0.1,0-0.5,0.1-1.1l2.2-12.2h4.7L73.9,105z"/>
	<path class="st1" d="M91.5,97c0,0.6,0.5,1.1,1.6,1.4c1,0.4,2.1,0.7,3.1,1c1.1,0.3,2,0.8,2.7,1.5c0.8,0.7,1.2,1.7,1.2,3
		c-0.3,2-1.1,3.5-2.4,4.4c-1.3,0.9-3,1.4-5.1,1.6c-0.3,0-0.7,0-1.2,0c-1.4,0-2.7-0.1-3.7-0.3c-1-0.2-1.7-0.4-2-0.6l-0.1-2.9
		c0.3,0.3,0.9,0.6,1.8,1c0.9,0.4,2.1,0.6,3.4,0.6c1.5,0,2.5-0.2,3.1-0.7c0.6-0.4,1-1.1,1.2-2.1c0.1-0.3,0.1-0.5,0.1-0.7
		c0-0.8-0.3-1.4-1-1.7c-0.7-0.3-1.7-0.5-3.2-0.8c-1.4-0.2-2.5-0.6-3.3-1s-1.1-1.2-1.1-2.4c0-0.4,0-0.8,0.1-1.3
		c0.6-2.7,3-4.1,7.1-4.3c0.1,0,0.3,0,0.6,0c0.2,0,0.4,0,0.5,0c1.5,0,2.7,0.1,3.6,0.3c0.9,0.2,1.5,0.4,1.8,0.5l0.3,2.7
		c-0.3-0.2-0.9-0.5-1.8-0.8s-2.1-0.4-3.7-0.4c-1.1,0-1.9,0.1-2.6,0.4C92.1,95.7,91.7,96.2,91.5,97z"/>
	<path class="st1" d="M100.8,109.7l3-16.7h4.7l-3,16.7H100.8z M107.3,86.2c0.7,0,1.3,0.2,1.7,0.6c0.4,0.4,0.5,0.9,0.5,1.5
		c0,0.8-0.3,1.6-0.9,2.3c-0.6,0.7-1.4,1-2.3,1c-0.7,0-1.3-0.2-1.7-0.6c-0.4-0.4-0.6-0.9-0.6-1.5c0-0.8,0.3-1.5,0.9-2.2
		C105.6,86.5,106.3,86.2,107.3,86.2z"/>
	<path class="st1" d="M118,92.9c1.6,0,2.9,0.2,3.9,0.6c1,0.4,1.7,1,2.2,1.9c0.5,0.8,0.7,1.9,0.7,3.1c0,0.8-0.1,1.8-0.3,2.8
		c-0.2,1.5-0.6,2.8-1.1,3.8s-1.1,2-1.9,2.7c-0.8,0.7-1.7,1.2-2.8,1.6c-1.1,0.3-2.3,0.5-3.8,0.5c-2.2,0-3.9-0.5-5-1.4
		c-1.1-0.9-1.6-2.4-1.6-4.4c0-0.7,0.1-1.6,0.2-2.7C109.6,95.7,112.8,92.9,118,92.9z M113.2,101.3c-0.2,1.3-0.3,2.4-0.3,3.1
		c0,2.1,0.9,3.2,2.6,3.2c1,0,1.8-0.3,2.3-0.9c0.6-0.6,1-1.3,1.2-2.1c0.3-0.8,0.5-1.9,0.7-3.2c0.3-1.3,0.4-2.4,0.4-3.2
		c0-2-0.8-3.1-2.5-3.1c-1.4,0-2.5,0.6-3.1,1.7S113.5,99.4,113.2,101.3z"/>
	<path class="st1" d="M141.4,96.8l-2.3,12.9h-3.5l2.2-12.3c0-0.8-0.2-1.3-0.7-1.6c-0.4-0.3-1.2-0.5-2.2-0.5c-1.1,0.1-1.9,0.4-2.4,1
		c-0.5,0.5-0.9,1-1.1,1.3l-2.1,12.1h-4.7l3-16.7h4.7l-0.3,1.4c0.1,0,0.3-0.2,0.7-0.4c0.4-0.3,1-0.5,1.8-0.7c0.7-0.2,1.6-0.3,2.5-0.3
		C139.9,92.9,141.4,94.2,141.4,96.8z"/>
</g>
<g class="st0">
	<path class="st2" d="M146.8,104.1l-2.9,5.6h-3.7l12.2-23.4h6l4.1,23.4h-5.3l-1.1-5.6H146.8z M155.6,100.7l-1.8-10l-5.2,10H155.6z"
		/>
	<path class="st2" d="M180.2,96.8l-2.3,12.9h-3.5l2.2-12.3c0-0.8-0.2-1.3-0.7-1.6s-1.2-0.5-2.2-0.5c-1.1,0.1-1.9,0.4-2.4,1
		c-0.5,0.5-0.9,1-1.1,1.3l-2.1,12.1h-4.7l3-16.7h4.7l-0.3,1.4c0.1,0,0.3-0.2,0.7-0.4s1-0.5,1.8-0.7c0.7-0.2,1.6-0.3,2.5-0.3
		C178.7,92.9,180.2,94.2,180.2,96.8z"/>
	<path class="st2" d="M190,109.7l0.3-1.8c-0.2,0.3-0.7,0.7-1.5,1.1c-0.8,0.5-2.1,0.7-3.9,0.7c-1.4-0.1-2.5-0.4-3.4-1
		c-0.9-0.6-1.3-1.5-1.3-2.7c0-0.1,0-0.4,0.1-0.9c0.3-1.7,1.1-3,2.5-3.8c1.4-0.8,3.3-1.4,5.7-1.5c1.2-0.1,2.2-0.4,2.9-1
		c0.7-0.5,1-1.2,1-1.8c0-0.5-0.2-1-0.7-1.4c-0.5-0.4-1.1-0.6-2-0.6c-1.9,0-3.5,0.4-4.7,1.1c-1.2,0.7-2,1.3-2.4,1.8l1.3-3.3
		c0,0,0.3-0.2,0.9-0.5c0.6-0.3,1.3-0.6,2.3-0.8c1-0.3,2.1-0.4,3.3-0.4c4.4,0,6.6,1.3,6.6,3.9c0,0.2,0,0.5-0.1,0.9l-2.1,12H190z
		 M188.1,107.1c1.1-0.3,1.8-0.6,2.2-1.1s0.5-0.7,0.5-1l0.7-3.8c0,0.1-0.1,0.2-0.3,0.4c-0.1,0.2-0.4,0.4-0.8,0.6
		c-0.4,0.2-1,0.3-1.8,0.4c-1.4,0.2-2.5,0.5-3.3,0.9c-0.8,0.4-1.2,1.1-1.3,2.1c0,1.1,0.8,1.7,2.4,1.7
		C187,107.3,187.5,107.2,188.1,107.1z"/>
	<path class="st2" d="M196.8,109.7l4.1-23.4h4.6l-4.1,23.4H196.8z"/>
	<path class="st2" d="M208.9,114.3c-0.7,0.4-2,0.6-3.8,0.6l-0.7-2.1l0.4,0c0.3,0,0.5,0,0.8,0c0.5,0,0.9,0,1.2-0.1
		c1.2-0.2,2.1-1.1,2.8-2.4l0.7-1.4l-4.2-16h4.8l2.7,10.3l5.8-10.3h3l-10.3,18.3C211,112.6,210,113.7,208.9,114.3z"/>
	<path class="st2" d="M226.5,97c0,0.6,0.5,1.1,1.6,1.4s2.1,0.7,3.1,1s2,0.8,2.7,1.5c0.8,0.7,1.2,1.7,1.2,3c-0.3,2-1.1,3.5-2.4,4.4
		s-3,1.4-5.1,1.6c-0.3,0-0.7,0-1.2,0c-1.4,0-2.7-0.1-3.7-0.3c-1-0.2-1.7-0.4-2-0.6l-0.1-2.9c0.3,0.3,0.9,0.6,1.8,1
		c0.9,0.4,2.1,0.6,3.4,0.6c1.5,0,2.5-0.2,3.1-0.7c0.6-0.4,1-1.1,1.2-2.1c0.1-0.3,0.1-0.5,0.1-0.7c0-0.8-0.3-1.4-1-1.7
		c-0.7-0.3-1.8-0.5-3.2-0.8c-1.4-0.2-2.5-0.6-3.3-1c-0.7-0.4-1.1-1.2-1.1-2.4c0-0.4,0-0.8,0.1-1.3c0.6-2.7,3-4.1,7.1-4.3
		c0.1,0,0.3,0,0.6,0c0.2,0,0.4,0,0.5,0c1.5,0,2.7,0.1,3.6,0.3c0.9,0.2,1.5,0.4,1.8,0.5l0.3,2.7c-0.3-0.2-0.9-0.5-1.8-0.8
		s-2.1-0.4-3.7-0.4c-1.1,0-1.9,0.1-2.6,0.4C227.1,95.7,226.7,96.2,226.5,97z"/>
	<path class="st2" d="M241.3,102.2c0,0.1-0.1,0.4-0.2,0.8c-0.1,0.4-0.1,0.8-0.1,1.2c0,2.2,1.1,3.4,3.2,3.5c1.7,0,3.1-0.2,4.1-0.7
		c1-0.4,1.7-0.8,2.1-1.1l-1.2,2.9c0,0.2-0.6,0.4-1.6,0.7c-1,0.3-2.3,0.4-3.8,0.4c-0.6,0-1.1,0-1.4,0c-2-0.1-3.5-0.7-4.4-1.5
		c-1-0.9-1.4-2.2-1.4-4c0-0.6,0.1-1.5,0.2-2.5c0.9-6,4-8.9,9.2-9c3,0,4.9,0.8,5.7,2.4c0.4,0.8,0.6,1.8,0.6,3.1
		c0,0.9-0.1,1.8-0.3,2.6c-0.2,0.8-0.3,1.3-0.3,1.3H241.3z M246.1,95c-1.7,0.1-2.8,0.7-3.4,1.9c-0.6,1.2-0.9,2.2-1,3h7.3
		c0-0.1,0.1-0.4,0.2-0.7c0.1-0.3,0.1-0.7,0.1-1.2C249.3,96,248.2,95,246.1,95z"/>
	<path class="st2" d="M251.8,109.7l3-16.7h4.7l-0.4,2.1c0.1-0.1,0.3-0.3,0.8-0.7c0.5-0.4,1.1-0.7,2-1c0.7-0.3,1.6-0.4,2.6-0.4
		c0.8,0,1.3,0,1.5,0.1l0,2.4c-0.5-0.1-1-0.2-1.6-0.2c-1.1,0-2,0.2-2.8,0.6c-0.9,0.4-1.6,0.9-2.2,1.6c-0.6,0.7-0.9,1.3-1,1.9
		l-1.8,10.3H251.8z"/>
</g>
</svg>
