<?xml version="1.0" encoding="utf-8"?>
<!-- Generator: Adobe Illustrator 22.0.0, SVG Export Plug-In . SVG Version: 6.00 Build 0)  -->
<svg version="1.1" id="图层_1" xmlns="http://www.w3.org/2000/svg" xmlns:xlink="http://www.w3.org/1999/xlink" x="0px" y="0px"
	 viewBox="0 0 200 200" style="enable-background:new 0 0 200 200;" xml:space="preserve">
<style type="text/css">
	.st0{fill:#37B9DA;}
	.st1{fill:none;stroke:#37B9DA;stroke-width:6;stroke-miterlimit:10;}
</style>
<path class="st0" d="M158.4,24.1c-7.6-9-16-12.9-27.9-12.9c-8.9,0-14.9,3.7-20.2,6.8c-3.7,2.2-6.8,4.1-10.3,4.4
	c-3.5-0.3-6.6-2.2-10.3-4.4c-5.4-3.2-11.4-6.8-20.2-6.8c-11.9,0-20.3,3.8-27.9,12.9c-15.2,18,4.3,62.8,5.2,64.8
	c3.1,7,2.1,16.9,1.2,26.7c-0.7,6.9-1.3,13.5-0.5,19.2c2.7,19.3,11.3,56.1,24.2,56.1c5.9,0,7.1-6.8,10.1-23.3
	c3-16,8.4-45.4,18.2-47.1c9.8,1.7,15.3,31.2,18.2,47.1c3.1,16.5,4.3,23.3,10.1,23.3c11.2,0,21.6-29.1,24.2-56.2
	c0.5-5.3-0.1-11.5-0.7-17.9c-1-10.1-1.9-20.5,1.3-27.8C154.1,87,173.7,42.1,158.4,24.1z M145.1,85.3c-4.1,9.4-3,21.6-2,32.2
	c0.6,6.1,1.2,11.7,0.7,16.2c-2.4,24.2-9.6,41.1-14,46.5c-1-3.6-2-9.3-3-14.3c-4.3-23.5-9.7-52.8-26.5-54.4c-0.1,0-0.3,0-0.4,0
	s-0.3,0-0.4,0C82.8,113,77.4,142.3,73,165.9c-0.9,4.9-1.9,10.7-2.9,14.2c-3.8-5.2-10.3-20.6-14-46.6c-0.7-4.6-0.1-10.7,0.6-17.1
	C58,105.6,59,94.5,55,85.3c-7.6-17.2-14.7-45.8-6.5-55.5c6-7,11.8-9.7,21.2-9.7c6.4,0,10.9,2.7,15.7,5.6c4.3,2.6,8.9,5.3,14.5,5.7
	c0.2,0,0.4,0,0.5,0c5.7-0.3,10.2-3.1,14.5-5.7c4.8-2.9,9.3-5.6,15.7-5.6c9.2,0,15.2,2.7,21.2,9.7C159.9,39.5,152.7,68.1,145.1,85.3z
	"/>
<g>
	<rect x="92.4" y="53.1" class="st1" width="15.4" height="36.4"/>
	<rect x="77" y="47.3" class="st1" width="15.4" height="47.9"/>
	<rect x="107.8" y="47.3" class="st1" width="15.4" height="47.9"/>
</g>
</svg>
