<?xml version="1.0" encoding="utf-8"?>
<!-- Generator: Adobe Illustrator 22.0.0, SVG Export Plug-In . SVG Version: 6.00 Build 0)  -->
<svg version="1.1" id="图层_1" xmlns="http://www.w3.org/2000/svg" xmlns:xlink="http://www.w3.org/1999/xlink" x="0px" y="0px"
	 viewBox="0 0 200 200" style="enable-background:new 0 0 200 200;" xml:space="preserve">
<style type="text/css">
	.st0{fill:#37B9DA;}
</style>
<path class="st0" d="M178.1,97.3C167.9,85.2,156.7,80,140.7,80c-11.9,0-19.9,4.8-27.1,9.2c-4.8,2.9-9.1,5.6-13.8,5.9l0,0
	c-4.6-0.4-8.8-2.9-13.8-5.9C79,85,70.7,80,58.9,80c-16,0-27.1,5.2-37.4,17.3c-14.7,17.4-5.1,53.5,1.8,73.3c1.8,5.1,6.5,8.4,11.9,8.4
	h125.3h4c5.3,0,10.1-3.3,11.9-8.4C183.3,150.8,192.8,114.7,178.1,97.3z M155.8,167.6H43.9c-5.6,0-10.5-3.6-12.1-9.1
	c-6.2-20.8-9.2-44.1-1.2-53.5c8-9.3,15.9-13.1,28.3-13.1c8.5,0,14.5,3.6,21,7.5c5.8,3.5,11.9,7.1,19.5,7.6c0.2,0,0.5,0,0.7,0
	c7.6-0.5,13.7-4,19.5-7.6c6.4-3.9,12.5-7.5,21-7.5c12.5,0,20.4,3.6,28.3,13.1c8.1,9.5,5.1,32.8-1.2,53.5
	C166.2,163.9,161.3,167.6,155.8,167.6z"/>
<path class="st0" d="M23.6,42.1H176c1.8,0,3.2,1.3,3.2,2.9v2.6c0,1.6-1.5,2.9-3.2,2.9H23.6c-1.8,0-3.2-1.3-3.2-2.9l0,0V45
	C20.3,43.5,21.8,42.1,23.6,42.1L23.6,42.1z"/>
<path class="st0" d="M185.8,46.6c0.2-0.2,0.2-0.5,0-0.6l-20.5-20.5c-1.7-1.7-4.3-1.7-5.9,0c-1.7,1.7-1.7,4.3,0,6l14.9,14.9
	l-14.9,14.9c-1.7,1.7-1.7,4.3,0,5.9c1.7,1.7,4.3,1.7,6,0L185.8,46.6z"/>
<path class="st0" d="M13.9,46c-0.2,0.2-0.2,0.5,0,0.6l20.5,20.5c1.7,1.7,4.3,1.7,5.9,0c1.7-1.7,1.7-4.3,0-6L25.5,46.3l14.9-14.9
	c1.7-1.7,1.7-4.3,0-5.9c-1.7-1.7-4.3-1.7-6,0L13.9,46z"/>
<rect x="10.3" y="22.8" class="st0" width="3.8" height="57.1"/>
<rect x="185.9" y="22.8" class="st0" width="3.8" height="57.1"/>
</svg>
