<?xml version="1.0" standalone="no"?><!DOCTYPE svg PUBLIC "-//W3C//DTD SVG 1.1//EN" "http://www.w3.org/Graphics/SVG/1.1/DTD/svg11.dtd"><svg t="1612858442936" class="icon" viewBox="0 0 1024 1024" version="1.1" xmlns="http://www.w3.org/2000/svg" p-id="4404" xmlns:xlink="http://www.w3.org/1999/xlink" width="64" height="64"><defs><style type="text/css"></style></defs><path d="M245.76 328.704c-19.456-73.216-26.112-148.992 2.048-181.76 30.72-35.84 60.416-49.664 108.544-49.664 11.776 0 22.016 2.048 32.256 5.12l24.576-39.424c-16.384-6.656-34.816-10.752-57.344-10.752-60.928 0-103.936 19.968-142.848 66.048-52.224 61.44-24.576 184.832 0.512 262.656L245.76 328.704zM811.52 117.76c-38.912-46.592-81.92-66.048-142.848-66.048-45.568 0-76.288 18.944-103.424 34.816-18.944 11.264-34.816 20.992-52.736 22.528-12.8-1.024-24.576-6.656-37.376-13.824L451.072 133.12c18.432 10.24 37.376 19.456 60.416 20.48h2.56c29.184-1.536 52.224-15.872 74.24-29.184 24.576-14.848 47.616-28.672 80.384-28.672 47.104 0 77.824 13.824 108.544 49.664 41.984 49.664 5.632 196.096-33.792 284.672-20.992 48.128-15.36 110.592-10.24 165.376 3.072 31.232 6.144 60.416 3.584 82.944-12.288 124.416-49.152 210.432-71.68 238.08-5.12-18.432-10.24-47.616-15.36-73.728-21.504-119.808-49.152-270.336-135.168-278.016h-4.096c-86.016 7.68-113.664 157.696-135.68 278.528-4.608 25.088-9.728 54.784-14.848 73.216-19.456-26.624-52.736-105.472-71.68-238.592-3.584-23.552-0.512-54.784 3.072-87.552 5.632-55.296 10.752-112.64-9.728-159.232-2.56-5.632-4.608-10.24-6.656-16.384l-30.208 48.128c9.728 34.304 5.632 78.848 1.024 122.88-3.584 35.328-6.656 69.12-2.56 98.816 13.824 99.328 57.856 287.744 123.904 287.744 30.208 0 36.352-34.816 51.712-119.296 15.36-81.92 43.008-232.96 93.184-241.152 50.176 8.704 78.336 159.744 93.184 241.152 15.872 84.48 22.016 119.296 51.712 119.296 57.344 0 110.592-148.992 124.416-288.256 2.56-27.136-0.512-58.88-3.584-91.648-5.12-51.712-9.728-104.96 6.656-142.336 4.608-10.24 105.472-240.128 27.136-332.288z" fill="#ffffff" p-id="4405"></path><path d="M243.82976 463.47264l230.5024-367.9232 36.44928 22.8352-230.5024 367.9232zM205.4144 312.22272L366.04928 55.808l36.44416 22.8352-160.64512 256.4096z" fill="#ffffff" p-id="4406"></path></svg>