<?xml version="1.0" encoding="utf-8"?>
<!-- Generator: Adobe Illustrator 22.0.0, SVG Export Plug-In . SVG Version: 6.00 Build 0)  -->
<svg version="1.1" id="图层_1" xmlns="http://www.w3.org/2000/svg" xmlns:xlink="http://www.w3.org/1999/xlink" x="0px" y="0px"
	 viewBox="0 0 200 200" style="enable-background:new 0 0 200 200;" xml:space="preserve">
<style type="text/css">
	.st0{fill:#37B9DA;}
</style>
<g>
	<path class="st0" d="M48,64.2c-3.8-14.3-5.1-29.1,0.4-35.5c6-7,11.8-9.7,21.2-9.7c2.3,0,4.3,0.4,6.3,1l4.8-7.7
		c-3.2-1.3-6.8-2.1-11.2-2.1c-11.9,0-20.3,3.9-27.9,12.9c-10.2,12-4.8,36.1,0.1,51.3L48,64.2z"/>
	<path class="st0" d="M158.5,23c-7.6-9.1-16-12.9-27.9-12.9c-8.9,0-14.9,3.7-20.2,6.8c-3.7,2.2-6.8,4.1-10.3,4.4
		c-2.5-0.2-4.8-1.3-7.3-2.7l-4.7,7.4c3.6,2,7.3,3.8,11.8,4c0.2,0,0.4,0,0.5,0c5.7-0.3,10.2-3.1,14.5-5.7c4.8-2.9,9.3-5.6,15.7-5.6
		c9.2,0,15.2,2.7,21.2,9.7c8.2,9.7,1.1,38.3-6.6,55.6c-4.1,9.4-3,21.6-2,32.3c0.6,6.1,1.2,11.8,0.7,16.2c-2.4,24.3-9.6,41.1-14,46.5
		c-1-3.6-2-9.3-3-14.4c-4.2-23.4-9.6-52.8-26.4-54.3c-0.1,0-0.3,0-0.4,0s-0.3,0-0.4,0c-16.8,1.5-22.2,30.8-26.5,54.4
		c-0.9,4.9-1.9,10.7-2.9,14.3c-3.8-5.2-10.3-20.6-14-46.6c-0.7-4.6-0.1-10.7,0.6-17.1c1.1-10.8,2.1-22-1.9-31.1
		c-0.5-1.1-0.9-2-1.3-3.2l-5.9,9.4c1.9,6.7,1.1,15.4,0.2,24c-0.7,6.9-1.3,13.5-0.5,19.3c2.7,19.4,11.3,56.2,24.2,56.2
		c5.9,0,7.1-6.8,10.1-23.3c3-16,8.4-45.5,18.2-47.1c9.8,1.7,15.3,31.2,18.2,47.1c3.1,16.5,4.3,23.3,10.1,23.3
		c11.2,0,21.6-29.1,24.3-56.3c0.5-5.3-0.1-11.5-0.7-17.9c-1-10.1-1.9-20.5,1.3-27.8C154.1,85.9,173.8,41,158.5,23z"/>
</g>
<rect x="31.3" y="52.6" transform="matrix(0.5309 -0.8474 0.8474 0.5309 -13.5673 89.1206)" class="st0" width="84.8" height="8.4"/>
<rect x="29.8" y="33.9" transform="matrix(0.5309 -0.8474 0.8474 0.5309 -4.4286 68.2362)" class="st0" width="59.1" height="8.4"/>
</svg>
