<?xml version="1.0" standalone="no"?><!DOCTYPE svg PUBLIC "-//W3C//DTD SVG 1.1//EN" "http://www.w3.org/Graphics/SVG/1.1/DTD/svg11.dtd"><svg t="1612858482675" class="icon" viewBox="0 0 1024 1024" version="1.1" xmlns="http://www.w3.org/2000/svg" p-id="5805" xmlns:xlink="http://www.w3.org/1999/xlink" width="64" height="64"><defs><style type="text/css"></style></defs><path d="M512 49.664C256.512 49.664 49.664 256.512 49.664 512s207.36 462.336 462.336 462.336 462.336-207.36 462.336-462.336S767.488 49.664 512 49.664z m0 878.592c-229.888 0-416.256-186.368-416.256-416.256S282.112 95.744 512 95.744s416.256 186.368 416.256 416.256-186.368 416.256-416.256 416.256z" fill="#ffffff" p-id="5806"></path><path d="M465.408 703.488H411.136L291.84 416.768h-2.048v286.72h-49.664V308.224h54.272l119.296 286.72h2.048v-286.72h49.664v395.264zM751.616 504.832c0 72.192-10.24 124.416-31.232 156.16-20.992 31.744-50.176 47.616-87.552 47.616-37.376 0-67.072-15.872-88.576-47.616-21.504-31.744-32.256-83.456-32.256-156.16 0-72.192 10.752-123.904 32.256-154.624 21.504-30.72 51.2-46.08 88.576-46.08 37.376 0 66.56 15.36 87.552 46.08 20.48 30.72 31.232 82.432 31.232 154.624z m-52.224 0c0-64.512-6.656-107.008-19.456-126.976-12.8-19.968-28.672-30.208-47.616-30.208-18.944 0-34.816 10.24-48.64 30.208-13.824 19.968-20.48 62.464-20.48 126.976s6.656 107.52 20.48 128c13.824 20.992 30.208 31.232 48.64 31.232 18.944 0 34.816-10.24 47.616-31.232 12.8-20.48 19.456-63.488 19.456-128zM866.304 703.488h-49.664v-50.688h49.664v50.688z" fill="#ffffff" p-id="5807"></path></svg>