<?xml version="1.0" encoding="utf-8"?>
<!-- Generator: Adobe Illustrator 22.0.0, SVG Export Plug-In . SVG Version: 6.00 Build 0)  -->
<svg version="1.1" id="图层_1" xmlns="http://www.w3.org/2000/svg" xmlns:xlink="http://www.w3.org/1999/xlink" x="0px" y="0px"
	 viewBox="0 0 200 200" style="enable-background:new 0 0 200 200;" xml:space="preserve">
<style type="text/css">
	.st0{fill:#37B9DA;}
</style>
<path class="st0" d="M17,68.2h167v11.9H17V68.2z M17,121.9h167v11.9H17V121.9z"/>
<path class="st0" d="M67.7,16.5h11.9v167H67.7V16.5z M121.4,16.5h11.9v167h-11.9V16.5z"/>
<path class="st0" d="M168.7,189.5H32.3c-11.9,0-21.3-9.3-21.3-21.3V31.8c0-11.9,9.3-21.3,21.3-21.3h136.4c11.9,0,21.3,9.3,21.3,21.3
	v136.4C190,180.1,180.6,189.5,168.7,189.5z M178,22.5H23v155.1h155V22.5z"/>
</svg>
