<?xml version="1.0" encoding="utf-8"?>
<!-- Generator: Adobe Illustrator 22.1.0, SVG Export Plug-In . SVG Version: 6.00 Build 0)  -->
<svg version="1.1" xmlns="http://www.w3.org/2000/svg" xmlns:xlink="http://www.w3.org/1999/xlink" x="0px" y="0px"
	 viewBox="0 0 200 200" enable-background="new 0 0 200 200" xml:space="preserve">
<g id="Layer_2" display="none">
	<rect x="0" y="0" display="inline" fill="#172330" width="200" height="200"/>
</g>
<g id="Layer_1">
</g>
<g id="Layer_3">
</g>
<g id="Layer_4">
</g>
<g id="Layer_5">
</g>
<g id="Layer_6">
</g>
<g id="Layer_7">
</g>
<g id="Layer_8">
</g>
<g id="Layer_9">
</g>
<g id="Layer_10">
	<path fill="none" stroke="#37B9DA" stroke-width="10" stroke-linecap="round" stroke-miterlimit="10" d="M144.4,72
		c0-8,6.1-14.6,13.5-14.6h1.9c7.4,0,13.5,6.6,13.5,14.6"/>
	<path fill="none" stroke="#37B9DA" stroke-width="10" stroke-linecap="round" stroke-miterlimit="10" d="M105.4,72
		c0-8,6.1-14.6,13.5-14.6h1.9c7.4,0,13.5,6.6,13.5,14.6"/>
	<path fill="none" stroke="#37B9DA" stroke-width="10" stroke-linecap="round" stroke-miterlimit="10" d="M66.5,72
		c0-8,6.1-14.6,13.5-14.6h1.9c7.4,0,13.5,6.6,13.5,14.6"/>
	<path fill="none" stroke="#37B9DA" stroke-width="10" stroke-linecap="round" stroke-miterlimit="10" d="M27.6,72
		c0-8,6.1-14.6,13.5-14.6H43c7.4,0,13.5,6.6,13.5,14.6"/>
	
		<line fill="none" stroke="#37B9DA" stroke-width="10" stroke-linecap="round" stroke-miterlimit="10" x1="66.5" y1="74" x2="56.5" y2="74"/>
	
		<line fill="none" stroke="#37B9DA" stroke-width="10" stroke-linecap="round" stroke-miterlimit="10" x1="105.4" y1="74" x2="95.5" y2="74"/>
	
		<line fill="none" stroke="#37B9DA" stroke-width="10" stroke-linecap="round" stroke-miterlimit="10" x1="144.4" y1="74" x2="134.4" y2="74"/>
	<path fill="none" stroke="#37B9DA" stroke-width="10" stroke-linecap="round" stroke-miterlimit="10" d="M27.6,74H25
		c-6.5,0-11.9-5.8-11.9-12.8V38.8C13.1,31.8,18.4,26,25,26H175c6.5,0,11.9,5.8,11.9,12.8v22.3c0,7.1-5.3,12.8-11.9,12.8h-1.7"/>
	<path fill="none" stroke="#37B9DA" stroke-width="10" stroke-linecap="round" stroke-miterlimit="10" d="M55.6,128.3
		c0,8-6.1,14.6-13.5,14.6h-1.9c-7.4,0-13.5-6.6-13.5-14.6"/>
	<path fill="none" stroke="#37B9DA" stroke-width="10" stroke-linecap="round" stroke-miterlimit="10" d="M94.6,128.3
		c0,8-6.1,14.6-13.5,14.6h-1.9c-7.4,0-13.5-6.6-13.5-14.6"/>
	<path fill="none" stroke="#37B9DA" stroke-width="10" stroke-linecap="round" stroke-miterlimit="10" d="M133.5,128.3
		c0,8-6.1,14.6-13.5,14.6h-1.9c-7.4,0-13.5-6.6-13.5-14.6"/>
	<path fill="none" stroke="#37B9DA" stroke-width="10" stroke-linecap="round" stroke-miterlimit="10" d="M172.4,128.4
		c0,8-6.1,14.6-13.5,14.6H157c-7.4,0-13.5-6.6-13.5-14.6"/>
	
		<line fill="none" stroke="#37B9DA" stroke-width="10" stroke-linecap="round" stroke-miterlimit="10" x1="133.5" y1="126.4" x2="143.5" y2="126.4"/>
	
		<line fill="none" stroke="#37B9DA" stroke-width="10" stroke-linecap="round" stroke-miterlimit="10" x1="94.6" y1="126.4" x2="104.5" y2="126.4"/>
	
		<line fill="none" stroke="#37B9DA" stroke-width="10" stroke-linecap="round" stroke-miterlimit="10" x1="55.6" y1="126.4" x2="65.6" y2="126.4"/>
	<path fill="none" stroke="#37B9DA" stroke-width="10" stroke-linecap="round" stroke-miterlimit="10" d="M172.4,126.4h2.6
		c6.5,0,11.9,5.8,11.9,12.8v22.3c0,7.1-5.3,12.8-11.9,12.8H25c-6.5,0-11.9-5.8-11.9-12.8v-22.3c0-7.1,5.3-12.8,11.9-12.8h1.7"/>
</g>
</svg>
