<?xml version="1.0" encoding="utf-8"?>
<!-- Generator: Adobe Illustrator 22.0.0, SVG Export Plug-In . SVG Version: 6.00 Build 0)  -->
<svg version="1.1" id="图层_1" xmlns="http://www.w3.org/2000/svg" xmlns:xlink="http://www.w3.org/1999/xlink" x="0px" y="0px"
	 viewBox="0 0 200 200" style="enable-background:new 0 0 200 200;" xml:space="preserve">
<style type="text/css">
	.st0{fill:#818489;}
</style>
<path class="st0" d="M99.867,9.471L99.867,9.471c-36.997,0-67.251,30.254-67.251,67.251v35.448c0,6.288,5.103,11.391,11.391,11.391
	h8.566c2.005,0,3.554-1.64,3.554-3.554l0,0c0-2.005-1.64-3.554-3.554-3.554h-4.647c-4.374,0-8.019-3.645-8.019-8.019V76.54
	c0-32.896,26.973-59.87,59.87-59.87l0,0c32.896,0,59.87,26.973,59.87,59.87v31.894c0,4.374-3.645,8.019-8.019,8.019h-4.556
	c-2.005,0-3.554,1.64-3.554,3.554l0,0c0,2.005,1.64,3.554,3.554,3.554h8.566c6.288,0,11.391-5.103,11.391-11.391V76.722
	C167.118,39.725,136.864,9.471,99.867,9.471z"/>
<path class="st0" d="M148.619,130.213c-1.64,0-2.916,1.276-2.916,2.916v22.052c0,6.197-32.441,27.247-36.359,27.247
	c-3.918,0-4.921-3.918-8.657-3.918s-3.372,3.918-7.928,3.918s-37.088-18.407-37.088-27.793v-21.506c0-1.64-1.276-2.916-2.916-2.916
	l0,0c-1.64,0-2.916,1.276-2.916,2.916V159.1c0,10.206,36.724,30.072,41.827,30.072s4.739-4.192,8.93-4.192s5.376,4.192,9.75,4.192
	c4.374,0,41.007-22.781,41.007-29.525v-26.609C151.535,131.489,150.259,130.213,148.619,130.213L148.619,130.213z"/>
<path class="st0" d="M90.116,86.108c-2.916-8.93-14.671-13.122-26.426-9.386c-11.664,3.736-18.772,14.124-15.856,23.055
	c2.916,8.93,14.671,13.122,26.426,9.386C85.925,105.427,93.032,95.038,90.116,86.108z M72.711,104.698
	c-8.93,2.916-17.952,0-20.048-6.47c-2.096-6.47,3.463-14.124,12.484-16.949c8.93-2.916,17.952,0,20.048,6.47
	C87.2,94.218,81.642,101.782,72.711,104.698z"/>
<path class="st0" d="M151.079,104.06c5.012-8.019,0.547-19.683-9.842-26.244c-10.388-6.47-22.873-5.285-27.884,2.734
	s-0.547,19.683,9.842,26.244C133.583,113.264,146.068,111.988,151.079,104.06z M125.564,102.693
	c-8.019-5.012-11.573-13.76-7.928-19.501c3.645-5.832,13.031-6.47,21.05-1.458c8.019,5.012,11.573,13.76,7.928,19.501
	C142.969,107.067,133.583,107.705,125.564,102.693z"/>
<path class="st0" d="M113.991,120.098l-5.923-10.662c-3.281-5.923-11.755-5.923-15.036,0l-5.923,10.662
	c-3.189,5.741,1.002,12.758,7.563,12.758h0.456c1.458,0,2.552-1.185,2.552-2.552l0,0c0-1.458-1.185-2.552-2.552-2.552H94.49
	c-2.643,0-4.283-2.825-3.007-5.103l6.105-11.026c1.276-2.369,4.647-2.369,6.014,0l6.105,11.026c1.276,2.278-0.365,5.103-3.007,5.103
	h-0.638c-1.458,0-2.552,1.185-2.552,2.552l0,0c0,1.458,1.185,2.552,2.552,2.552h0.456
	C112.989,132.856,117.181,125.839,113.991,120.098z"/>
<path class="st0" d="M128.571,136.045h-3.918v4.374c-0.182,6.834-4.374,12.575-10.297,15.218v-10.662h-4.739v12.029
	c-0.729,0.091-1.367,0.182-2.096,0.182h-4.283v-12.12H98.5v12.12h-6.197c-0.091,0-0.182,0-0.273,0v-12.12h-4.739v11.208
	c-6.926-2.096-12.029-8.566-12.12-16.129v-4.101l0,0h-3.918h-6.834v4.374h6.834v0.638c0,10.935,8.93,19.865,19.865,19.865h17.587
	c10.935,0,19.865-8.93,19.865-19.865v-0.638h6.743v-4.374H128.571z"/>
</svg>
