<?xml version="1.0" encoding="utf-8"?>
<!-- Generator: Adobe Illustrator 22.0.0, SVG Export Plug-In . SVG Version: 6.00 Build 0)  -->
<svg version="1.1" id="图层_1" xmlns="http://www.w3.org/2000/svg" xmlns:xlink="http://www.w3.org/1999/xlink" x="0px" y="0px"
	 viewBox="0 0 200 200" style="enable-background:new 0 0 200 200;" xml:space="preserve">
<style type="text/css">
	.st0{fill:#37B9DA;}
</style>
<path class="st0" d="M80.778,88.363l-9.86,9.951l5.386,5.386c2.739,2.739,7.121,2.739,9.86,0c2.739-2.739,2.739-7.121,0-9.86
	L80.778,88.363z"/>
<path class="st0" d="M62.976,106.166l-9.86,9.86l5.386,5.386c2.739,2.739,7.121,2.739,9.86,0c2.739-2.739,2.739-7.121,0-9.86
	L62.976,106.166z"/>
<path class="st0" d="M45.174,123.968l-9.86,9.86l5.386,5.386c2.739,2.739,7.121,2.739,9.86,0c2.739-2.739,2.739-7.121,0-9.86
	L45.174,123.968z"/>
<path class="st0" d="M134.184,34.957l-9.86,9.86l5.386,5.386c2.739,2.739,7.121,2.739,9.86,0c2.739-2.739,2.739-7.121,0-9.86
	L134.184,34.957z"/>
<path class="st0" d="M98.58,70.561l-9.86,9.951l5.386,5.386c2.739,2.739,7.121,2.739,9.86,0c2.739-2.739,2.739-7.121,0-9.86
	L98.58,70.561z"/>
<path class="st0" d="M187.499,54.677L187.499,54.677L146.052,13.23c-2.739-2.739-7.121-2.739-9.86,0L12.583,136.84
	c-2.739,2.739-2.739,7.121,0,9.86l41.356,41.356c2.739,2.739,7.121,2.739,9.86,0L187.499,64.536
	C190.146,61.797,190.146,57.415,187.499,54.677z M58.959,173.266L58.959,173.266L27.463,141.77l6.938-6.938l0,0l28.666-28.666l0,0
	l7.942-7.942l9.86-9.86l0,0l7.942-7.942l0,0l9.86-9.86l0,0l7.942-7.942l0,0l9.86-9.86l0,0l7.942-7.942l0,0l9.86-9.86l0,0
	l6.938-6.938l31.405,31.587L58.959,173.266z"/>
<path class="st0" d="M116.382,52.759l-9.86,9.86l5.386,5.386c2.739,2.739,7.121,2.739,9.86,0c2.739-2.739,2.739-7.121,0-9.86
	L116.382,52.759z"/>
</svg>
