<?xml version="1.0" encoding="utf-8"?>
<!-- Generator: Adobe Illustrator 22.0.0, SVG Export Plug-In . SVG Version: 6.00 Build 0)  -->
<svg version="1.1" id="图层_1" xmlns="http://www.w3.org/2000/svg" xmlns:xlink="http://www.w3.org/1999/xlink" x="0px" y="0px"
	 viewBox="0 0 200 200" style="enable-background:new 0 0 200 200;" xml:space="preserve">
<style type="text/css">
	.st0{fill:#818489;}
</style>
<path class="st0" d="M76.913,10.1H26.611c-9.696,0-17.567,7.872-17.567,17.567v50.302c0,9.696,7.872,17.567,17.567,17.567h50.302
	c9.696,0,17.567-7.872,17.567-17.567V27.667C94.48,17.972,86.609,10.1,76.913,10.1z M83.441,81.521c0,1.536-1.248,2.88-2.88,2.88
	H22.963c-1.536,0-2.88-1.248-2.88-2.88V24.019c0-1.536,1.248-2.88,2.88-2.88h57.501c1.536,0,2.88,1.248,2.88,2.88v57.501H83.441z"/>
<g>
	<path class="st0" d="M184.428,37.363h-64.125c-3.552,0-6.528-2.88-6.528-6.528l0,0c0-3.552,2.88-6.528,6.528-6.528h64.125
		c3.552,0,6.528,2.88,6.528,6.528l0,0C190.956,34.483,188.076,37.363,184.428,37.363z"/>
	<path class="st0" d="M184.428,81.233h-64.125c-3.552,0-6.528-2.88-6.528-6.528l0,0c0-3.552,2.88-6.528,6.528-6.528h64.125
		c3.552,0,6.528,2.88,6.528,6.528l0,0C190.956,78.257,188.076,81.233,184.428,81.233z"/>
</g>
<path class="st0" d="M76.913,104.464H26.611c-9.696,0-17.567,7.872-17.567,17.567v50.302c0,9.696,7.872,17.567,17.567,17.567h50.302
	c9.696,0,17.567-7.872,17.567-17.567v-50.302C94.48,112.335,86.609,104.464,76.913,104.464z M83.441,175.981
	c0,1.536-1.248,2.88-2.88,2.88H22.963c-1.536,0-2.88-1.248-2.88-2.88v-57.501c0-1.536,1.248-2.88,2.88-2.88h57.501
	c1.536,0,2.88,1.248,2.88,2.88v57.501H83.441z"/>
<g>
	<path class="st0" d="M184.428,131.823h-64.125c-3.552,0-6.528-2.88-6.528-6.528l0,0c0-3.552,2.88-6.528,6.528-6.528h64.125
		c3.552,0,6.528,2.88,6.528,6.528l0,0C190.956,128.847,188.076,131.823,184.428,131.823z"/>
	<path class="st0" d="M184.428,175.597h-64.125c-3.552,0-6.528-2.88-6.528-6.528l0,0c0-3.552,2.88-6.528,6.528-6.528h64.125
		c3.552,0,6.528,2.88,6.528,6.528l0,0C190.956,172.717,188.076,175.597,184.428,175.597z"/>
</g>
</svg>
