<?xml version="1.0" encoding="utf-8"?>
<!-- Generator: Adobe Illustrator 22.0.0, SVG Export Plug-In . SVG Version: 6.00 Build 0)  -->
<svg version="1.1" id="图层_1" xmlns="http://www.w3.org/2000/svg" xmlns:xlink="http://www.w3.org/1999/xlink" x="0px" y="0px"
	 viewBox="0 0 200 200" style="enable-background:new 0 0 200 200;" xml:space="preserve">
<style type="text/css">
	.st0{fill:#818489;}
</style>
<path class="st0" d="M170.387,110.209C168.056,80.468,149.503,9.891,105.497,9.891S37.624,76.925,33.429,108.81
	c-7.179,55.473,17.434,81.298,61.44,81.298C138.874,190.202,175.887,180.599,170.387,110.209z M104.938,19.214
	c37.106,0,52.862,63.118,54.82,89.782c0.746,10.722,0.559,19.858-0.653,27.69L58.695,59.024
	C68.857,37.674,84.334,19.214,104.938,19.214z M117.897,116.548L68.95,175.005c-4.195-2.051-7.925-4.568-11.095-7.738l49.413-58.923
	L117.897,116.548z M121.347,119.252l10.722,8.298L87.97,180.132c-5.407-0.559-10.349-1.585-14.917-3.263L121.347,119.252z
	 M44.057,107.691c0.373-2.89,0.932-6.153,1.585-9.696L64.662,75.34l10.908,8.391l-32.538,38.784
	C43.032,117.947,43.405,113.006,44.057,107.691z M47.88,88.672c1.771-6.713,4.102-13.798,6.899-20.884l6.433,4.941L47.88,88.672z
	 M78.926,86.434l11.001,8.484l-43.819,52.303c-1.678-5.407-2.61-11.374-2.983-18.087L78.926,86.434z M47.787,152.07l45.59-54.447
	l10.349,8.018l-48.947,58.363C51.982,160.554,49.651,156.638,47.787,152.07z M93.47,180.412l42.141-50.252l11.84,9.137
	l-33.657,40.183c-5.687,0.653-11.654,0.932-17.807,0.932C95.055,180.505,94.309,180.505,93.47,180.412z M120.321,178.548
	l30.58-36.547l6.06,4.662C150.994,166.8,137.383,175.284,120.321,178.548z"/>
</svg>
