<?xml version="1.0" standalone="no"?><!DOCTYPE svg PUBLIC "-//W3C//DTD SVG 1.1//EN" "http://www.w3.org/Graphics/SVG/1.1/DTD/svg11.dtd"><svg class="icon" width="64px" height="64.00px" viewBox="0 0 1024 1024" version="1.1" xmlns="http://www.w3.org/2000/svg"><path fill="#c0fbfd" d="M911.872 498.176C859.648 436.224 802.304 409.6 720.384 409.6c-60.928 0-101.888 24.576-138.752 47.104-24.576 14.848-46.592 28.672-70.656 30.208-23.552-2.048-45.056-14.848-70.656-30.208C404.48 435.2 361.984 409.6 301.568 409.6c-81.92 0-138.752 26.624-191.488 88.576-75.264 89.088-26.112 273.92 9.216 375.296 9.216 26.112 33.28 43.008 60.928 43.008h662.016c27.136 0 51.712-16.896 60.928-43.008 35.328-101.376 83.968-286.208 8.704-375.296z m-114.176 359.936H224.768c-28.672 0-53.76-18.432-61.952-46.592-31.744-106.496-47.104-225.792-6.144-273.92 40.96-47.616 81.408-67.072 144.896-67.072 43.52 0 74.24 18.432 107.52 38.4 29.696 17.92 60.928 36.352 99.84 38.912h3.584c38.912-2.56 70.144-20.48 99.84-38.912 32.768-19.968 64-38.4 107.52-38.4 64 0 104.448 18.432 144.896 67.072 41.472 48.64 26.112 167.936-6.144 273.92-7.68 27.648-32.768 46.592-60.928 46.592zM120.832 215.552H901.12c9.216 0 16.384 6.656 16.384 14.848v13.312c0 8.192-7.68 14.848-16.384 14.848H120.832c-9.216 0-16.384-6.656-16.384-14.848V230.4c-0.512-7.68 7.168-14.848 16.384-14.848z"  /><path fill="#c0fbfd" d="M951.296 238.592c1.024-1.024 1.024-2.56 0-3.072l-104.96-104.96c-8.704-8.704-22.016-8.704-30.208 0-8.704 8.704-8.704 22.016 0 30.72l76.288 76.288-76.288 76.288c-8.704 8.704-8.704 22.016 0 30.208 8.704 8.704 22.016 8.704 30.72 0l104.448-105.472zM71.168 235.52c-1.024 1.024-1.024 2.56 0 3.072l104.96 104.96c8.704 8.704 22.016 8.704 30.208 0 8.704-8.704 8.704-22.016 0-30.72L130.56 237.056l76.288-76.288c8.704-8.704 8.704-22.016 0-30.208-8.704-8.704-22.016-8.704-30.72 0L71.168 235.52z"  /><path fill="#c0fbfd" d="M52.736 116.736h19.456v292.352h-19.456z"  /><path fill="#c0fbfd" d="M73.728 410.112H51.2V115.2h22.016v294.912z m-19.968-2.56h16.896V117.76h-16.896v289.792z"  /><path fill="#c0fbfd" d="M951.808 116.736h19.456v292.352h-19.456z"  /><path fill="#c0fbfd" d="M972.8 410.112h-22.016V115.2h22.016v294.912z m-19.456-2.56h16.896V117.76h-16.896v289.792z"  /></svg>