<?xml version="1.0" standalone="no"?><!DOCTYPE svg PUBLIC "-//W3C//DTD SVG 1.1//EN" "http://www.w3.org/Graphics/SVG/1.1/DTD/svg11.dtd"><svg class="icon" width="64px" height="64.00px" viewBox="0 0 1024 1024" version="1.1" xmlns="http://www.w3.org/2000/svg"><path fill="#ffffff" d="M512 49.664C256.512 49.664 49.664 256.512 49.664 512s207.36 462.336 462.336 462.336 462.336-207.36 462.336-462.336S767.488 49.664 512 49.664z m0 878.592c-229.888 0-416.256-186.368-416.256-416.256S282.112 95.744 512 95.744s416.256 186.368 416.256 416.256-186.368 416.256-416.256 416.256z"  /><path fill="#ffffff" d="M452.608 730.624h-40.448l-132.608-348.16c-3.584-9.728-6.656-19.456-9.216-29.184h-1.024c1.024 10.24 1.536 30.72 1.536 62.464v314.368h-33.792V283.136h43.008l129.024 342.016c6.144 16.384 9.728 26.624 10.752 30.72h0.512c-1.024-12.8-1.536-34.304-1.536-65.024V283.136h33.792v447.488z"  /><path fill="#ffffff" d="M457.728 735.744h-49.152L275.968 387.072v348.16h-44.032V278.016h51.712l130.048 345.088V278.016h44.032v457.728z m-41.984-10.24h31.744V288.256h-23.552v302.592c0 30.208 0.512 52.224 1.536 64.512l0.512 5.632h-10.24l-1.024-4.096c-0.512-2.56-3.072-10.24-10.752-30.208L276.48 288.256h-34.304v436.736h23.552V415.744c0-31.744-0.512-51.712-1.536-61.952l-0.512-5.632h10.752l1.024 3.584c2.56 9.728 5.632 18.944 9.216 28.672l131.072 345.088z"  /><path fill="#ffffff" d="M503.808 512c0-72.192 11.776-129.536 34.816-172.544 23.04-42.496 54.272-64 93.696-64 36.864 0 66.048 20.992 88.576 62.464 22.528 41.984 33.792 96.256 33.792 163.328 0 72.704-11.264 130.048-34.304 172.544s-53.76 64-92.16 64c-37.376 0-67.584-20.992-90.112-62.464-23.04-41.984-34.304-96.256-34.304-163.328z m35.84-4.608c0 54.272 8.192 97.28 24.576 130.048 16.384 32.768 37.376 49.152 64 49.152 28.16 0 50.176-15.872 66.56-47.104 15.872-31.232 24.064-75.264 24.064-131.072 0-57.856-7.68-102.4-23.552-133.632s-37.376-47.104-64.512-47.104-48.64 16.384-65.536 49.664c-16.896 32.768-25.6 76.288-25.6 130.048z"  /><path fill="#ffffff" d="M628.224 742.912c-39.424 0-71.168-22.016-94.72-65.024-23.552-43.008-34.816-97.28-34.816-165.888 0-72.192 11.776-131.072 35.328-175.104 24.064-44.032 56.832-66.56 98.304-66.56 38.4 0 69.632 22.016 93.184 65.024 23.04 42.496 34.304 98.304 34.304 165.888 0 74.24-11.264 131.584-34.816 175.104-24.064 44.032-56.832 66.56-96.768 66.56z m4.096-462.336c-37.376 0-67.072 20.48-89.088 61.44-22.528 42.496-34.304 99.84-34.304 169.984 0 67.072 11.264 119.808 33.792 160.768 21.504 39.936 50.176 59.904 85.504 59.904 36.352 0 65.536-20.48 87.552-61.44 22.528-41.984 33.792-97.28 33.792-169.984 0-65.536-11.264-119.808-33.28-160.768-21.504-40.448-49.152-59.904-83.968-59.904z m-4.096 411.136c-28.672 0-51.2-16.896-68.608-52.224-16.896-33.792-25.088-77.312-25.088-132.096 0-54.272 8.704-98.816 26.112-132.608 17.92-35.328 40.96-52.224 70.144-52.224 29.184 0 52.224 16.896 69.12 49.664 16.384 31.744 24.064 76.288 24.064 136.192 0 56.32-8.192 101.376-24.576 133.632-17.408 32.768-41.472 49.664-71.168 49.664z m2.56-358.912c-25.088 0-45.056 15.36-60.928 47.104-16.384 32.256-25.088 75.264-25.088 127.488 0 53.76 7.68 95.232 24.064 128 15.36 31.232 34.816 46.08 59.392 46.08 26.112 0 46.592-14.336 61.952-44.544 15.36-30.72 23.552-73.728 23.552-128.512 0-57.344-7.68-101.376-23.04-131.072-15.36-30.208-34.816-44.544-59.904-44.544z"  /><path fill="#ffffff" d="M759.808 700.928c0-10.24 3.584-18.944 10.752-26.112 7.168-7.168 15.872-10.752 26.624-10.752s19.968 3.584 26.624 10.752c7.168 7.168 10.752 15.872 10.752 26.112s-3.584 18.432-10.752 25.6c-7.168 7.168-16.384 10.752-27.136 10.752s-19.456-3.584-26.624-10.752c-6.656-7.168-10.24-15.872-10.24-25.6z"  /></svg>