<?xml version="1.0" standalone="no"?><!DOCTYPE svg PUBLIC "-//W3C//DTD SVG 1.1//EN" "http://www.w3.org/Graphics/SVG/1.1/DTD/svg11.dtd"><svg class="icon" width="64px" height="64.00px" viewBox="0 0 1024 1024" version="1.1" xmlns="http://www.w3.org/2000/svg"><path fill="#c0fbfd" d="M87.04 349.184h855.04v60.928H87.04V349.184z m0 274.944h855.04v60.928H87.04v-60.928z"  /><path fill="#c0fbfd" d="M346.624 84.48h60.928v855.04H346.624v-855.04z m274.944 0h60.928v855.04h-60.928v-855.04z"  /><path fill="#c0fbfd" d="M863.744 970.24H165.376c-60.928 0-109.056-47.616-109.056-109.056V162.816c0-60.928 47.616-109.056 109.056-109.056h698.368c60.928 0 109.056 47.616 109.056 109.056v698.368c0 60.928-48.128 109.056-109.056 109.056z m47.616-855.04H117.76v794.112h793.6V115.2z"  /></svg>