<?xml version="1.0" standalone="no"?><!DOCTYPE svg PUBLIC "-//W3C//DTD SVG 1.1//EN" "http://www.w3.org/Graphics/SVG/1.1/DTD/svg11.dtd"><svg t="1646808657076" class="icon" viewBox="0 0 1024 1024" version="1.1" xmlns="http://www.w3.org/2000/svg" p-id="15008" xmlns:xlink="http://www.w3.org/1999/xlink" width="64" height="64"><defs><style type="text/css"></style></defs><path d="M942.592 572.416c-44.032-52.224-92.672-74.752-161.792-74.752-51.2 0-86.016 20.992-117.248 39.936-20.992 12.8-39.424 24.064-59.392 25.6-19.968-1.536-38.4-12.8-59.392-25.6-30.72-18.432-66.048-39.936-117.248-39.936-69.12 0-117.248 22.528-161.792 74.752-63.488 75.264-22.016 231.424 7.68 316.416 7.68 22.016 28.16 36.352 51.2 36.352H883.2c23.04 0 43.52-14.336 51.2-36.352 30.72-84.992 72.192-241.152 8.192-316.416z m-96.256 304.128H363.008c-24.064 0-45.568-15.872-52.224-39.424-26.624-90.112-39.936-190.464-5.12-231.424 34.304-40.448 68.608-56.32 122.368-56.32 36.864 0 62.976 15.872 90.624 32.256 25.088 15.36 51.2 30.72 84.48 32.768h3.072c32.768-2.048 58.88-17.408 84.48-32.768 27.648-16.896 53.76-32.256 90.624-32.256 53.76 0 88.064 15.872 122.368 56.32 34.816 40.96 22.016 141.824-5.12 231.424-7.168 23.04-28.16 39.424-52.224 39.424z" fill="#546371" p-id="15009"></path><path d="M83.456 468.992c44.032 52.224 92.672 74.752 161.792 74.752 51.2 0 86.016-20.992 117.248-39.936 20.992-12.8 39.424-24.064 59.392-25.6 19.968 1.536 38.4 12.8 59.392 25.6 30.72 18.432 66.048 39.936 117.248 39.936 69.12 0 117.248-22.528 161.792-74.752 63.488-75.264 22.016-231.424-7.68-316.416-7.68-22.016-28.16-36.352-51.2-36.352H142.848c-23.04 0-43.52 14.336-51.2 36.352-30.208 84.992-71.68 241.152-8.192 316.416z m96.768-303.616h483.328c24.064 0 45.568 15.872 52.224 39.424 26.624 90.112 39.936 190.464 5.12 231.424-34.304 40.448-68.608 56.32-122.368 56.32-36.864 0-62.976-15.872-90.624-32.256-25.088-15.36-51.2-30.72-84.48-32.768h-3.072c-32.768 2.048-58.88 17.408-84.48 32.768-27.648 16.896-53.76 32.256-90.624 32.256-53.76 0-88.064-15.872-122.368-56.32-34.816-40.96-22.016-141.824 5.12-231.424 6.656-23.552 28.16-39.424 52.224-39.424z" fill="#546371" p-id="15010"></path></svg>