<?xml version="1.0" encoding="utf-8"?>
<!-- Generator: Adobe Illustrator 22.1.0, SVG Export Plug-In . SVG Version: 6.00 Build 0)  -->
<svg version="1.1" xmlns="http://www.w3.org/2000/svg" xmlns:xlink="http://www.w3.org/1999/xlink" x="0px" y="0px"
	 viewBox="0 0 200 200" enable-background="new 0 0 200 200" xml:space="preserve">
<g id="Layer_2" display="none">
	<rect x="0" y="0" display="inline" fill="#172330" width="200" height="200"/>
</g>
<g id="Layer_1">
</g>
<g id="Layer_3">
</g>
<g id="Layer_4">
</g>
<g id="Layer_5">
</g>
<g id="Layer_6">
</g>
<g id="Layer_7">
</g>
<g id="Layer_8">
	<path fill="#37B9DA" d="M102.2,49.7v117.6c0,1.4-1,2.5-2.2,2.5h-2c-1.2,0-2.2-1.2-2.2-2.5V49.7c0-1.4,1-2.5,2.2-2.5l0,0h2
		C101.1,47.2,102.2,48.4,102.2,49.7L102.2,49.7z"/>
	<path fill="#37B9DA" d="M98.7,174.9c0.2,0.2,0.4,0.2,0.5,0l15.8-15.8c1.3-1.3,1.3-3.3,0-4.6c-1.3-1.3-3.3-1.3-4.6,0L98.8,166
		l-11.5-11.5c-1.3-1.3-3.3-1.3-4.6,0c-1.3,1.3-1.3,3.3,0,4.6L98.7,174.9z"/>
	<path fill="#37B9DA" d="M99.1,38.4c-0.2-0.2-0.4-0.2-0.5,0L82.9,54.2c-1.3,1.3-1.3,3.3,0,4.6c1.3,1.3,3.3,1.3,4.6,0l11.4-11.4
		l11.5,11.5c1.3,1.3,3.3,1.3,4.6,0c1.3-1.3,1.3-3.3,0-4.6L99.1,38.4z"/>
	<path fill="none" stroke="#37B9DA" stroke-width="10" stroke-linecap="round" stroke-miterlimit="10" d="M18.1,173
		C18.1,92.4,49,27,100,27c49,0,81.9,65.4,81.9,146"/>
</g>
<g id="Layer_9">
</g>
<g id="Layer_10">
</g>
</svg>
