<?xml version="1.0" encoding="utf-8"?>
<!-- Generator: Adobe Illustrator 22.1.0, SVG Export Plug-In . SVG Version: 6.00 Build 0)  -->
<svg version="1.1" xmlns="http://www.w3.org/2000/svg" xmlns:xlink="http://www.w3.org/1999/xlink" x="0px" y="0px"
	 viewBox="0 0 200 200" enable-background="new 0 0 200 200" xml:space="preserve">
<g id="Layer_2" display="none">
	<rect x="0" y="0" display="inline" fill="#172330" width="200" height="200"/>
</g>
<g id="Layer_1">
</g>
<g id="Layer_3">
</g>
<g id="Layer_4">
</g>
<g id="Layer_5">
</g>
<g id="Layer_6">
</g>
<g id="Layer_7">
	<path fill="#37B9DA" d="M39.7,146H162c1.4,0,2.6,1,2.6,2.3v2.1c0,1.3-1.2,2.3-2.6,2.3H39.7c-1.4,0-2.6-1-2.6-2.3l0,0v-2.1
		C37.1,147.1,38.3,146,39.7,146L39.7,146z"/>
	<path fill="#37B9DA" d="M169.8,149.6c0.2-0.2,0.2-0.4,0-0.5l-16.4-16.4c-1.4-1.4-3.4-1.4-4.7,0c-1.4,1.4-1.4,3.4,0,4.8l12,12
		l-12,12c-1.4,1.4-1.4,3.4,0,4.7c1.4,1.4,3.4,1.4,4.8,0L169.8,149.6z"/>
	<path fill="#37B9DA" d="M31.9,149.1c-0.2,0.2-0.2,0.4,0,0.5L48.4,166c1.4,1.4,3.4,1.4,4.7,0c1.4-1.4,1.4-3.4,0-4.8l-11.9-11.9
		l12-12c1.4-1.4,1.4-3.4,0-4.7c-1.4-1.4-3.4-1.4-4.8,0L31.9,149.1z"/>
	<path fill="none" stroke="#37B9DA" stroke-width="10" stroke-linecap="round" stroke-miterlimit="10" d="M20.1,173
		C20.1,92.4,51,27,102,27c49,0,81.9,65.4,81.9,146"/>
</g>
<g id="Layer_8">
</g>
<g id="Layer_9">
</g>
<g id="Layer_10">
</g>
</svg>
