<?xml version="1.0" standalone="no"?><!DOCTYPE svg PUBLIC "-//W3C//DTD SVG 1.1//EN" "http://www.w3.org/Graphics/SVG/1.1/DTD/svg11.dtd"><svg class="icon" width="128px" height="128.00px" viewBox="0 0 1024 1024" version="1.1" xmlns="http://www.w3.org/2000/svg"><path fill="#37B9DA" d="M326.4 428.8c11.2 12.8 20.8 52.8 25.6 96 1.6 25.6-4.8 44.8-19.2 57.6-12.8 12.8-32 19.2-54.4 19.2-32 0-46.4-11.2-54.4-17.6-8 8-22.4 19.2-54.4 19.2-48 0-73.6-33.6-76.8-67.2-4.8-49.6 16-99.2 16-102.4l44.8 14.4s-17.6 46.4-14.4 88c0 3.2 3.2 28.8 28.8 28.8 14.4 0 17.6-3.2 24-8s14.4-12.8 28.8-12.8c17.6-1.6 27.2 8 33.6 12.8 6.4 4.8 9.6 8 22.4 8 9.6 0 17.6-1.6 20.8-6.4 4.8-4.8 8-14.4 6.4-28.8-3.2-44.8-12.8-72-16-76.8l38.4-24z"  /><path fill="#37B9DA" d="M169.6 609.6c-48 0-76.8-35.2-80-72-4.8-51.2 16-102.4 16-104l1.6-3.2 52.8 16-1.6 1.6c0 1.6-17.6 46.4-14.4 86.4 0 3.2 3.2 25.6 25.6 25.6 12.8 0 16-3.2 20.8-8 6.4-4.8 16-12.8 32-14.4 19.2-1.6 30.4 8 36.8 12.8 4.8 4.8 8 6.4 20.8 6.4 8 0 14.4-1.6 17.6-4.8 4.8-4.8 6.4-12.8 4.8-24-3.2-43.2-12.8-70.4-16-73.6l-3.2-3.2 44.8-27.2 1.6 3.2c12.8 14.4 22.4 52.8 25.6 97.6 1.6 25.6-4.8 46.4-19.2 60.8-14.4 12.8-33.6 19.2-57.6 20.8h-1.6c-28.8 0-44.8-9.6-52.8-17.6-6.4 9.6-22.4 19.2-54.4 20.8 1.6 0 0 0 0 0zM113.6 438.4c-4.8 12.8-17.6 56-14.4 96 3.2 30.4 25.6 64 72 64h1.6c32 0 44.8-11.2 51.2-17.6l3.2-1.6 3.2 1.6c8 6.4 20.8 17.6 51.2 17.6h1.6c22.4 0 40-6.4 51.2-17.6 12.8-12.8 19.2-30.4 17.6-54.4-3.2-40-11.2-76.8-22.4-92.8l-32 19.2c4.8 9.6 11.2 35.2 14.4 75.2 1.6 14.4-1.6 25.6-8 32-4.8 4.8-12.8 6.4-24 6.4-14.4 0-19.2-3.2-25.6-8s-16-12.8-32-11.2c-12.8 0-20.8 6.4-27.2 12.8-6.4 6.4-11.2 9.6-25.6 9.6-24 0-32-20.8-33.6-33.6-1.6-38.4 9.6-75.2 14.4-88l-36.8-9.6zM700.8 428.8c-11.2 12.8-20.8 52.8-25.6 96-1.6 25.6 4.8 44.8 19.2 57.6 12.8 12.8 32 19.2 54.4 19.2 32 0 46.4-11.2 54.4-17.6 8 8 22.4 19.2 54.4 19.2 48 0 73.6-33.6 76.8-67.2 4.8-49.6-16-99.2-16-102.4l-44.8 12.8s17.6 46.4 14.4 88c0 3.2-3.2 28.8-28.8 28.8-14.4 0-17.6-3.2-24-8s-14.4-12.8-28.8-12.8c-17.6-1.6-27.2 8-33.6 12.8-6.4 4.8-9.6 8-22.4 8-9.6 0-17.6-1.6-20.8-6.4-4.8-4.8-8-14.4-6.4-28.8 3.2-44.8 12.8-72 16-76.8l-38.4-22.4z"  /><path fill="#37B9DA" d="M859.2 608s-1.6 0 0 0c-32 0-48-11.2-56-17.6-9.6 6.4-24 17.6-52.8 17.6h-1.6c-24 0-43.2-6.4-57.6-20.8-16-14.4-22.4-35.2-19.2-60.8 3.2-46.4 14.4-86.4 25.6-97.6l1.6-3.2 44.8 27.2-1.6 3.2c-3.2 4.8-11.2 30.4-16 73.6-1.6 11.2 1.6 20.8 4.8 24s9.6 4.8 17.6 4.8c11.2 0 14.4-1.6 19.2-6.4 6.4-6.4 17.6-14.4 36.8-14.4 16 0 25.6 9.6 32 14.4 4.8 4.8 8 6.4 20.8 8 20.8 0 24-20.8 25.6-25.6 3.2-40-14.4-84.8-14.4-84.8l-1.6-4.8 52.8-16 1.6 3.2c1.6 6.4 20.8 56 16 104-3.2 36.8-32 72-78.4 72z m-56-28.8l3.2 1.6c6.4 6.4 20.8 17.6 51.2 17.6h1.6c44.8 0 68.8-33.6 72-64 3.2-41.6-9.6-84.8-14.4-96l-36.8 11.2c4.8 12.8 16 49.6 12.8 84.8 0 3.2-4.8 33.6-33.6 33.6-14.4 0-19.2-3.2-25.6-9.6-4.8-4.8-12.8-11.2-27.2-12.8h-3.2c-14.4 0-22.4 6.4-28.8 11.2-6.4 4.8-11.2 8-25.6 8-11.2 0-19.2-3.2-24-6.4-6.4-6.4-9.6-17.6-8-32 3.2-38.4 11.2-64 14.4-73.6l-32-19.2c-9.6 14.4-19.2 51.2-22.4 92.8-1.6 24 3.2 41.6 17.6 54.4 12.8 11.2 30.4 17.6 51.2 17.6 30.4 0 43.2-11.2 51.2-17.6l6.4-1.6z"  /><path fill="#37B9DA" d="M324.8 457.6H120c-28.8 0-62.4-12.8-62.4-78.4 0-24 6.4-41.6 14.4-60.8 6.4-16 11.2-32 14.4-52.8 6.4-54.4-62.4-99.2-64-99.2C9.6 160 6.4 144 14.4 132.8s22.4-14.4 35.2-8c4.8 3.2 96 64 86.4 148.8-3.2 25.6-11.2 46.4-17.6 62.4s-11.2 27.2-11.2 41.6c0 28.8 4.8 28.8 12.8 28.8h204.8c8 0 9.6-1.6 11.2-1.6 0 0 1.6-4.8 1.6-19.2 0-43.2 8-86.4 60.8-112 41.6-19.2 105.6-20.8 112-20.8h4.8c8 0 73.6 0 113.6 20.8 54.4 25.6 60.8 68.8 60.8 112 0 12.8 1.6 17.6 1.6 19.2h214.4c6.4 0 12.8 0 12.8-28.8 0-14.4-4.8-25.6-11.2-41.6s-14.4-36.8-17.6-64c-11.2-86.4 83.2-147.2 86.4-148.8 11.2-8 27.2-4.8 35.2 8 8 11.2 4.8 27.2-8 35.2 0 0-70.4 46.4-64 99.2 3.2 20.8 8 36.8 14.4 51.2 6.4 17.6 14.4 36.8 14.4 59.2 0 65.6-35.2 78.4-62.4 78.4H704c-56 0-62.4-36.8-62.4-70.4 0-40-8-54.4-32-67.2-27.2-12.8-75.2-16-92.8-16H512c-17.6 0-67.2 3.2-92.8 16-25.6 11.2-32 27.2-32 67.2 0 38.4-8 75.2-62.4 75.2zM110.4 912c-14.4 0-25.6-11.2-25.6-25.6V707.2c0-14.4 11.2-25.6 25.6-25.6s25.6 11.2 25.6 25.6v179.2c0 14.4-11.2 25.6-25.6 25.6zM934.4 912c-14.4 0-25.6-11.2-25.6-25.6V707.2c0-14.4 11.2-25.6 25.6-25.6s25.6 11.2 25.6 25.6v179.2c-1.6 14.4-12.8 25.6-25.6 25.6z"  /><path fill="#37B9DA" d="M860.8 804.8H184c-8 0-14.4-3.2-14.4-4.8v-4.8c0-3.2 6.4-4.8 14.4-4.8h675.2c8 0 14.4 3.2 14.4 4.8v4.8c1.6 1.6-4.8 4.8-12.8 4.8z"  /><path fill="#37B9DA" d="M860.8 812.8H184c-14.4 0-22.4-4.8-22.4-14.4v-4.8c0-8 9.6-14.4 22.4-14.4h675.2c14.4 0 22.4 4.8 22.4 14.4v8l-1.6 3.2c-3.2 8-16 8-19.2 8z m6.4-14.4z m0-3.2z"  /><path fill="#37B9DA" d="M155.2 796.8c-1.6 0-1.6 0 0 0l40 40c3.2 3.2 8 3.2 11.2 0s3.2-8 0-11.2l-28.8-28.8 28.8-27.2c3.2-3.2 3.2-8 0-11.2s-8-3.2-11.2 0l-40 38.4z"  /><path fill="#37B9DA" d="M201.6 846.4c-4.8 0-8-1.6-11.2-4.8l-41.6-38.4-1.6-9.6 1.6-3.2 40-38.4c6.4-6.4 16-6.4 24 0 3.2 3.2 4.8 6.4 4.8 11.2s-1.6 8-4.8 11.2l-24 22.4 22.4 20.8c3.2 3.2 4.8 8 4.8 11.2 0 4.8-1.6 8-4.8 11.2-1.6 4.8-6.4 6.4-9.6 6.4z"  /><path fill="#37B9DA" d="M889.6 798.4s0-1.6 0 0l-40-40c-3.2-3.2-8-3.2-11.2 0s-3.2 8 0 11.2l28.8 27.2-30.4 27.2c-3.2 3.2-3.2 8 0 11.2s8 3.2 11.2 0l41.6-36.8z"  /><path fill="#37B9DA" d="M844.8 846.4c-4.8 0-8-1.6-11.2-4.8s-4.8-6.4-4.8-11.2 1.6-8 4.8-11.2l24-20.8-22.4-22.4c-3.2-3.2-4.8-8-4.8-11.2s1.6-8 4.8-11.2c6.4-6.4 16-6.4 22.4 0l41.6 38.4 1.6 9.6-4.8 3.2-41.6 36.8c-1.6 3.2-6.4 4.8-9.6 4.8z m38.4-52.8z"  /></svg>