<?xml version="1.0" encoding="utf-8"?>
<!-- Generator: Adobe Illustrator 22.1.0, SVG Export Plug-In . SVG Version: 6.00 Build 0)  -->
<svg version="1.1" xmlns="http://www.w3.org/2000/svg" xmlns:xlink="http://www.w3.org/1999/xlink" x="0px" y="0px"
	 viewBox="0 0 200 200" enable-background="new 0 0 200 200" xml:space="preserve">
<g id="Layer_2" display="none">
	<rect x="0" display="inline" fill="#172330" width="200" height="200"/>
</g>
<g id="Layer_1">
</g>
<g id="Layer_3">
</g>
<g id="Layer_4">
</g>
<g id="Layer_5">
</g>
<g id="Layer_6">
	<path fill="none" stroke="#37B9DA" stroke-width="8" stroke-miterlimit="10" d="M30.5,115c-3.3,1.7-11.4,3.5-14.7,12.2
		c-1.9,5.1-0.8,35.7-0.8,39.2c0,3.5,3.3,7.7,8.2,7c5.7-0.9,41.4-9.6,79.2-9.6c32.7,0,63,6.7,73.5,10.5c4.9,1.7,9.8-1.7,9.8-7
		c0-5.2,0-31.4,0-38.3s-8.2-13.9-13.1-13.9"/>
	<path fill="none" stroke="#37B9DA" stroke-width="8" stroke-miterlimit="10" d="M87.5,102c0-4.3,1-5.4,2.9-6.4
		c1.9-1.1,20-0.5,21.3,0c1.5,0.5,2.6,2.2,2.9,5.4c0.2,2.1-0.3,19.3-0.3,21.4c0,2.7-1.6,21.9-13.2,21.4
		c-10.6-0.4-13.5-16.1-13.5-22.5C87.5,114.9,87.5,104.2,87.5,102z"/>
	<path fill="none" stroke="#37B9DA" stroke-width="8" stroke-miterlimit="10" d="M87.6,121.7c-1.7,3.9-3.5,7.9-3.9,8.7
		c-0.9,2.3-8.9,17.3-19.3,12c-9.6-4.9-7-19-4.8-24.3s5.8-14.1,6.5-15.9c1.4-3.5,2.7-4,4.8-4.1c1.6,0,11.2,4.5,16.3,7.2"/>
	<path fill="none" stroke="#37B9DA" stroke-width="8" stroke-miterlimit="10" d="M57.8,132.2c-0.9,5.6-3.6,12.7-11.1,13.2
		c-10.6,0.8-14.7-12.2-15.3-17.7c-0.5-5.5-1.4-14.5-1.5-16.4c-0.3-3.6,0.5-4.6,2.4-5.8c1.8-1.1,19.8-2.5,21.2-2.3
		c1.5,0.3,2.7,1.6,3.3,4.2c0.3,1.5,0.9,11.9,1.2,16.4"/>
	<path fill="none" stroke="#37B9DA" stroke-width="8" stroke-miterlimit="10" d="M114.3,118.7c2,4.7,4.7,10.7,5.2,11.8
		c0.9,2.3,8.9,17.3,19.3,12c4.2-2.1,6.1-6.1,6.7-10.3"/>
	<path fill="none" stroke="#37B9DA" stroke-width="8" stroke-miterlimit="10" d="M145.2,124c-0.4-2.3-1-4.4-1.6-5.8
		c-2.2-5.3-5.8-14.1-6.5-15.9c-1.4-3.5-2.7-4-4.8-4.1c-1.8,0-13.2,5.5-17.7,8"/>
	<path fill="none" stroke="#37B9DA" stroke-width="8" stroke-miterlimit="10" d="M173.3,111.4c0.3-3.6-0.5-4.6-2.4-5.8
		c-1.8-1.1-19.8-2.5-21.2-2.3c-1.5,0.3-2.7,1.6-3.3,4.2c-0.4,1.8-1.2,16.4-1.4,18.2c-0.2,2.3-0.1,18.7,11.4,19.6
		c10.6,0.8,14.8-12.2,15.3-17.7S173.1,113.3,173.3,111.4z"/>
	<path fill="none" stroke="#37B9DA" stroke-width="6" stroke-linecap="round" stroke-miterlimit="10" d="M14.4,64
		c9.7-20.3,39.3-40,87.8-40s79.9,22.9,87.8,40"/>
</g>
<g id="Layer_7">
</g>
<g id="Layer_8">
</g>
<g id="Layer_9">
</g>
<g id="Layer_10">
</g>
</svg>
