<?xml version="1.0" encoding="utf-8"?>
<!-- Generator: Adobe Illustrator 22.1.0, SVG Export Plug-In . SVG Version: 6.00 Build 0)  -->
<svg version="1.1" xmlns="http://www.w3.org/2000/svg" xmlns:xlink="http://www.w3.org/1999/xlink" x="0px" y="0px"
	 viewBox="0 0 200 200" enable-background="new 0 0 200 200" xml:space="preserve">
<g id="Layer_2" display="none">
	<rect x="0" display="inline" fill="#172330" width="200" height="200"/>
</g>
<g id="Layer_1">
</g>
<g id="Layer_3">
</g>
<g id="Layer_4">
</g>
<g id="Layer_5">
	<path fill="none" stroke="#37B9DA" stroke-width="8" stroke-miterlimit="10" d="M110.9,57.8c0.4-7.6,8.5-16.5,19.2-16.5
		c11.6,0,17.4,10.3,18.3,16.5c0.9,6.2,0.4,18.3,0.4,22.8c0,4.6-3.1,5.8-4.9,5.8c-4.5,0-25.7,0-27.7,0c-1.8,0-4.9-2.2-4.9-4.9
		C111.3,77,110.9,57.8,110.9,57.8z"/>
	<path fill="none" stroke="#37B9DA" stroke-width="8" stroke-miterlimit="10" d="M88.2,57.8c-0.4-7.6-8.5-16.5-19.2-16.5
		c-11.6,0-17.4,10.3-18.3,16.5s-0.4,18.3-0.4,22.8c0,4.6,3.1,5.8,4.9,5.8c4.5,0,25.7,0,27.7,0c1.8,0,4.9-2.2,4.9-4.9
		C87.8,77,88.2,57.8,88.2,57.8z"/>
	<path fill="none" stroke="#37B9DA" stroke-width="8" stroke-miterlimit="10" d="M39.1,64.6C38.7,58.8,32.6,52,24.4,52
		c-8.8,0-13.3,7.8-13.9,12.6c-0.7,4.8-0.3,13.9-0.3,17.4c0,3.5,2.4,4.4,3.7,4.4c3.4,0,19.6,0,21.1,0c1.4,0,3.7-1.7,3.7-3.7
		C38.7,79.3,39.1,64.6,39.1,64.6z"/>
	<path fill="none" stroke="#37B9DA" stroke-width="8" stroke-miterlimit="10" d="M189,64.6c-0.3-5.8-6.5-12.6-14.6-12.6
		c-8.8,0-13.3,7.8-13.9,12.6c-0.7,4.8-0.3,13.9-0.3,17.4c0,3.5,2.4,4.4,3.7,4.4c3.4,0,19.6,0,21.1,0c1.4,0,3.6-1.7,3.7-3.7
		C189,79,189,64.6,189,64.6z"/>
	<path fill="none" stroke="#37B9DA" stroke-width="8" stroke-miterlimit="10" d="M59.9,120.7c0-4.1,1-5.1,3.1-6.2
		c2.1-1,21.3-0.5,22.6,0c1.5,0.5,2.7,2.1,3.1,5.1c0.2,2-0.4,18.5-0.4,20.6c0,2.6-1.8,21-14,20.6c-11.3-0.4-14.4-15.4-14.4-21.6
		C59.9,133.1,59.9,122.8,59.9,120.7z"/>
	<path fill="none" stroke="#37B9DA" stroke-width="8" stroke-miterlimit="10" d="M24.3,119.9c0-3.3,0.8-4.1,2.5-4.9
		c1.6-0.8,17-0.4,18.1,0c1.2,0.4,2.2,1.7,2.5,4.1c0.2,1.6-0.3,14.8-0.3,16.5c0,2.1-1.4,16.8-11.2,16.4c-9-0.3-11.5-12.3-11.5-17.3
		C24.3,129.8,24.3,121.5,24.3,119.9z"/>
	<path fill="none" stroke="#37B9DA" stroke-width="8" stroke-miterlimit="10" d="M151.9,119.9c0-3.3,0.8-4.1,2.5-4.9
		c1.6-0.8,17-0.4,18.1,0c1.2,0.4,2.2,1.7,2.5,4.1c0.2,1.6-0.3,14.8-0.3,16.5c0,2.1-1.4,16.8-11.2,16.4c-9-0.3-11.5-12.3-11.5-17.3
		C151.9,129.8,151.9,121.5,151.9,119.9z"/>
	<path fill="none" stroke="#37B9DA" stroke-width="8" stroke-miterlimit="10" d="M110.6,120.7c0-4.1,1-5.1,3.1-6.2
		c2.1-1,21.3-0.5,22.6,0c1.5,0.5,2.7,2.1,3.1,5.1c0.2,2-0.4,18.5-0.4,20.6c0,2.6-1.8,21-14,20.6c-11.3-0.4-14.4-15.4-14.4-21.6
		C110.6,133.1,110.6,122.8,110.6,120.7z"/>
	
		<line fill="none" stroke="#37B9DA" stroke-width="6" stroke-linecap="round" stroke-miterlimit="10" x1="99.3" y1="23" x2="99.3" y2="176"/>
</g>
<g id="Layer_6">
</g>
<g id="Layer_7">
</g>
<g id="Layer_8">
</g>
<g id="Layer_9">
</g>
<g id="Layer_10">
</g>
</svg>
