<?xml version="1.0" encoding="utf-8"?>
<!-- Generator: Adobe Illustrator 22.1.0, SVG Export Plug-In . SVG Version: 6.00 Build 0)  -->
<svg version="1.1" xmlns="http://www.w3.org/2000/svg" xmlns:xlink="http://www.w3.org/1999/xlink" x="0px" y="0px"
	 viewBox="0 0 200 200" enable-background="new 0 0 200 200" xml:space="preserve">
<g id="Layer_2" display="none">
	<rect x="0" y="0" display="inline" fill="#172330" width="200" height="200"/>
</g>
<g id="Layer_1">
</g>
<g id="Layer_3">
	<path fill="#FFFFFF" d="M170.1,108.2c-7.2-8.5-15.1-12.2-26.3-12.2c-8.3,0-14,3.4-19.1,6.5c-3.4,2.1-6.4,3.9-9.7,4.2l0,0
		c-3.2-0.2-6.2-2.1-9.7-4.2c-5-3-10.7-6.5-19.1-6.5c-11.2,0-19.1,3.7-26.3,12.2c-10.3,12.2-3.6,37.7,1.2,51.5
		c1.2,3.6,4.6,5.9,8.3,5.9h88h2.8c3.7,0,7.1-2.3,8.3-5.9C173.8,145.9,180.5,120.5,170.1,108.2z M154.4,157.7H75.8
		c-3.9,0-7.4-2.6-8.5-6.4c-4.3-14.7-6.5-31-0.8-37.7c5.6-6.6,11.2-9.2,19.9-9.2c6,0,10.2,2.6,14.7,5.2c4.1,2.5,8.3,5,13.7,5.3
		c0.2,0,0.3,0,0.5,0c5.3-0.3,9.6-2.8,13.7-5.3c4.5-2.7,8.7-5.2,14.7-5.2c8.7,0,14.3,2.6,19.9,9.2c5.7,6.7,3.6,23.1-0.8,37.7
		C161.8,155,158.3,157.7,154.4,157.7z"/>
	<path fill="#FFFFFF" d="M30.3,91.4c7.2,8.5,15.1,12.2,26.3,12.2c8.3,0,14-3.4,19.1-6.5c3.4-2.1,6.4-3.9,9.7-4.2l0,0
		c3.2,0.2,6.2,2.1,9.7,4.2c5,3,10.7,6.5,19.1,6.5c11.2,0,19.1-3.7,26.3-12.2c10.3-12.2,3.6-37.7-1.2-51.5c-1.2-3.6-4.6-5.9-8.3-5.9
		h-88H40c-3.7,0-7.1,2.3-8.3,5.9C26.7,53.8,20,79.2,30.3,91.4z M46.1,42h78.6c3.9,0,7.4,2.6,8.5,6.4c4.3,14.7,6.5,31,0.8,37.7
		c-5.6,6.6-11.2,9.2-19.9,9.2c-6,0-10.2-2.6-14.7-5.2c-4.1-2.5-8.3-5-13.7-5.3c-0.2,0-0.3,0-0.5,0c-5.3,0.3-9.6,2.8-13.7,5.3
		c-4.5,2.7-8.7,5.2-14.7,5.2c-8.7,0-14.3-2.6-19.9-9.2c-5.7-6.7-3.6-23.1,0.8-37.7C38.6,44.6,42.1,42,46.1,42z"/>
</g>
<g id="Layer_4">
	
		<line fill="none" stroke="#FFFFFF" stroke-width="6" stroke-linecap="round" stroke-miterlimit="10" x1="85" y1="25" x2="85" y2="88.5"/>
	
		<line fill="none" stroke="#FFFFFF" stroke-width="6" stroke-linecap="round" stroke-miterlimit="10" x1="115.9" y1="112.5" x2="115.9" y2="176"/>
</g>
<g id="Layer_5">
</g>
<g id="Layer_6">
</g>
<g id="Layer_7">
</g>
<g id="Layer_8">
</g>
<g id="Layer_9">
</g>
<g id="Layer_10">
</g>
</svg>
