<?xml version="1.0" encoding="utf-8"?>
<!-- Generator: Adobe Illustrator 22.1.0, SVG Export Plug-In . SVG Version: 6.00 Build 0)  -->
<svg version="1.1" xmlns="http://www.w3.org/2000/svg" xmlns:xlink="http://www.w3.org/1999/xlink" x="0px" y="0px"
	 viewBox="0 0 200 200" enable-background="new 0 0 200 200" xml:space="preserve">
<g id="Layer_2" display="none">
	<rect x="0" y="0" display="inline" fill="#172330" width="200" height="200"/>
</g>
<g id="Layer_1">
</g>
<g id="Layer_3">
</g>
<g id="Layer_4">
</g>
<g id="Layer_5">
</g>
<g id="Layer_6">
</g>
<g id="Layer_7">
</g>
<g id="Layer_8">
</g>
<g id="Layer_9">
	<path fill="none" stroke="#FFFFFF" stroke-width="7.2791" stroke-linecap="round" stroke-miterlimit="10" d="M167.1,175h-16.9
		c-2.5,0-4.6-2.1-4.6-4.6V154c0-7.2,5.9-13,13-13h0c7.2,0,13,5.9,13,13v16.4C171.7,172.9,169.6,175,167.1,175z"/>
	<path fill="none" stroke="#FFFFFF" stroke-width="7.2791" stroke-linecap="round" stroke-miterlimit="10" d="M132.1,175h-16.9
		c-2.5,0-4.6-2.1-4.6-4.6V154c0-7.2,5.9-13,13-13h0c7.2,0,13,5.9,13,13v16.4C136.6,172.9,134.6,175,132.1,175z"/>
	<path fill="none" stroke="#FFFFFF" stroke-width="7.2791" stroke-linecap="round" stroke-miterlimit="10" d="M97,175H80.1
		c-2.5,0-4.6-2.1-4.6-4.6V154c0-7.2,5.9-13,13-13h0c7.2,0,13,5.9,13,13v16.4C101.6,172.9,99.5,175,97,175z"/>
	<path fill="none" stroke="#FFFFFF" stroke-width="10" stroke-linecap="round" stroke-miterlimit="10" d="M187.6,94.5
		c-2.9-16-11.4-37.9-32-50c-34-20-143.6-16-143.6-16"/>
	<g>
		<path fill="#FFFFFF" d="M21.6,47.5v124.9c0,1.5-0.5,2.6-1,2.6h-0.9c-0.6,0-1-1.2-1-2.6V47.5c0-1.5,0.5-2.6,1-2.6l0,0h0.9
			C21.2,44.8,21.6,46.1,21.6,47.5L21.6,47.5z"/>
		<path fill="#FFFFFF" d="M20,177.9c0.1,0.1,0.2,0.1,0.2,0l7.3-7.4c0.6-0.6,0.6-1.6,0-2.1c-0.6-0.6-1.5-0.6-2.1,0l-5.3,5.4l-5.3-5.4
			c-0.6-0.6-1.5-0.6-2.1,0c-0.6,0.6-0.6,1.6,0,2.2L20,177.9z"/>
		<path fill="#FFFFFF" d="M20.3,42.1c-0.1-0.1-0.2-0.1-0.2,0l-7.4,7.3c-0.6,0.6-0.6,1.5,0,2.1c0.6,0.6,1.5,0.6,2.1,0l5.4-5.3
			l5.2,5.5c0.6,0.6,1.5,0.6,2.1,0c0.6-0.6,0.6-1.5,0-2.2L20.3,42.1z"/>
	</g>
	<path fill="none" stroke="#FFFFFF" stroke-width="10" stroke-miterlimit="10" d="M75.5,156H52.1c-7.2,0-13.1-5.9-13.1-13.1v-15.8
		c0-7.2,5.9-13.1,13.1-13.1h122.8c7.2,0,13.1,5.9,13.1,13.1v15.8c0,7.2-5.9,13.1-13.1,13.1h-3.3"/>
	<line fill="none" stroke="#FFFFFF" stroke-width="10" stroke-miterlimit="10" x1="110.6" y1="156" x2="101.6" y2="156"/>
	<line fill="none" stroke="#FFFFFF" stroke-width="10" stroke-miterlimit="10" x1="145.6" y1="156" x2="136.6" y2="156"/>
</g>
<g id="Layer_10">
</g>
</svg>
