<?xml version="1.0" encoding="utf-8"?>
<!-- Generator: Adobe Illustrator 22.1.0, SVG Export Plug-In . SVG Version: 6.00 Build 0)  -->
<svg version="1.1" xmlns="http://www.w3.org/2000/svg" xmlns:xlink="http://www.w3.org/1999/xlink" x="0px" y="0px"
	 viewBox="0 0 200 200" enable-background="new 0 0 200 200" xml:space="preserve">
<g id="Layer_2" display="none">
	<rect x="0" y="0" display="inline" fill="#172330" width="200" height="200"/>
</g>
<g id="Layer_1">
</g>
<g id="Layer_3">
	<path fill="none" stroke="#FFFFFF" stroke-width="10" stroke-miterlimit="10" d="M140.8,128.1c-1.3-1.7-4.5-13.9-5.2-25.4
		c0.3-8.4,4.2-13.2,11-13.2c8.3,0.1,8,5.3,11.9,5.1c3.3-0.1,3.3-6.6,11.5-6.6c8.1,0,11,9,11.3,13.5c0.8,11.2-1.5,22.3-1.5,22.3"/>
	<path fill="none" stroke="#FFFFFF" stroke-width="10" stroke-miterlimit="10" d="M82.5,129.2c-1.4-1.6-4-9.3-5.4-21
		c-1.2-9.9,3.3-13.8,10.1-14.4c8.2-0.5,8.3,4.8,12.2,4.3c3.3-0.4,3-5.3,11.1-6c8-0.6,11.4,6.6,12,11.2c1.4,11.4-2.1,23.7-2.1,23.7"
		/>
	<path fill="none" stroke="#FFFFFF" stroke-width="10" stroke-miterlimit="10" d="M23.7,131.6c-1.3-1.7-3.6-10.7-4.7-22.4
		c-1-9.9,3.6-13.8,10.4-14.1c8.3-0.3,8.2,5,12.1,4.6c3.3-0.3,3.1-5.3,11.2-5.7c8.1-0.4,11.3,6.9,11.8,11.5
		c1.3,11.3-2.8,24.7-2.8,24.7"/>
	<path fill="none" stroke="#FFFFFF" stroke-width="10" stroke-miterlimit="10" d="M170,125.2c27.2-3.6,19.6,47.8,19.6,47.8H12.3
		c-7.7-18.2,0.2-38,10.9-38.8C50.4,134.5,139.8,129.2,170,125.2z"/>
</g>
<g id="Layer_4">
	<path fill="none" stroke="#FFFFFF" stroke-width="5.8938" stroke-linecap="round" stroke-miterlimit="10" d="M14,51.1
		C70,62.3,154.1,53.6,179,25"/>
</g>
<g id="Layer_5">
</g>
<g id="Layer_6">
</g>
<g id="Layer_7">
</g>
<g id="Layer_8">
</g>
<g id="Layer_9">
</g>
<g id="Layer_10">
</g>
</svg>
