<?xml version="1.0" encoding="utf-8"?>
<!-- Generator: Adobe Illustrator 22.1.0, SVG Export Plug-In . SVG Version: 6.00 Build 0)  -->
<svg version="1.1" xmlns="http://www.w3.org/2000/svg" xmlns:xlink="http://www.w3.org/1999/xlink" x="0px" y="0px"
	 viewBox="0 0 200 200" enable-background="new 0 0 200 200" xml:space="preserve">
<g id="Layer_2" display="none">
	<rect x="0" y="0" display="inline" fill="#172330" width="200" height="200"/>
</g>
<g id="Layer_1">
	<path fill="#FFFFFF" d="M185.1,109.8c-8.6-10.2-18.1-14.6-31.6-14.6c-10,0-16.8,4.1-22.9,7.8c-4.1,2.5-7.7,4.7-11.6,5l0,0
		c-3.9-0.3-7.5-2.5-11.6-5c-6-3.6-12.9-7.8-22.9-7.8c-13.5,0-22.9,4.4-31.6,14.6c-12.4,14.7-4.3,45.2,1.5,61.8
		c1.5,4.3,5.5,7.1,10,7.1h105.7h3.4c4.5,0,8.5-2.8,10-7.1C189.5,155,197.6,124.5,185.1,109.8z M166.3,169.2H71.9
		c-4.7,0-8.9-3.1-10.2-7.7c-5.2-17.6-7.8-37.2-1-45.2c6.7-7.9,13.4-11,23.9-11c7.2,0,12.3,3.1,17.7,6.3c4.9,3,10,6,16.5,6.4
		c0.2,0,0.4,0,0.6,0c6.4-0.4,11.5-3.4,16.5-6.4c5.4-3.3,10.5-6.3,17.7-6.3c10.5,0,17.2,3.1,23.9,11c6.8,8,4.3,27.7-1,45.2
		C175.1,166,171,169.2,166.3,169.2z"/>
	<path fill="#FFFFFF" d="M17.3,89.6c8.6,10.2,18.1,14.6,31.6,14.6c10,0,16.8-4.1,22.9-7.8c4.1-2.5,7.7-4.7,11.6-5l0,0
		c3.9,0.3,7.5,2.5,11.6,5c6,3.6,12.9,7.8,22.9,7.8c13.5,0,22.9-4.4,31.6-14.6c12.4-14.7,4.3-45.2-1.5-61.8c-1.5-4.3-5.5-7.1-10-7.1
		H32.3h-3.4c-4.5,0-8.5,2.8-10,7.1C13,44.4,4.9,74.9,17.3,89.6z M36.2,30.3h94.4c4.7,0,8.9,3.1,10.2,7.7c5.2,17.6,7.8,37.2,1,45.2
		c-6.7,7.9-13.4,11-23.9,11c-7.2,0-12.3-3.1-17.7-6.3c-4.9-3-10-6-16.5-6.4c-0.2,0-0.4,0-0.6,0c-6.4,0.4-11.5,3.4-16.5,6.4
		c-5.4,3.3-10.5,6.3-17.7,6.3c-10.5,0-17.2-3.1-23.9-11c-6.8-8-4.3-27.7,1-45.2C27.3,33.4,31.5,30.3,36.2,30.3z"/>
	
		<line fill="none" stroke="#FFFFFF" stroke-width="6" stroke-linecap="round" stroke-miterlimit="10" x1="9" y1="100.5" x2="190" y2="100.5"/>
</g>
<g id="Layer_3">
</g>
<g id="Layer_4">
</g>
<g id="Layer_5">
</g>
<g id="Layer_6">
</g>
<g id="Layer_7">
</g>
<g id="Layer_8">
</g>
<g id="Layer_9">
</g>
<g id="Layer_10">
</g>
</svg>
