<?xml version="1.0" encoding="utf-8"?>
<!-- Generator: Adobe Illustrator 22.1.0, SVG Export Plug-In . SVG Version: 6.00 Build 0)  -->
<svg version="1.1" id="Layer_1" xmlns="http://www.w3.org/2000/svg" xmlns:xlink="http://www.w3.org/1999/xlink" x="0px" y="0px"
	 viewBox="0 0 30 30" enable-background="new 0 0 30 30" xml:space="preserve">
<g>
	<path fill="#B2C3D1" d="M28.8,9.2c-0.8-1.8-1.8-3.4-3.2-4.8c-1.4-1.4-3-2.5-4.8-3.2C19,0.4,17,0,15,0c-2,0-4,0.4-5.8,1.2
		C7.4,1.9,5.8,3,4.4,4.4C3,5.8,1.9,7.4,1.2,9.2C0.4,11,0,13,0,15c0,2,0.4,4,1.2,5.8c0.8,1.8,1.8,3.4,3.2,4.8c1.4,1.4,3,2.5,4.8,3.2
		C11,29.6,13,30,15,30c2,0,4-0.4,5.8-1.2c1.8-0.8,3.4-1.8,4.8-3.2c1.4-1.4,2.5-3,3.2-4.8C29.6,19,30,17,30,15
		C30,13,29.6,11,28.8,9.2L28.8,9.2z M24.1,24.1c-2.4,2.4-5.6,3.8-9.1,3.8c-3.4,0-6.6-1.3-9.1-3.8c-2.4-2.4-3.8-5.6-3.8-9.1
		c0-3.4,1.3-6.6,3.8-9.1c2.4-2.4,5.6-3.8,9.1-3.8c3.4,0,6.6,1.3,9.1,3.8c2.4,2.4,3.8,5.6,3.8,9.1C27.8,18.4,26.5,21.6,24.1,24.1
		L24.1,24.1z M24.1,24.1"/>
	<path fill="#B2C3D1" d="M15,5.2c-3,0-5.5,2.5-5.5,5.5c0,0.6,0.5,1.1,1.1,1.1c0.6,0,1.1-0.5,1.1-1.1c0-1.8,1.5-3.3,3.3-3.3
		c1.8,0,3.3,1.5,3.3,3.3c0,0.3,0,0.5-0.1,0.6c0,0.1,0,0.1-0.1,0.2c-0.2,0.7-0.6,1.2-1.2,1.6c-2.9,2-3.1,5-3.1,5.1
		c0,0.6,0.4,1.1,1,1.1h0c0.6,0,1.1-0.5,1.1-1c0,0,0-0.5,0.3-1.1c0.4-0.9,1-1.7,1.9-2.3c1-0.7,1.8-1.7,2.1-2.9c0-0.1,0.1-0.2,0.1-0.3
		c0.1-0.3,0.1-0.7,0.1-1.1C20.5,7.6,18,5.2,15,5.2L15,5.2z M15,5.2"/>
	<path fill="#B2C3D1" d="M13.5,22.5c0,0.5,0.3,1.1,0.8,1.3c0.5,0.3,1.1,0.3,1.5,0c0.5-0.3,0.8-0.8,0.8-1.3c0-0.8-0.7-1.5-1.5-1.5
		C14.2,21,13.5,21.6,13.5,22.5L13.5,22.5z M13.5,22.5"/>
</g>
</svg>
