<?xml version="1.0" standalone="no"?><!DOCTYPE svg PUBLIC "-//W3C//DTD SVG 1.1//EN" "http://www.w3.org/Graphics/SVG/1.1/DTD/svg11.dtd"><svg class="icon" width="64px" height="64.00px" viewBox="0 0 1024 1024" version="1.1" xmlns="http://www.w3.org/2000/svg"><path fill="#546371" d="M203.264 747.52H829.44c7.168 0 13.312 5.12 13.312 11.776v10.752c0 6.656-6.144 11.776-13.312 11.776H203.264c-7.168 0-13.312-5.12-13.312-11.776v-10.752c0-6.144 6.144-11.776 13.312-11.776z"  /><path fill="#546371" d="M829.44 782.848H203.264c-8.192 0-14.336-5.632-14.336-13.312v-10.752c0-3.072 1.024-6.144 3.072-8.192 3.072-3.072 6.656-4.608 11.264-4.608H829.44c8.192 0 14.336 5.632 14.336 13.312v10.752c0 7.168-6.656 12.8-14.336 12.8z m-626.176-34.304c-3.584 0-7.168 1.536-9.216 4.096-2.048 2.048-2.56 4.096-2.56 6.656v10.752c0 6.144 5.12 10.752 11.776 10.752H829.44c6.656 0 11.776-5.12 11.776-10.752v-10.752c0-6.144-5.12-10.752-11.776-10.752H203.264z"  /><path fill="#546371" d="M869.376 765.952c1.024-1.024 1.024-2.048 0-2.56l-83.968-83.968c-7.168-7.168-17.408-7.168-24.064 0-7.168 7.168-7.168 17.408 0 24.576l61.44 61.44-61.44 61.44c-7.168 7.168-7.168 17.408 0 24.064 7.168 7.168 17.408 7.168 24.576 0l83.456-84.992z"  /><path fill="#546371" d="M773.632 857.088c-4.608 0-9.216-2.048-13.312-5.632-3.584-3.584-5.632-7.68-5.632-12.8s2.048-9.728 5.632-13.312l60.416-60.416-60.416-60.416c-7.68-7.68-7.68-18.944 0-26.624 3.072-3.584 7.68-5.632 12.8-5.632h0.512c5.12 0 9.728 2.048 13.312 5.632l83.968 83.968c0.512 0.512 1.024 1.024 1.024 1.536 0 1.024 0 2.048-1.024 2.56l-83.968 84.48c-4.096 4.608-8.704 6.656-13.312 6.656z m-0.512-181.76c-4.096 0-8.192 1.536-11.264 4.608-6.656 6.656-6.656 16.384 0 23.04l61.952 61.952-61.952 61.952c-3.072 3.072-5.12 7.168-4.608 11.776 0 4.096 1.536 7.68 4.608 10.752 6.656 6.656 16.384 6.656 23.04 0l83.968-84.48v-0.512l-84.48-84.48c-3.072-3.072-7.168-4.608-11.264-4.608z"  /><path fill="#546371" d="M163.328 763.392c-1.024 1.024-1.024 2.048 0 2.56L247.808 849.92c7.168 7.168 17.408 7.168 24.064 0 7.168-7.168 7.168-17.408 0-24.576l-60.928-60.928 61.44-61.44c7.168-7.168 7.168-17.408 0-24.064-7.168-7.168-17.408-7.168-24.576 0l-84.48 84.48z"  /><path fill="#546371" d="M260.096 856.576c-5.12 0-9.728-2.048-13.312-5.632l-83.968-83.968c-0.512-0.512-1.024-1.024-1.024-1.536 0-1.024 0-2.048 1.024-2.56l83.968-83.968c7.68-7.68 18.944-7.68 26.624 0 3.584 3.072 5.632 7.68 5.632 12.8s-2.048 9.728-5.632 13.312l-60.416 60.416L272.896 824.32c7.68 7.68 7.68 18.944 0 26.624-3.584 3.584-7.68 5.632-12.8 5.632z m-95.744-92.16s-0.512 0.512 0 0.512l84.48 84.48c3.072 3.072 7.68 4.608 11.776 4.608 4.096 0 7.68-1.536 10.752-4.608 6.656-6.656 6.656-16.384 0-23.04l-61.44-61.44 61.44-62.464c3.072-3.072 5.12-7.168 4.608-11.776 0-4.096-1.536-7.68-4.608-10.752-6.656-6.656-16.384-6.656-23.04 0l-83.968 84.48z"  /><path fill="#546371" d="M941.568 911.36c-14.336 0-25.6-11.264-25.6-25.6 0-199.168-39.936-382.976-112.64-516.096C711.168 199.68 599.552 163.84 522.24 163.84c-144.896 0-235.008 111.616-285.184 205.312C166.912 500.736 128.512 684.032 128.512 885.76c0 14.336-11.264 25.6-25.6 25.6s-25.6-11.264-25.6-25.6c0-209.92 40.96-401.92 114.688-540.672C273.408 193.024 387.584 112.64 522.24 112.64c129.024 0 244.736 82.432 326.144 232.448 76.8 140.8 118.784 332.8 118.784 540.672 0 14.336-11.264 25.6-25.6 25.6z"  /></svg>