<?xml version="1.0" standalone="no"?><!DOCTYPE svg PUBLIC "-//W3C//DTD SVG 1.1//EN" "http://www.w3.org/Graphics/SVG/1.1/DTD/svg11.dtd"><svg t="1646806893781" class="icon" viewBox="0 0 1024 1024" version="1.1" xmlns="http://www.w3.org/2000/svg" p-id="14811" xmlns:xlink="http://www.w3.org/1999/xlink" width="64" height="64"><defs><style type="text/css"></style></defs><path d="M523.264 254.464v602.112c0 7.168-5.12 12.8-11.264 12.8h-10.24c-6.144 0-11.264-6.144-11.264-12.8V254.464c0-7.168 5.12-12.8 11.264-12.8h10.24c5.632 0 11.264 6.144 11.264 12.8z" fill="#546371" p-id="14812"></path><path d="M511.488 870.4h-10.24c-6.656 0-12.8-6.144-12.8-13.824V254.464c0-7.68 5.632-13.824 12.8-13.824h10.24c3.072 0 5.632 1.024 8.192 3.072 3.072 2.56 4.608 6.656 4.608 10.752v602.112c0 7.68-5.632 13.824-12.8 13.824z m0.512-627.2h-10.752c-5.632 0-10.24 5.12-10.24 11.264v602.112c0 6.144 4.608 11.264 10.24 11.264h10.24c5.632 0 10.24-5.12 10.24-11.264V254.464c0-3.584-1.536-6.656-3.584-8.704-2.048-1.536-4.096-2.56-6.144-2.56z" fill="#546371" p-id="14813"></path><path d="M505.344 895.488c1.024 1.024 2.048 1.024 2.56 0l80.896-80.896c6.656-6.656 6.656-16.896 0-23.552-6.656-6.656-16.896-6.656-23.552 0L505.856 849.92l-58.88-58.88c-6.656-6.656-16.896-6.656-23.552 0-6.656 6.656-6.656 16.896 0 23.552l81.92 80.896z" fill="#546371" p-id="14814"></path><path d="M506.368 897.024c-1.024 0-1.536-0.512-2.048-1.024l-81.408-80.384c-7.168-7.168-7.168-18.432 0-25.6 3.072-3.584 7.68-5.12 12.288-5.632 4.608 0 9.216 2.048 12.8 5.632l57.856 57.856 57.856-57.856c7.168-7.168 18.432-7.168 25.6 0 3.584 3.072 5.12 7.68 5.632 12.288 0 4.608-2.048 9.216-5.632 12.8L508.416 896c0 0.512-0.512 1.024-2.048 1.024 0.512 0 0.512 0 0 0zM435.2 787.456c-4.096 0-7.68 1.536-10.752 4.608-3.072 3.072-4.608 7.168-4.608 10.752s1.536 8.192 4.608 10.752l81.408 80.384h0.512l80.896-81.408c3.072-3.072 4.608-7.168 4.608-11.264 0-4.096-1.536-7.68-4.608-10.24-6.144-6.144-15.872-6.144-22.016 0l-59.904 59.904L445.44 791.04c-2.048-2.048-6.144-3.584-10.24-3.584z" fill="#546371" p-id="14815"></path><path d="M507.392 196.608c-1.024-1.024-2.048-1.024-2.56 0L424.448 277.504c-6.656 6.656-6.656 16.896 0 23.552 6.656 6.656 16.896 6.656 23.552 0l58.368-58.368 58.88 58.88c6.656 6.656 16.896 6.656 23.552 0 6.656-6.656 6.656-16.896 0-23.552L507.392 196.608z" fill="#546371" p-id="14816"></path><path d="M577.024 307.712c-4.608 0-9.216-2.048-12.8-5.632L506.368 244.224 449.024 302.08c-7.168 7.168-18.432 7.168-25.6 0-3.584-3.072-5.12-7.68-5.632-12.288 0-4.608 2.048-9.216 5.632-12.8l80.896-80.896c0.512-0.512 1.024-1.024 1.536-1.024 1.024 0 2.048 0 2.56 1.024L589.312 276.48c3.584 3.584 5.632 8.192 5.632 12.8s-2.048 9.216-5.632 12.8c-3.072 3.584-7.168 5.632-12.288 5.632zM506.368 240.64l59.904 59.904c3.072 3.072 7.168 4.608 11.264 4.608 4.096 0 7.68-1.536 10.24-4.608 3.072-3.072 4.608-7.168 4.608-10.752 0-4.096-1.536-8.192-4.608-10.752L506.88 197.632h-0.512L424.96 278.528c-3.072 3.072-4.608 7.168-4.608 11.264 0 4.096 1.536 7.68 4.608 10.24 3.072 3.072 7.168 4.608 10.752 4.608 4.096 0 8.192-1.536 10.752-4.608L506.368 240.64z" fill="#546371" p-id="14817"></path><path d="M931.328 911.36c-14.336 0-25.6-11.264-25.6-25.6 0-199.168-39.936-382.976-112.64-516.096C700.928 199.68 589.312 163.84 512 163.84c-144.896 0-235.008 111.616-285.184 205.312C156.672 500.736 118.272 684.032 118.272 885.76c0 14.336-11.264 25.6-25.6 25.6s-25.6-11.264-25.6-25.6c0-209.92 40.96-401.92 114.688-540.672C263.168 193.024 377.344 112.64 512 112.64c129.024 0 244.736 82.432 326.144 232.448 76.8 140.8 118.784 332.8 118.784 540.672 0 14.336-11.264 25.6-25.6 25.6z" fill="#546371" p-id="14818"></path></svg>