<?xml version="1.0" standalone="no"?><!DOCTYPE svg PUBLIC "-//W3C//DTD SVG 1.1//EN" "http://www.w3.org/Graphics/SVG/1.1/DTD/svg11.dtd"><svg class="icon" width="64px" height="64.00px" viewBox="0 0 1024 1024" version="1.1" xmlns="http://www.w3.org/2000/svg"><path fill="#c0fbfd" d="M225.792 911.36V103.424h268.8c80.384 0 144.384 16.896 192.512 50.688s72.192 78.848 72.192 134.656c0 44.544-14.336 83.968-43.008 117.76-28.672 34.304-68.096 58.368-117.76 72.704v2.048c62.464 6.144 112.128 27.136 148.992 62.464 37.376 35.328 55.808 79.872 55.808 134.144 0 69.632-28.16 125.952-84.992 168.96-56.32 43.008-129.024 64.512-217.088 64.512H225.792z m117.76-716.8v252.928h107.52c57.344 0 101.888-12.288 134.656-36.864 32.256-24.576 48.64-58.368 48.64-101.888 0-76.288-57.344-114.176-172.544-114.176H343.552z m0 344.064v281.6h141.824c61.952 0 109.568-12.8 143.36-37.888 33.792-25.088 50.688-60.416 50.688-104.96 0-92.672-71.168-138.752-213.504-138.752H343.552z"  /></svg>