<?xml version="1.0" standalone="no"?><!DOCTYPE svg PUBLIC "-//W3C//DTD SVG 1.1//EN" "http://www.w3.org/Graphics/SVG/1.1/DTD/svg11.dtd"><svg class="icon" width="64px" height="64.00px" viewBox="0 0 1024 1024" version="1.1" xmlns="http://www.w3.org/2000/svg"><path fill="#c0fbfd" d="M736.768 462.848h-141.824c-20.48 0-45.568-20.48-45.568-45.568 0-22.528-2.048-119.808-2.048-120.832v-2.048c3.072-49.152 52.224-103.936 118.784-103.936 72.192 0 108.544 62.464 114.176 101.888 4.096 27.136 3.072 71.68 2.56 100.864v18.432c-0.512 33.792-23.552 51.2-46.08 51.2z m-140.8-40.96h140.8c4.096 0 4.608-5.12 4.608-9.216v-18.944c0.512-26.624 1.024-70.656-2.048-94.72-3.072-22.016-25.088-67.072-73.216-67.072-44.544 0-75.776 37.888-77.824 64.512 0 10.752 2.048 97.792 2.048 120.32 0.512 1.536 3.584 4.096 5.632 5.12zM424.448 462.848H282.624c-22.528 0-45.568-17.408-45.568-50.176V394.24c-0.512-29.696-1.024-74.24 2.56-100.864 5.632-39.424 41.472-101.888 114.176-101.888 66.56 0 115.712 54.784 118.784 103.936v2.048c0 1.024-2.048 98.304-2.048 120.832-0.512 24.064-25.6 44.544-46.08 44.544zM353.28 231.936c-48.128 0-70.144 45.056-73.216 67.072-3.584 23.552-2.56 68.096-2.56 94.72v18.944c0 4.096 1.024 9.216 4.608 9.216h140.8c2.048-1.024 5.12-3.584 5.632-5.12 0-22.528 2.048-109.568 2.048-120.32-1.536-26.624-32.256-64.512-77.312-64.512zM179.2 462.848H71.168c-19.456 0-39.424-15.36-39.424-43.008v-13.824c-1.024-23.04-1.536-57.344 1.536-77.824 4.608-31.744 33.28-81.92 91.648-81.92 53.248 0 93.184 44.032 95.232 83.968v2.048c0 0.512-1.536 74.752-1.536 91.648 0 20.992-21.504 38.912-39.424 38.912z m-106.496-40.96h104.448l0.512-0.512c0-18.944 1.536-80.896 1.536-90.112-1.536-18.432-23.04-44.544-54.272-44.544-33.792 0-49.152 31.744-51.2 47.104-2.56 17.92-2.048 51.2-1.536 71.168V419.84c0 1.024 0.512 1.536 0.512 2.048zM946.688 462.848h-108.032c-19.456 0-39.424-15.36-39.424-43.008v-13.824c-0.512-22.528-1.024-56.832 2.048-77.824 4.608-31.744 33.28-81.92 91.648-81.92 53.248 0 93.184 44.032 95.232 83.968v1.024c0 7.68 0 75.264-2.048 94.208-2.048 20.992-22.528 37.376-39.424 37.376z m-106.496-40.96h103.936l1.024-1.024c1.536-15.36 1.536-68.608 1.536-89.088-1.536-18.432-23.04-44.544-54.272-44.544-33.792 0-49.152 31.744-51.2 47.104-2.56 17.92-2.048 51.2-1.536 71.168v14.848c0.512 0.512 0.512 1.024 0.512 1.536z m105.472-1.536zM382.464 844.288h-3.072c-68.096-2.56-93.696-81.92-93.696-131.072v-94.72c0-26.112 7.68-39.936 27.136-50.176 17.408-8.704 121.856-4.608 131.584-1.024 9.728 3.072 26.112 12.8 29.696 43.52 1.024 7.68 0.512 32.256-1.024 82.432-0.512 12.288-0.512 22.528-0.512 25.6 0 0.512-1.536 69.12-38.912 104.96-13.824 13.312-31.744 20.48-51.2 20.48z m-54.272-237.568s-1.024 2.56-1.024 11.264v94.72c0 17.408 9.728 88.576 54.272 90.112 9.728 0.512 17.408-2.56 24.576-9.216 19.968-18.944 26.112-62.464 26.112-75.776 0-3.584 0-11.776 0.512-26.624 0.512-22.528 2.048-69.12 1.536-76.288-0.512-5.12-1.536-8.192-2.56-9.216-17.408-2.048-87.04-3.072-101.376-0.512-1.536 1.024-2.048 1.536-2.048 1.536zM184.832 798.72h-2.56c-57.344-2.048-78.848-68.096-78.848-109.056v-75.776c0-22.528 7.168-35.328 24.064-43.52 15.872-7.68 99.84-4.096 108.544-1.024 8.704 3.072 23.552 11.776 26.624 37.888 0.512 6.144 0.512 25.6-1.024 66.56-0.512 10.24-0.512 17.92-0.512 20.48 0 0.512-1.024 56.832-32.256 87.04-11.776 11.264-27.136 17.408-44.032 17.408z m-39.424-190.976c0 1.024-0.512 3.072-0.512 6.144v75.776c0 17.92 9.216 67.072 39.424 68.096 6.656 0 11.776-1.536 16.384-6.144 14.848-14.336 19.968-47.616 19.968-57.344 0-2.56 0-11.264 0.512-21.504 0.512-17.92 1.536-54.784 1.024-60.416 0-1.536-0.512-3.072-0.512-3.584-16.384-2.048-64-2.56-76.288-1.024z m-2.048 0zM838.656 798.72h-2.56c-57.344-2.048-78.848-68.096-78.848-109.056v-75.776c0-22.528 7.168-35.328 24.064-43.52 15.872-7.68 99.84-4.096 108.544-1.024 8.704 3.072 23.552 11.776 26.624 37.888 0.512 6.144 0.512 25.6-1.024 66.56-0.512 10.24-0.512 17.92-0.512 20.48 0 0.512-1.024 56.832-32.256 87.04-12.288 11.264-27.648 17.408-44.032 17.408z m-39.936-190.976c0 1.024-0.512 3.072-0.512 6.144v75.776c0 17.92 9.216 67.072 39.424 68.096 6.656 0 11.776-1.536 16.384-6.144 14.848-14.336 19.968-47.616 19.968-57.344 0-2.56 0-11.264 0.512-21.504 0.512-17.92 1.536-54.784 1.024-60.416 0-1.536-0.512-3.072-0.512-3.584-16.384-2.048-63.488-2.56-76.288-1.024z m-2.048 0zM642.56 844.288h-3.072c-68.096-2.56-93.696-81.92-93.696-131.072v-94.72c0-26.112 7.68-39.936 27.136-50.176 17.408-8.704 121.856-4.608 131.584-1.024 9.728 3.072 26.112 12.8 29.696 43.52 1.024 7.68 0.512 32.256-1.024 82.432-0.512 12.288-0.512 22.528-0.512 25.6 0 0.512-1.536 69.12-38.912 104.96-13.824 13.312-31.744 20.48-51.2 20.48z m-54.784-237.568s-1.024 2.56-1.024 11.264v94.72c0 17.408 9.728 88.576 54.272 90.112 9.728 0.512 17.408-2.56 24.576-9.216 19.968-18.944 26.112-62.464 26.112-75.776 0-3.584 0-11.776 0.512-26.624 0.512-22.528 2.048-69.12 1.536-76.288-0.512-5.12-1.536-8.192-2.56-9.216-17.408-2.048-87.04-3.072-101.376-0.512-1.024 1.024-1.536 1.536-2.048 1.536zM508.416 919.04c-9.728 0-17.92-8.192-17.92-17.92V117.76c0-9.728 8.192-17.92 17.92-17.92s17.92 8.192 17.92 17.92v783.36c0 9.728-8.192 17.92-17.92 17.92z"  /></svg>