<?xml version="1.0" standalone="no"?><!DOCTYPE svg PUBLIC "-//W3C//DTD SVG 1.1//EN" "http://www.w3.org/Graphics/SVG/1.1/DTD/svg11.dtd"><svg class="icon" width="64px" height="64.00px" viewBox="0 0 1024 1024" version="1.1" xmlns="http://www.w3.org/2000/svg"><path fill="#ffffff" d="M870.912 553.984C834.048 510.464 793.6 491.52 736.256 491.52c-42.496 0-71.68 17.408-97.792 33.28-17.408 10.752-32.768 19.968-49.664 21.504-16.384-1.024-31.744-10.752-49.664-21.504-25.6-15.36-54.784-33.28-97.792-33.28-57.344 0-97.792 18.944-134.656 62.464-52.736 62.464-18.432 193.024 6.144 263.68 6.144 18.432 23.552 30.208 42.496 30.208h464.896c18.944 0 36.352-11.776 42.496-30.208 27.136-70.656 61.44-200.704 8.192-263.68z m-80.384 253.44H388.096c-19.968 0-37.888-13.312-43.52-32.768-22.016-75.264-33.28-158.72-4.096-193.024 28.672-33.792 57.344-47.104 101.888-47.104 30.72 0 52.224 13.312 75.264 26.624 20.992 12.8 42.496 25.6 70.144 27.136h2.56c27.136-1.536 49.152-14.336 70.144-27.136 23.04-13.824 44.544-26.624 75.264-26.624 44.544 0 73.216 13.312 101.888 47.104 29.184 34.304 18.432 118.272-4.096 193.024-5.12 18.944-23.04 32.768-43.008 32.768z"  /><path fill="#ffffff" d="M155.136 467.968c36.864 43.52 77.312 62.464 134.656 62.464 42.496 0 71.68-17.408 97.792-33.28 17.408-10.752 32.768-19.968 49.664-21.504 16.384 1.024 31.744 10.752 49.664 21.504 25.6 15.36 54.784 33.28 97.792 33.28 57.344 0 97.792-18.944 134.656-62.464 52.736-62.464 18.432-193.024-6.144-263.68-6.144-18.432-23.552-30.208-42.496-30.208H204.8c-18.944 0-36.352 11.776-42.496 30.208-25.6 71.168-59.904 201.216-7.168 263.68zM236.032 215.04h402.432c19.968 0 37.888 13.312 43.52 32.768 22.016 75.264 33.28 158.72 4.096 193.024-28.672 33.792-57.344 47.104-101.888 47.104-30.72 0-52.224-13.312-75.264-26.624-20.992-12.8-42.496-25.6-70.144-27.136h-2.56c-27.136 1.536-49.152 14.336-70.144 27.136-23.04 13.824-44.544 26.624-75.264 26.624-44.544 0-73.216-13.312-101.888-47.104-29.184-34.304-18.432-118.272 4.096-193.024 4.608-19.456 22.528-32.768 43.008-32.768z"  /><path fill="#ffffff" d="M435.2 473.6c-11.264 0-20.48-9.216-20.48-20.48V128c0-11.264 9.216-20.48 20.48-20.48s20.48 9.216 20.48 20.48v325.12c0 11.264-9.216 20.48-20.48 20.48zM593.408 921.6c-11.264 0-20.48-9.216-20.48-20.48v-325.12c0-11.264 9.216-20.48 20.48-20.48s20.48 9.216 20.48 20.48V901.12c0 11.264-9.216 20.48-20.48 20.48z"  /></svg>