<?xml version="1.0" standalone="no"?><!DOCTYPE svg PUBLIC "-//W3C//DTD SVG 1.1//EN" "http://www.w3.org/Graphics/SVG/1.1/DTD/svg11.dtd"><svg class="icon" width="64px" height="64.00px" viewBox="0 0 1024 1024" version="1.1" xmlns="http://www.w3.org/2000/svg"><path fill="#546371" d="M855.552 914.432h-86.528c-23.04 0-41.984-18.944-41.984-41.984V788.48c0-47.104 38.4-85.504 85.504-85.504s85.504 38.4 85.504 85.504v83.968c-0.512 23.552-19.456 41.984-42.496 41.984z m-43.52-174.08c-26.624 0-48.128 21.504-48.128 48.128v83.968c0 2.56 2.048 4.608 4.608 4.608H855.04c2.56 0 4.608-2.048 4.608-4.608V788.48c0.512-26.112-20.992-48.128-47.616-48.128zM676.352 914.432h-86.528c-23.04 0-41.984-18.944-41.984-41.984V788.48c0-47.104 38.4-85.504 85.504-85.504s85.504 38.4 85.504 85.504v83.968c-0.512 23.552-19.456 41.984-42.496 41.984z m-43.52-174.08c-26.624 0-48.128 21.504-48.128 48.128v83.968c0 2.56 2.048 4.608 4.608 4.608H675.84c2.56 0 4.608-2.048 4.608-4.608V788.48c0.512-26.112-20.992-48.128-47.616-48.128zM496.64 914.432H410.112c-23.04 0-41.984-18.944-41.984-41.984V788.48c0-47.104 38.4-85.504 85.504-85.504s85.504 38.4 85.504 85.504v83.968c-0.512 23.552-18.944 41.984-42.496 41.984z m-43.008-174.08c-26.624 0-48.128 21.504-48.128 48.128v83.968c0 2.56 2.048 4.608 4.608 4.608H496.64c2.56 0 4.608-2.048 4.608-4.608V788.48c0.512-26.112-21.504-48.128-47.616-48.128zM960.512 509.44c-12.288 0-23.04-8.704-25.088-20.992-11.264-62.464-46.08-176.128-151.552-238.592-165.376-97.28-715.776-78.848-720.896-78.336h-1.024c-13.824 0-25.088-10.752-25.6-24.576-0.512-14.336 10.752-26.112 24.576-26.624 23.04-1.024 570.88-19.456 749.056 85.504 122.88 72.704 163.328 202.24 176.128 273.408 2.56 13.824-6.656 27.136-20.48 29.696-2.048 0.512-3.584 0.512-5.12 0.512zM110.592 243.2v639.488c0 7.68-2.56 13.312-5.12 13.312h-4.608c-3.072 0-5.12-6.144-5.12-13.312V243.2c0-7.68 2.56-13.312 5.12-13.312h4.608c3.072-0.512 5.12 6.144 5.12 13.312z"  /><path fill="#546371" d="M105.472 904.192h-4.608c-9.216 0-12.8-10.752-12.8-20.992v-640c0-12.8 5.12-20.992 12.8-20.992h4.608c2.56 0 5.12 0.512 7.168 2.56 5.632 5.12 6.144 15.36 6.144 18.432v639.488c-0.512 13.312-5.12 21.504-13.312 21.504z"  /><path fill="#546371" d="M102.4 910.848c0.512 0.512 1.024 0.512 1.024 0l37.376-37.888c3.072-3.072 3.072-8.192 0-10.752-3.072-3.072-7.68-3.072-10.752 0l-27.136 27.648-27.136-27.648c-3.072-3.072-7.68-3.072-10.752 0-3.072 3.072-3.072 8.192 0 11.264l37.376 37.376z"  /><path fill="#546371" d="M103.424 919.04c-2.048 0-4.608-1.024-6.144-2.56l-37.376-37.888c-6.144-6.144-6.144-15.872 0-22.016 2.56-3.072 6.656-4.608 10.752-4.608s8.192 1.536 11.264 4.608l21.504 22.016 21.504-22.016c6.144-6.144 15.872-6.144 22.016 0 2.56 2.56 4.608 6.656 4.608 10.752s-1.536 8.192-4.608 11.264l-36.352 36.864-1.024 2.56-4.096 1.024h-2.048z m-0.512-18.432l32.768-32.768-32.768 32.768z"  /><path fill="#546371" d="M103.936 215.552c-0.512-0.512-1.024-0.512-1.024 0l-37.888 37.376c-3.072 3.072-3.072 7.68 0 10.752 3.072 3.072 7.68 3.072 10.752 0l27.648-27.136 26.624 28.16c3.072 3.072 7.68 3.072 10.752 0 3.072-3.072 3.072-7.68 0-11.264l-36.864-37.888z"  /><path fill="#546371" d="M135.68 274.944c-4.096 0-8.192-1.536-11.264-4.608l-21.504-22.528-22.016 21.504c-3.072 3.072-6.656 4.608-11.264 4.608-4.096 0-8.192-1.536-10.752-4.608-2.56-2.56-4.608-6.656-4.608-10.752s1.536-8.192 4.608-11.264l36.864-36.352 1.024-2.56 4.096-1.024c2.56-0.512 5.632 0.512 7.168 2.56l36.864 38.4c6.144 6.144 5.632 15.872-0.512 22.016-1.024 3.072-4.608 4.608-8.704 4.608z m-32.256-49.152l32.256 33.792-32.256-33.792-32.768 32.256 32.768-32.256z"  /><path fill="#546371" d="M895.488 824.32h-16.896v-51.2h16.896c23.04 0 41.472-18.432 41.472-41.472v-80.896c0-23.04-18.432-41.472-41.472-41.472H266.752c-23.04 0-41.472 18.432-41.472 41.472v80.896c0 23.04 18.432 41.472 41.472 41.472h120.32v51.2H266.752c-51.2 0-92.672-41.472-92.672-92.672v-80.896c0-51.2 41.472-92.672 92.672-92.672h628.736c51.2 0 92.672 41.472 92.672 92.672v80.896c0 51.2-41.472 92.672-92.672 92.672z"  /><path fill="#546371" d="M520.192 773.12h46.08v51.2h-46.08zM699.392 773.12h46.08v51.2h-46.08z"  /></svg>