<?xml version="1.0" standalone="no"?><!DOCTYPE svg PUBLIC "-//W3C//DTD SVG 1.1//EN" "http://www.w3.org/Graphics/SVG/1.1/DTD/svg11.dtd"><svg class="icon" width="64px" height="64.00px" viewBox="0 0 1024 1024" version="1.1" xmlns="http://www.w3.org/2000/svg"><path fill="#546371" d="M700.416 671.232c-12.288-16.384-28.16-89.088-31.744-143.872v-2.048c2.048-56.832 33.28-92.16 81.92-92.16 32.768 0.512 48.128 13.312 57.856 22.016 9.216-11.776 26.112-30.208 61.952-30.208 26.624 0 50.176 13.312 65.536 37.888 14.848 23.552 17.408 48.128 17.92 55.296 4.096 59.904-7.68 118.784-8.192 120.832l-50.176-10.24c0-0.512 11.264-54.272 7.168-107.008-0.512-9.728-7.68-45.056-32.256-45.056-13.312 0-16.384 4.096-23.04 12.8-6.144 7.68-16.384 20.48-34.304 20.992-18.944 1.024-30.208-9.728-36.864-15.872-6.656-6.144-10.24-9.728-25.088-9.728-8.192 0-28.16 0-30.208 41.472 3.584 54.784 17.92 108.032 22.528 116.224-0.512-0.512-0.512-1.024-1.024-1.536l-41.984 30.208zM402.944 677.888c-13.312-15.872-26.624-64.512-33.792-120.832-3.584-31.232 1.536-56.32 16.384-74.24 13.312-16.384 33.28-25.6 58.88-27.648 34.304-2.048 50.688 10.752 60.928 19.456 8.704-9.728 23.552-25.088 58.368-27.648 51.2-4.096 83.456 37.376 88.576 79.872 7.68 62.976-10.752 128.512-11.264 131.072l-49.152-13.824c0-0.512 16.384-58.88 9.728-111.104-0.512-3.584-5.632-37.376-34.304-35.328-15.36 1.024-19.456 5.632-25.088 12.288-5.632 6.656-14.848 16.384-30.72 18.432-19.456 2.56-31.232-7.68-38.4-13.824-6.656-5.632-10.752-9.216-25.088-8.192-10.752 1.024-18.432 4.096-22.528 9.216-5.632 6.656-7.168 18.944-5.12 35.84 6.656 56.32 18.944 89.088 22.528 94.72 0-0.512-0.512-0.512-0.512-0.512l-39.424 32.256zM101.376 689.664c-18.944-23.552-28.672-117.76-29.696-128.512-3.072-31.744 3.072-56.32 17.92-74.24 13.824-15.872 33.792-25.088 59.392-26.112 34.304-1.536 50.688 12.288 60.416 20.48 9.216-9.728 24.064-24.576 58.88-26.624 51.2-2.56 82.432 39.424 87.04 81.92 7.168 62.464-14.848 133.632-15.36 136.704l-49.152-14.848c0-0.512 19.456-64 13.824-116.224-0.512-4.096-5.12-37.888-33.28-36.352-15.36 1.024-19.456 5.12-25.088 11.264-6.144 6.656-14.848 16.384-31.232 17.92-19.456 2.048-31.232-8.192-38.4-14.848-6.656-5.632-10.752-9.216-25.088-8.704-10.752 0.512-18.432 3.584-23.04 8.192-5.632 6.656-7.68 18.944-6.144 35.84 5.632 56.832 15.872 95.744 19.968 102.912-0.512-0.512-0.512-1.024-1.024-1.536l-39.936 32.768z"  /><path fill="#546371" d="M992.768 911.36H46.08l-6.656-15.872c-26.112-62.464-23.04-135.168 7.68-185.856 17.92-29.184 42.496-46.08 69.632-48.128h2.048c135.168 1.536 589.312-25.088 748.032-46.08 34.816-4.608 65.024 5.12 87.552 27.648 66.048 67.072 44.032 227.84 41.472 246.272l-3.072 22.016zM80.896 860.16h866.816c4.608-52.224 5.12-145.408-29.696-180.736-11.264-11.264-25.088-15.36-44.544-12.8-159.232 20.992-615.936 47.616-753.664 46.592-9.728 1.024-20.48 9.728-28.672 23.552-16.896 27.136-25.6 74.752-10.24 123.392z"  /><path fill="#546371" d="M338.944 311.808c-95.232 0-188.928-8.192-272.384-25.088-13.824-2.56-23.04-16.384-19.968-30.208 2.56-13.824 16.384-23.04 30.208-19.968 139.264 27.648 316.416 31.232 473.6 9.216 165.888-23.04 292.352-72.192 346.624-134.656 9.216-10.752 25.6-11.776 36.352-2.56 10.752 9.216 11.776 25.6 2.56 36.352-96.768 110.592-350.72 166.912-596.992 166.912z"  /></svg>