<?xml version="1.0" encoding="utf-8"?>
<!-- Generator: Adobe Illustrator 22.0.0, SVG Export Plug-In . SVG Version: 6.00 Build 0)  -->
<svg version="1.1" id="图层_1" xmlns="http://www.w3.org/2000/svg" xmlns:xlink="http://www.w3.org/1999/xlink" x="0px" y="0px"
	 viewBox="0 0 200.8 200" style="enable-background:new 0 0 200.8 200;" xml:space="preserve">
<style type="text/css">
	.st0{fill:#FFFFFF;}
</style>
<path class="st0" d="M160.4,110.2H39.4c-2.3,0-4.1,1.3-4.1,2.8v8c0,1.6,1.8,2.8,4.1,2.8h105.8l-27.8,27.9c-2.7,2.7-2.7,7,0,9.7
	s7,2.7,9.7,0l35.6-35.6c1.3-1.3,2-3,2-4.7v-8C164.5,111.5,162.7,110.2,160.4,110.2L160.4,110.2z M160.4,75.9H54.7l27.8-27.8
	c2.7-2.7,2.7-7,0-9.7c-2.7-2.7-7-2.7-9.7,0L37.3,74c-1.3,1.3-2,3-2,4.7v8c0,1.6,1.8,2.8,4.1,2.8h121.1c2.3,0,4.1-1.3,4.1-2.8v-8
	C164.5,77.2,162.7,75.9,160.4,75.9L160.4,75.9z"/>
<path class="st0" d="M193.8,73.9c-3.8,0-6.8-3.1-6.8-6.8V29.4c0-8.7-7-15.7-15.7-15.7H29.4c-8.7,0-15.7,7-15.7,15.7v37.3
	c0,3.8-3.1,6.8-6.8,6.8S0,70.4,0,66.7V29.4C0,13.2,13.2,0,29.4,0h141.8c16.2,0,29.4,13.2,29.4,29.4V67
	C200.6,70.8,197.5,73.9,193.8,73.9L193.8,73.9z M171.2,200H29.4C13.2,200,0,186.8,0,170.6v-37.3c0-3.8,3.1-6.8,6.8-6.8
	s6.8,3.1,6.8,6.8v37.3c0,8.7,7,15.7,15.7,15.7h141.8c8.7,0,15.7-7,15.7-15.7V133c0-3.8,3.1-6.8,6.8-6.8s6.8,3.1,6.8,6.8v37.6
	C200.6,186.8,187.4,200,171.2,200L171.2,200z"/>
</svg>
