<?xml version="1.0" encoding="utf-8"?>
<!-- Generator: Adobe Illustrator 22.0.0, SVG Export Plug-In . SVG Version: 6.00 Build 0)  -->
<svg version="1.1" id="图层_1" xmlns="http://www.w3.org/2000/svg" xmlns:xlink="http://www.w3.org/1999/xlink" x="0px" y="0px"
	 viewBox="0 0 200 200" style="enable-background:new 0 0 200 200;" xml:space="preserve">
<style type="text/css">
	.st0{fill:#FFFFFF;}
</style>
<path class="st0" d="M155.7,80.3H75.6c-2.1,0-3.8-2.4-3.8-5.3s1.7-5.3,3.8-5.3h80.1c2.1,0,3.8,2.4,3.8,5.3
	C159.4,77.9,157.8,80.3,155.7,80.3z"/>
<path class="st0" d="M145.2,112.1H75.6c-2.1,0-3.8-1.7-3.8-3.8s1.7-3.8,3.8-3.8h69.7c2.1,0,3.8,1.7,3.8,3.8
	C149,110.4,147.3,112.1,145.2,112.1z"/>
<path class="st0" d="M124.3,146.9H75.6c-2.1,0-3.8-1.7-3.8-3.8s1.7-3.8,3.8-3.8h48.8c2.1,0,3.8,1.7,3.8,3.8
	C128.1,145.2,126.4,146.9,124.3,146.9z"/>
<path class="st0" d="M120,199c-0.6,0-1,0-1.2,0H49.9c-3,0-5.5-2.5-5.5-5.5V36.7c0-3,2.5-5.5,5.5-5.5h131.2c3,0,5.5,2.5,5.5,5.5
	v114.7v0.1c-0.6,10.6-4.2,19.6-10.6,27c-5.2,5.9-12.2,10.7-20.9,14.2C140.1,198.5,124.4,199,120,199z M54.9,188.5h64h0.1
	c0,0-2.5,0-1.9,0c4.1,0,18.5-0.4,32.2-5.9c16.8-6.7,25.8-15.4,26.8-31.5V41.6H54.9V188.5z"/>
<path class="st0" d="M154.1,80.3h-77c-2.9,0-5.3-2.4-5.3-5.3l0,0c0-2.9,2.4-5.3,5.3-5.3h77c2.9,0,5.3,2.4,5.3,5.3l0,0
	C159.4,77.9,157.1,80.3,154.1,80.3z"/>
<path class="st0" d="M143.4,113.6H77.1c-2.9,0-5.3-2.4-5.3-5.3l0,0c0-2.9,2.4-5.3,5.3-5.3h66.3c2.9,0,5.3,2.4,5.3,5.3l0,0
	C148.7,111.2,146.3,113.6,143.4,113.6z"/>
<path class="st0" d="M122.8,148.4H77.1c-2.9,0-5.3-2.4-5.3-5.3l0,0c0-2.9,2.4-5.3,5.3-5.3h45.7c2.9,0,5.3,2.4,5.3,5.3l0,0
	C128.1,146.1,125.7,148.4,122.8,148.4z"/>
<path class="st0" d="M44.4,160.3H23.1V11.8h122.8v19.4h9.7V8.6c0-3.6-2.9-6.4-6.4-6.4H19.8c-3.6,0-6.4,2.9-6.4,6.4v154.9
	c0,3.6,2.9,6.4,6.4,6.4h24.6V160.3z"/>
</svg>
