<?xml version="1.0" encoding="utf-8"?>
<!-- Generator: Adobe Illustrator 22.0.0, SVG Export Plug-In . SVG Version: 6.00 Build 0)  -->
<svg version="1.1" id="图层_1" xmlns="http://www.w3.org/2000/svg" xmlns:xlink="http://www.w3.org/1999/xlink" x="0px" y="0px"
	 viewBox="0 0 200 200" style="enable-background:new 0 0 200 200;" xml:space="preserve">
<style type="text/css">
	.st0{fill:#FFFFFF;}
</style>
<path class="st0" d="M134.4,181.3c5.4,3.5,12.6,2.1,16.1-3.3c0.7-1,1.2-2.1,1.5-3.3l43.4-153.2c2.4-8.6-2.5-17.6-11.1-20
	c-3.7-1.1-7.7-0.8-11.2,0.9L9.8,77.7c-5.9,2.7-8.4,9.7-5.7,15.5c0.9,2,2.4,3.7,4.2,4.9l34.1,22.5c3.3,2.2,7.7,1.4,9.9-1.9
	c2.2-3.3,1.4-7.7-1.9-9.9c-0.1,0-0.1-0.1-0.2-0.1L20,88.7l159-73.4c0.4-0.2,0.8-0.2,1.3-0.1c1,0.3,1.6,1.4,1.3,2.4l-42.4,149.7
	l-30.2-20c-4-2.7-9.4-1.6-12.2,2.3l-16.5,23.4v-47l62.6-51.6c3.1-2.5,3.6-7,1.1-10c-2.5-3.1-7-3.6-10-1.1c-0.1,0-0.1,0.1-0.2,0.1
	l-64.6,53.2c-2.1,1.7-3.3,4.2-3.3,6.9V190c0,4.9,4,8.9,8.9,8.9c2.9,0,5.6-1.4,7.3-3.8l23.3-33L134.4,181.3L134.4,181.3z"/>
</svg>
