<?xml version="1.0" encoding="utf-8"?>
<!-- Generator: Adobe Illustrator 22.0.0, SVG Export Plug-In . SVG Version: 6.00 Build 0)  -->
<svg version="1.1" id="图层_1" xmlns="http://www.w3.org/2000/svg" xmlns:xlink="http://www.w3.org/1999/xlink" x="0px" y="0px"
	 viewBox="0 0 200 200" style="enable-background:new 0 0 200 200;" xml:space="preserve">
<style type="text/css">
	.st0{fill:#FFFFFF;}
</style>
<path class="st0" d="M89.8,143.4l38.4-43.9l0.4-1c0.6-1.5,0.9-3.2,0.9-5c0-2.2-0.7-4.4-2-5.8c-1.9-2.1-4.3-2.1-5.4-2H103
	C100.5,7.5,41.3,0.8,29.1,0.2C27.5,0,26,0.7,24.8,2l-1.4,1.9v2.3c0,2.4,1.2,4.6,3.3,6.1c30.2,20.6,33.5,55.2,33.5,69.3v1.9H37
	c-2.4,0-4.2,0.4-5.6,1.3c-1.9,1.2-3.3,3.7-3.3,6.5c0,3.5,2,6.2,2.9,7.4l40.7,43.9c0.7,0.9,4.6,5.5,9.2,5.5
	C85.3,148,89.1,144.3,89.8,143.4L89.8,143.4z M79.6,132.9l-0.4-0.4l-0.4-0.4l-32.3-35h24.2L71,83.6v-2.2c0-12.7-2.3-39.8-19.5-62.7
	c18.2,7.3,39,24.9,40.4,67.4l0.4,13.2H112l-29.2,33.4c-0.6,0.7-1.4,1.2-1.4,1.4l0,0C80.7,133.9,80.1,133.5,79.6,132.9L79.6,132.9z"
	/>
<path class="st0" d="M6,106.3V175c0,13.8,11.2,25,25,25h137.5c13.8,0,25-11.2,25-25V37.8c0-13.8-11.2-25-25-25H99.7
	c-0.2,0-0.4,0-0.6,0c-3.4,0.1-6.1,3.1-5.9,6.5c0.1,3.4,3.1,6.1,6.5,5.9h68.8c6.9,0,12.5,5.6,12.5,12.5V175c0,6.9-5.6,12.5-12.5,12.5
	H31c-6.9,0-12.5-5.6-12.5-12.5v-68.7c0-3.4-2.9-6.2-6.3-6.2S6,102.9,6,106.3z"/>
</svg>
