<?xml version="1.0" encoding="utf-8"?>
<!-- Generator: Adobe Illustrator 22.0.0, SVG Export Plug-In . SVG Version: 6.00 Build 0)  -->
<svg version="1.1" id="图层_1" xmlns="http://www.w3.org/2000/svg" xmlns:xlink="http://www.w3.org/1999/xlink" x="0px" y="0px"
	 viewBox="0 0 200 200" style="enable-background:new 0 0 200 200;" xml:space="preserve">
<style type="text/css">
	.st0{fill:#535659;}
</style>
<path class="st0" d="M163.1,8.1H36.9C21,8.1,8.1,21,8.1,36.9v126.2c0,15.9,12.9,28.8,28.8,28.8h126.2c15.9,0,28.8-12.9,28.8-28.8
	V36.9C191.9,21,179,8.1,163.1,8.1z M64.7,19.5h70.7v62.6c0,6.5-5.3,11.8-11.8,11.8H76.4c-6.5,0-11.8-5.3-11.8-11.8L64.7,19.5z
	 M180.5,168.1c0,6.8-5.5,12.3-12.3,12.3H31.9c-6.8,0-12.3-5.5-12.3-12.3V31.9c0-6.8,5.5-12.3,12.3-12.3h20.3v58.6
	c0,15.6,12.7,28.2,28.2,28.2h39.1c15.6,0,28.2-12.7,28.2-28.2V19.5h20.3c6.8,0,12.3,5.5,12.3,12.3V168.1z"/>
<path class="st0" d="M113.8,75.6c4,0,7.2-3.7,7.2-8.2V48c0-4.5-3.2-8.2-7.2-8.2c-4,0-7.2,3.7-7.2,8.2v19.3
	C106.7,71.9,109.9,75.6,113.8,75.6z"/>
</svg>
