<?xml version="1.0" encoding="utf-8"?>
<!-- Generator: Adobe Illustrator 22.0.0, SVG Export Plug-In . SVG Version: 6.00 Build 0)  -->
<svg version="1.1" id="图层_1" xmlns="http://www.w3.org/2000/svg" xmlns:xlink="http://www.w3.org/1999/xlink" x="0px" y="0px"
	 viewBox="0 0 200 200" style="enable-background:new 0 0 200 200;" xml:space="preserve">
<style type="text/css">
	.st0{fill:#535659;}
</style>
<path class="st0" d="M169.2,7.7H30.8C18.1,7.7,7.7,18.1,7.7,30.8v138.5c0,12.7,10.4,23.1,23.1,23.1h98.8c3.1,0,5.7-2.6,5.7-5.7l0,0
	c0-3.1-2.6-5.7-5.7-5.7H30.8c-6.5,0-11.7-5.2-11.7-11.7V26.8c0-4.3,3.4-7.7,7.7-7.7h19.4v30.2c0,8.5,6.9,15.4,15.4,15.4h69.2
	c8.5,0,15.4-6.9,15.4-15.4V19.1h23.1c4.6,0,11.7,3.1,11.7,7.7l0.9,75c0,2.9,2.4,5.2,5.2,5.2h0c2.9,0,5.2-2.3,5.2-5.2v-71
	C192.3,18.5,181.5,7.7,169.2,7.7z M57.5,53.2V20.6h77.2v32.6H57.5z"/>
<path class="st0" d="M180,150.6H63.5c-3.1,0-5.7-2.6-5.7-5.7v0c0-3.1,2.6-5.7,5.7-5.7H180c3.1,0,5.7,2.6,5.7,5.7v0
	C185.7,148,183.1,150.6,180,150.6z"/>
<path class="st0" d="M161.2,112.3c-2.2-2.2-5.8-2.2-8.1,0v0c-2.2,2.2-2.2,5.8,0,8.1l24.5,24.5l-24.5,24.5c-2.2,2.2-2.2,5.8,0,8.1
	l0,0c2.2,2.2,5.8,2.2,8.1,0l28.5-28.5c2.3-2.3,2.3-6,0-8.2L161.2,112.3z"/>
</svg>
