<?xml version="1.0" encoding="utf-8"?>
<!-- Generator: Adobe Illustrator 22.1.0, SVG Export Plug-In . SVG Version: 6.00 Build 0)  -->
<svg version="1.1" id="Layer_1" xmlns="http://www.w3.org/2000/svg" xmlns:xlink="http://www.w3.org/1999/xlink" x="0px" y="0px"
	 viewBox="0 0 64 64" style="enable-background:new 0 0 64 64;" xml:space="preserve">
<style type="text/css">
	.st0{fill:#81929E;}
</style>
<path class="st0" d="M30.8,21.3c-1.4,0.1-2.8,0.3-4.2,0.6C11.1,25.4,1.3,40.8,4.8,56.3C7.6,44,18,34.9,30.6,33.8h0.1
	c1.2,0,2.2,1,2.2,2.2v5.7c0,0.5,0.1,0.9,0.4,1.3c0.6,1,2,1.3,3,0.6l22.8-15.9c0.2-0.1,0.4-0.4,0.6-0.6c0.7-1,0.4-2.3-0.6-3L36.2,8.2
	c-0.4-0.3-0.8-0.4-1.3-0.4c-1.2,0-2.1,1-2.1,2.2v9.3C32.8,20.5,31.9,21.4,30.8,21.3z"/>
</svg>
