<?xml version="1.0" encoding="utf-8"?>
<!-- Generator: Adobe Illustrator 22.1.0, SVG Export Plug-In . SVG Version: 6.00 Build 0)  -->
<svg version="1.1" id="Layer_1" xmlns="http://www.w3.org/2000/svg" xmlns:xlink="http://www.w3.org/1999/xlink" x="0px" y="0px"
	 viewBox="0 0 64 64" style="enable-background:new 0 0 64 64;" xml:space="preserve">
<style type="text/css">
	.st0{fill:#81929E;}
</style>
<path class="st0" d="M31.4,19.3V10c0-1.2-0.9-2.2-2.1-2.2c-0.5,0-0.9,0.1-1.3,0.4L5.1,24.1c-1,0.7-1.3,2-0.6,3
	c0.2,0.2,0.4,0.5,0.6,0.6l22.8,15.9c1,0.7,2.4,0.4,3-0.6c0.3-0.4,0.4-0.8,0.4-1.3V36c0-1.2,1-2.2,2.2-2.2h0.1
	c12.6,1.1,23,10.2,25.8,22.5c3.5-15.5-6.3-30.9-21.8-34.4c-1.4-0.3-2.8-0.5-4.2-0.6C32.3,21.4,31.4,20.5,31.4,19.3z"/>
</svg>
