<?xml version="1.0" standalone="no"?><!DOCTYPE svg PUBLIC "-//W3C//DTD SVG 1.1//EN" "http://www.w3.org/Graphics/SVG/1.1/DTD/svg11.dtd"><svg t="1612857208552" class="icon" viewBox="0 0 1024 1024" version="1.1" xmlns="http://www.w3.org/2000/svg" p-id="2065" xmlns:xlink="http://www.w3.org/1999/xlink" width="64" height="64"><defs><style type="text/css"></style></defs><path d="M924.8 921.6H99.2c-12.8 1.6-24-8-30.4-20.8-6.4-14.4-6.4-32 0-46.4 6.4-14.4 17.6-22.4 30.4-20.8h825.6c12.8-1.6 24 8 30.4 20.8 6.4 14.4 6.4 32 0 46.4-6.4 14.4-17.6 22.4-30.4 20.8z m0-361.6H99.2c-12.8 1.6-24-8-30.4-20.8-6.4-14.4-6.4-32 0-46.4s17.6-22.4 30.4-20.8h825.6c12.8-1.6 24 8 30.4 20.8 6.4 14.4 6.4 32 0 46.4-6.4 14.4-17.6 22.4-30.4 20.8z m0-363.2H99.2c-12.8 1.6-24-8-30.4-20.8-4.8-14.4-4.8-32 1.6-46.4s17.6-22.4 30.4-20.8h825.6c12.8-1.6 24 8 30.4 20.8 6.4 14.4 6.4 32 0 46.4-8 12.8-19.2 20.8-32 20.8z" fill="#ffffff" p-id="2066"></path></svg>