<?xml version="1.0" encoding="utf-8"?>
<!-- Generator: Adobe Illustrator 22.0.0, SVG Export Plug-In . SVG Version: 6.00 Build 0)  -->
<svg  version="1.1" id="Layer_1" xmlns="http://www.w3.org/2000/svg" xmlns:xlink="http://www.w3.org/1999/xlink" x="0px" y="0px"
	 viewBox="0 0 2173.2 3219.4" style="enable-background:new 0 0 2173.2 3219.4;" xml:space="preserve">
<style type="text/css">
	.st0{fill:#FFFFFF;stroke:#CECECE;stroke-width:4;stroke-miterlimit:10;}
	.st1{fill:#A29D9E;}
	.st2{fill:#CECECE;}
	.st3{font-family:'MicrosoftYaHei';}
	.st4{font-size:99.98px;}
	.st5{fill:red;}
	.st6{fill:green;}
	.st7{fill:red;stroke:#CECECE;stroke-width:4;stroke-miterlimit:10;}
                .st8{fill:green;stroke:#CECECE;stroke-width:4;stroke-miterlimit:10;}
	.st9{fill:blue;stroke:#CECECE;stroke-width:4;stroke-miterlimit:10;}
	.st11{fill:#78cdd1;stroke:#CECECE;stroke-width:4;stroke-miterlimit:10;}
	.st12{fill:yellow;stroke:#CECECE;stroke-width:4;stroke-miterlimit:10;}
</style>
<g>
	<path id="svgid18" class="st0" d="M189.5,1375.3c-2.4,38-14.4,129.1,52,156c74,30,109-41.5,114-49c8-12,13-85,6-108
		c-4.4-14.4-42-53-63-54S191,1351.1,189.5,1375.3z,M222.4,1412.8c4.9-2.6,10.2-4.5,15.6-5.9c5.4-1.3,11.1-1.9,16.9-1.3c5.7,0.6,11.5,2.9,15.8,7
			s6.9,9.7,8.3,15.2l-0.1-0.2c2.1,4.6,5.2,9.1,8.8,12.7c3.6,3.7,8.1,6.5,13,7.6c5,1.1,10.3,0.2,15.2-1.8c4.9-1.9,9.4-5,13.7-8.3
			c-3.8,3.9-8.1,7.3-13,9.8c-4.9,2.4-10.7,3.8-16.4,2.9c-5.7-0.8-10.8-4-14.9-7.9c-4.1-4-7.2-8.6-9.7-13.7v-0.1v-0.2
			c-1.3-5.1-3.6-10-7.3-13.6c-3.6-3.7-8.6-5.8-13.8-6.8c-5.3-0.9-10.8-0.6-16.1,0.3C232.9,1409.5,227.6,1411,222.4,1412.8z,M248.6,1453.4c11.7-7.3,23.6-14,35.3-21.1c5.9-3.5,11.6-7.2,17.2-11.1c2.8-2,5.5-4,8-6.3
			c2.4-2.2,5.1-4.8,5.2-8.3c0.5,1.7-0.1,3.6-0.9,5.1c-0.8,1.6-1.8,3-3,4.4c-2.3,2.7-4.9,5.1-7.5,7.3c-5.3,4.5-11.1,8.3-17,11.9
			C274,1442.4,261.6,1448.6,248.6,1453.4z"/>


</g>
<g>
	<path id="svgid13" class="st0" d="M570.3,341.8c19.2-15.5,82.1-8.6,93.5,5.4s8.6,92.1-10.5,109.9s-104.6,6.4-121.4-16.9
		S553.2,355.6,570.3,341.8z,M603.1,396.3c-13.2,10-45.6,34.4-61.7,44c-6.2,3.7-7.7,2.1-7.7,2.1s83-61,65.1-47.5s63.5-49.7,63.5-49.7
		s0.3,4.2-3,7.4C647.8,363.7,617.3,385.6,603.1,396.3z" />

</g>
<g>
	<path id="svgid12" class="st0" d="M716.3,285.1c5.2,19.8,35.6,66.7,73.7,60.3s70.5-78,65.7-94.3s-49.7-39.7-89.4-29.3
		C745.1,227.4,712,268.7,716.3,285.1z,M789.5,272.7c-14.3,3.7-49.1,12.8-65.7,15c-6.4,0.9-7.1-1.2-7.1-1.2s89-22,69.7-16.9s69-19.5,69-19.5
		s-1,3.9-4.8,5.5C837.3,261,804.8,268.6,789.5,272.7z"/>

</g>
<g>
	<path id="svgid11" class="st0" d="M902.6,221.9c-2.5,23.2,19.3,27.9,31.5,50.8s27.2,22,46.2,24.2s60.7-28.7,77.6-38.6
		s35.7-35.1,9.4-57.9c-26.2-22.7-73.3-28.3-96.2-24.1C948.2,180.5,904.4,204.7,902.6,221.9z,M994.2,228.7c-18.3,0.2-63,0.6-83.6-1.3c-8-0.7-8.2-2.9-8.2-2.9s113.8,0.2,89,0.5c-24.7,0.2,89-2.2,89-2.2
		s-2.4,3.6-7.5,4.2C1055.3,229,1013.9,228.5,994.2,228.7z"/>
</g>
<g>
	<path id="svgid17" class="st0" d="M217.3,1131.9c-20.1,24.9-27.3,126,27.3,151.3c54.7,25.3,116-4.7,133.3-40.7
		c17.3-36,14.7-107.3,6-130.7c-8.7-23.3-37.3-30-59.3-30S248,1093.9,217.3,1131.9z,M257.2,1175.4c3.5-1.9,7.3-3.2,11.2-4.2c3.9-0.9,8-1.4,12.1-0.9c4.1,0.4,8.2,2.1,11.3,5.1
			c3.1,3,4.9,6.9,6,10.9l-0.1-0.2c1.5,3.3,3.7,6.5,6.3,9.1c2.6,2.6,5.8,4.6,9.4,5.4s7.4,0.2,10.9-1.3c3.5-1.4,6.8-3.6,9.8-5.9
			c-2.7,2.8-5.8,5.2-9.3,7.1c-3.5,1.8-7.7,2.7-11.7,2.1c-4.1-0.6-7.8-2.9-10.7-5.6c-2.9-2.8-5.2-6.1-6.9-9.8v-0.1v-0.1
			c-0.9-3.7-2.6-7.2-5.2-9.8c-2.6-2.7-6.2-4.2-9.9-4.8c-3.8-0.7-7.7-0.4-11.6,0.2C264.7,1173,260.9,1174.1,257.2,1175.4z,M276,1204.5c8.4-5.2,16.9-10.1,25.3-15.2c4.2-2.5,8.3-5.1,12.3-7.9c2-1.4,3.9-2.9,5.7-4.5
			c1.7-1.6,3.6-3.4,3.7-5.9c0.3,1.2-0.1,2.5-0.7,3.7c-0.6,1.1-1.3,2.2-2.1,3.2c-1.6,1.9-3.5,3.6-5.4,5.2c-3.8,3.2-8,5.9-12.2,8.5
			C294.1,1196.6,285.3,1201.1,276,1204.5z"/>
</g>
<g>
	<path id="svgid16" class="st0" d="M248.5,889.4c-8.6,34-6.7,82.7,0,108s17.3,36.8,61.3,39.4s102.7,8.6,120.7-32.7s22.7-88,22.7-112
		s-16-62-61.3-59.3C346.5,835.4,259.9,844.8,248.5,889.4z,M310.1,924c3.5-1.9,7.2-3.2,11-4.2c3.9-0.9,7.9-1.4,11.9-0.9c4,0.4,8.1,2.1,11.2,5s4.9,6.8,5.9,10.7l-0.1-0.2
			c1.5,3.3,3.6,6.4,6.2,9c2.5,2.6,5.7,4.6,9.2,5.3c3.5,0.8,7.3,0.2,10.7-1.3c3.5-1.4,6.7-3.5,9.7-5.8c-2.7,2.8-5.7,5.2-9.2,7
			c-3.5,1.7-7.5,2.7-11.6,2c-4-0.6-7.7-2.8-10.5-5.6c-2.9-2.8-5.1-6-6.8-9.7v-0.1v-0.1c-0.9-3.6-2.5-7.1-5.1-9.6
			c-2.6-2.6-6.1-4.1-9.8-4.8c-3.7-0.6-7.6-0.4-11.4,0.2C317.6,921.6,313.8,922.7,310.1,924z,M328.7,952.6c8.3-5.2,16.7-9.9,25-14.9c4.1-2.5,8.2-5.1,12.1-7.8c1.9-1.4,3.9-2.8,5.6-4.4
			c1.7-1.6,3.6-3.4,3.7-5.8c0.3,1.2-0.1,2.5-0.7,3.6s-1.3,2.1-2.1,3.1c-1.6,1.9-3.4,3.6-5.3,5.1c-3.8,3.1-7.9,5.8-12,8.4
			C346.6,944.9,337.8,949.3,328.7,952.6z"/>
</g>
<g>
	<path id="svgid15" class="st0" d="M393.2,785.7c31.6,5.1,113.8,13.4,125.5-40s-35.7-79.5-69-86.8s-51-7.1-76,19.5
		s-25.4,40.8-25.8,48.9C347.6,735.4,373.6,782.5,393.2,785.7z,M420.5,751.5c-0.8-2.9-1.2-5.8-1.3-8.8c0-3,0.3-6,1.3-9c1-2.9,2.9-5.7,5.5-7.4c2.7-1.8,5.8-2.5,8.9-2.6h-0.1
			c2.6-0.6,5.3-1.7,7.7-3.1c2.3-1.5,4.3-3.5,5.5-5.9c1.2-2.5,1.3-5.4,0.8-8.1c-0.4-2.8-1.5-5.5-2.7-8.1c1.6,2.4,2.9,5.1,3.7,7.9
			c0.7,2.9,0.8,6-0.4,8.9c-1.1,2.9-3.3,5.2-5.8,6.9s-5.3,2.8-8.3,3.5h-0.1h-0.1c-2.8,0.1-5.7,0.7-8,2.2c-2.4,1.5-4,3.8-5.1,6.4
			c-1.1,2.6-1.6,5.5-1.7,8.5C419.9,745.6,420.1,748.5,420.5,751.5z,M444.7,742.4c-2.5-7-4.6-14-7-20.9c-1.2-3.5-2.4-6.9-3.8-10.3c-0.7-1.7-1.5-3.3-2.4-4.9
			c-0.9-1.5-1.9-3.2-3.7-3.7c0.9,0,1.8,0.5,2.6,1.1c0.7,0.6,1.4,1.3,2,2c1.1,1.5,2.1,3.1,2.9,4.8c1.7,3.3,3,6.8,4.3,10.3
			C441.9,727.9,443.7,735.1,444.7,742.4z"/>
</g>
<g>
	<path id="svgid14" class="st0" d="M444.7,590.4c24.2,19.9,95.4,68.2,136.6,33.1c41.2-35.1-5.4-93-28.5-120.7
		c-23.1-27.8-81.1-26.4-102.2-6.1C429.5,517.1,430.3,578.6,444.7,590.4z,M488.8,572.7c0.9-2.8,2.3-5.5,3.8-8.1c1.6-2.5,3.6-4.9,6-6.8c2.4-1.9,5.5-3.1,8.7-3.1s6.2,1.2,8.9,2.7
			l-0.1-0.1c2.5,1,5.4,1.6,8.1,1.6c2.8,0.1,5.5-0.5,7.8-1.9s4.1-3.7,5.2-6.3c1.2-2.6,1.8-5.4,2.2-8.3c0,2.9-0.4,5.8-1.4,8.6
			s-2.7,5.4-5.2,7.2s-5.7,2.5-8.7,2.5s-6-0.6-8.8-1.7h-0.1h-0.1c-2.4-1.5-5.1-2.5-7.9-2.6s-5.5,0.9-7.8,2.5
			c-2.4,1.6-4.4,3.8-6.1,6.1C491.6,567.5,490.1,570,488.8,572.7z,M514,578.5c1.8-7.2,3.9-14.2,5.7-21.3c0.9-3.5,1.8-7.1,2.5-10.6c0.3-1.8,0.6-3.6,0.7-5.4
			c0.1-1.8,0.2-3.7-1.1-5.1c0.8,0.5,1.3,1.4,1.5,2.3c0.3,0.9,0.4,1.9,0.5,2.8c0.1,1.9,0,3.8-0.2,5.6c-0.4,3.7-1.2,7.3-2.1,10.9
			C519.6,564.9,517.2,571.9,514,578.5z"/>

</g>
<g>
	<path id="svgid28" class="st0" d="M1966.5,1374c2.4,38,14.4,129.1-52,156c-74,30-109-41.5-114-49c-8-12-13-85-6-108
		c4.4-14.4,42-53,63-54S1965,1349.8,1966.5,1374z,M1933.6,1411.6c-4.9-2.6-10.2-4.5-15.6-5.9c-5.4-1.3-11.1-1.9-16.9-1.3c-5.7,0.6-11.5,2.9-15.8,7
			s-6.9,9.7-8.3,15.2l0.1-0.2c-2.1,4.6-5.2,9.1-8.8,12.7c-3.6,3.7-8.1,6.5-13,7.6c-5,1.1-10.3,0.2-15.2-1.8c-4.9-1.9-9.4-5-13.7-8.3
			c3.8,3.9,8.1,7.3,13,9.8c4.9,2.4,10.7,3.8,16.4,2.9c5.7-0.8,10.8-4,14.9-7.9c4.1-4,7.2-8.6,9.7-13.7v-0.1v-0.2
			c1.3-5.1,3.6-10,7.3-13.6c3.6-3.7,8.6-5.8,13.8-6.8c5.3-0.9,10.8-0.6,16.1,0.3C1923,1408.2,1928.4,1409.7,1933.6,1411.6z,M1907.3,1452.2c-11.7-7.3-23.6-14-35.3-21.1c-5.9-3.5-11.6-7.2-17.2-11.1c-2.8-2-5.5-4-8-6.3
			c-2.4-2.2-5.1-4.8-5.2-8.3c-0.5,1.7,0.1,3.6,0.9,5.1c0.8,1.6,1.8,3,3,4.4c2.3,2.7,4.9,5.1,7.5,7.3c5.3,4.5,11.1,8.3,17,11.9
			C1882,1441.2,1894.4,1447.4,1907.3,1452.2z"/>
</g>
<g>
	<path id="svgid23" class="st0" d="M1597.5,345.4c-17.9-17-81.1-15.3-93.6-2.3s-16.2,91.1,1.5,110.4c17.6,19.3,103.8,15,122.4-6.8
		S1613.5,360.6,1597.5,345.4z,M1560.4,397.1c12.4,11.1,42.6,38,57.9,48.9c5.9,4.2,7.5,2.7,7.5,2.7s-77.7-67.7-61-52.7
		c16.7,14.9-59.2-54.7-59.2-54.7s-0.7,4.1,2.4,7.6C1518.5,360.8,1547.1,385.2,1560.4,397.1z"/>

</g>
<g>
	<path id="svgid22" class="st0" d="M1456.8,286.2c-5.5,19.7-36.7,66.1-74.7,59.1s-69.3-79.1-64.2-95.3s50.3-38.8,89.8-27.8
		C1428.9,228.1,1461.4,269.9,1456.8,286.2z,M1383.8,272.6c14.2,4,48.9,13.6,65.4,16.1c6.4,1,7.1-1.1,7.1-1.1s-88.6-23.4-69.4-18s-68.7-20.6-68.7-20.6
		s1,3.9,4.8,5.6C1336.1,260.2,1368.6,268.3,1383.8,272.6z"/>
</g>
<g>
	<path id="svgid21" class="st0" d="M1282.3,222.5c2.5,23.2-19.3,27.9-31.5,50.8s-27.2,22-46.2,24.2s-60.7-28.7-77.6-38.6
		s-35.7-35.1-9.5-57.9s73.3-28.3,96.2-24.1C1236.7,181.1,1280.5,205.3,1282.3,222.5z,M1190.7,229.4c18.3,0.2,63,0.5,83.6-1.3c8-0.7,8.2-2.9,8.2-2.9s-113.8,0.3-89,0.5c24.7,0.2-89-2.2-89-2.2
		s2.4,3.6,7.5,4.2C1129.5,229.7,1171,229.2,1190.7,229.4z"/>
</g>
<g>
	<path id="svgid27" class="st0" d="M1938.6,1131.1c20.1,24.9,27.3,126-27.3,151.3c-54.7,25.3-116-4.7-133.3-40.7
		s-14.7-107.3-6-130.7c8.7-23.3,37.3-30,59.3-30S1908,1093.1,1938.6,1131.1z,M1898.8,1174.6c-3.5-1.9-7.3-3.2-11.2-4.2c-3.9-0.9-8-1.4-12.1-0.9c-4.1,0.4-8.2,2.1-11.3,5.1
			c-3.1,3-4.9,6.9-6,10.9l0.1-0.2c-1.5,3.3-3.7,6.5-6.3,9.1c-2.6,2.6-5.8,4.6-9.4,5.4s-7.4,0.2-10.9-1.3c-3.5-1.4-6.8-3.6-9.8-5.9
			c2.7,2.8,5.8,5.2,9.3,7.1c3.5,1.8,7.7,2.7,11.7,2.1c4.1-0.6,7.8-2.9,10.7-5.6c2.9-2.8,5.2-6.1,6.9-9.8v-0.1v-0.1
			c0.9-3.7,2.6-7.2,5.2-9.8c2.6-2.7,6.2-4.2,9.9-4.8c3.8-0.7,7.7-0.4,11.6,0.2C1891.2,1172.1,1895.1,1173.2,1898.8,1174.6z,M1880,1203.6c-8.4-5.2-16.9-10.1-25.3-15.2c-4.2-2.5-8.3-5.1-12.3-7.9c-2-1.4-3.9-2.9-5.7-4.5
			c-1.7-1.6-3.6-3.4-3.7-5.9c-0.3,1.2,0.1,2.5,0.7,3.7c0.6,1.1,1.3,2.2,2.1,3.2c1.6,1.9,3.5,3.6,5.4,5.2c3.8,3.2,8,5.9,12.2,8.5
			C1861.8,1195.7,1870.7,1200.2,1880,1203.6z"/>
</g>
<g>
	<path id="svgid26" class="st0" d="M1925.8,888.6c8.6,34,6.7,82.7,0,108s-17.3,36.8-61.3,39.4s-102.7,8.6-120.7-32.7
		s-22.7-88-22.7-112s16-62,61.3-59.3C1827.8,834.6,1914.5,843.9,1925.8,888.6z,M1864.9,923.1c-3.5-1.9-7.2-3.2-11-4.2c-3.9-0.9-7.9-1.4-11.9-0.9c-4,0.4-8.1,2.1-11.2,5s-4.9,6.8-5.9,10.7
			l0.1-0.2c-1.5,3.3-3.6,6.4-6.2,9c-2.5,2.6-5.7,4.6-9.2,5.3c-3.5,0.8-7.3,0.2-10.7-1.3c-3.5-1.4-6.7-3.5-9.7-5.8
			c2.7,2.8,5.7,5.2,9.2,7c3.5,1.7,7.5,2.7,11.6,2c4-0.6,7.7-2.8,10.5-5.6c2.9-2.8,5.1-6,6.8-9.7v-0.1v-0.1c0.9-3.6,2.5-7.1,5.1-9.6
			c2.6-2.6,6.1-4.1,9.8-4.8c3.7-0.6,7.6-0.4,11.4,0.2C1857.5,920.7,1861.3,921.7,1864.9,923.1z,M1846.4,951.7c-8.3-5.2-16.7-9.9-25-14.9c-4.1-2.5-8.2-5.1-12.1-7.8c-1.9-1.4-3.9-2.8-5.6-4.4
			c-1.7-1.6-3.6-3.4-3.7-5.8c-0.3,1.2,0.1,2.5,0.7,3.6s1.3,2.1,2.1,3.1c1.6,1.9,3.4,3.6,5.3,5.1c3.8,3.1,7.9,5.8,12,8.4
			C1828.5,944,1837.2,948.3,1846.4,951.7z"/>
</g>
<g>
	<path id="svgid25" class="st0" d="M1817.1,782.9c-31.4,6.3-113.2,17.9-127-35s32.6-80.9,65.5-89.5s50.7-9.1,76.7,16.5
		s27,39.8,27.7,47.9C1860.6,730.9,1836.4,779,1817.1,782.9z,M1788.4,749.8c0.7-2.9,0.9-5.9,0.9-8.9c-0.1-3-0.5-6-1.6-8.9s-3.1-5.5-5.8-7.2c-2.7-1.7-5.9-2.3-9-2.3h0.1
			c-2.7-0.5-5.4-1.4-7.8-2.8c-2.4-1.4-4.4-3.3-5.7-5.7c-1.3-2.4-1.5-5.3-1.1-8.1c0.3-2.8,1.3-5.6,2.4-8.2c-1.5,2.5-2.7,5.2-3.3,8.1
			c-0.6,2.9-0.5,6,0.7,8.9s3.5,5.1,6.1,6.7c2.6,1.6,5.4,2.6,8.4,3.2h0.1h0.1c2.8,0,5.7,0.5,8,1.9c2.4,1.4,4.2,3.7,5.4,6.2
			c1.2,2.6,1.8,5.5,2,8.4C1788.7,743.9,1788.7,746.9,1788.4,749.8z,M1763.9,741.7c2.2-7.1,4.1-14.1,6.2-21.1c1-3.5,2.1-7,3.4-10.4c0.6-1.7,1.3-3.4,2.2-5
			c0.8-1.5,1.8-3.3,3.6-3.8c-0.9,0-1.8,0.6-2.5,1.2c-0.7,0.6-1.3,1.4-1.9,2.1c-1.1,1.5-2,3.2-2.7,4.9c-1.6,3.4-2.8,6.9-3.9,10.4
			C1766.1,727.1,1764.6,734.4,1763.9,741.7z"/>
</g>
<g>
	<path id="svgid24" class="st0" d="M1743.6,605.4c-29.4,10.9-112.5,33.1-139.9-13.6c-27.4-46.7,35.6-86,66.5-104.7
		c30.9-18.6,85.3,1.7,98.5,27.8S1761.1,598.9,1743.6,605.4z,M1707.8,574.2c0.1-3-0.3-6-1-8.9s-1.8-5.8-3.5-8.4c-1.7-2.6-4.2-4.8-7.2-5.8c-3-1.1-6.3-1-9.3-0.3h0.1
			c-2.7,0.1-5.6-0.3-8.2-1.1s-5-2.3-6.8-4.4c-1.7-2.1-2.6-4.9-2.8-7.7c-0.3-2.8,0.1-5.7,0.6-8.6c-0.9,2.7-1.5,5.6-1.6,8.6
			c0,2.9,0.8,6,2.6,8.5c1.8,2.5,4.5,4.2,7.4,5.2s5.8,1.4,8.9,1.3h0.1h0.1c2.8-0.6,5.7-0.7,8.3,0.2c2.6,0.8,4.9,2.7,6.6,5
			s2.9,5,3.8,7.8C1706.9,568.3,1707.4,571.2,1707.8,574.2z,M1682.1,571.4c0.7-7.4,1-14.7,1.6-22c0.3-3.6,0.6-7.3,1.1-10.9c0.3-1.8,0.6-3.6,1.1-5.3s1.1-3.6,2.7-4.5
			c-0.9,0.2-1.7,0.9-2.2,1.7c-0.6,0.8-1,1.6-1.4,2.5c-0.7,1.7-1.2,3.5-1.7,5.4c-0.8,3.6-1.3,7.3-1.6,11
			C1681.2,556.7,1681.2,564.1,1682.1,571.4z"/>
</g>
<g>
	<path id="svgid42" class="st0" d="M876.1,2902.7c22.5,2.8,62.5,62.7,61.8,77.4s-46.8,59.7-80.8,56.9c-33.9-2.8-53.2-68.8-51.2-83
		C807.9,2939.8,856.2,2900.2,876.1,2902.7z,M805.8,2954.9c14.6,7.1,132.1,25,132.1,25.2c0,0.3-0.3,2-3.2,1.7c-5.1-0.5-56.5-9-66.5-10.9
		c-14.2-2.7-55.6-10.7-60-13.1C805,2956.1,805.8,2954.9,805.8,2954.9z"/>
</g>
<g>
	<path id="svgid43" class="st0" d="M740.4,2818.2c19.2,9.8,47.9,76.6,32.7,108.7c-15.2,32.1-75.9,48.7-103.1,38.3
		s-33.5-89.5-25.3-107.7S718.6,2807.1,740.4,2818.2z,M645.3,2856.2c12.7,12,127.2,71.8,127.1,72.1c-0.1,0.3-1,1.8-3.8,0.5c-5.1-2.4-54.9-29.1-64.5-34.6
		c-13.6-7.7-53.5-30.4-57.2-34.3C644.1,2857.1,645.3,2856.2,645.3,2856.2z"/>
</g>
<g>
	<path id="svgid41" class="st0" d="M1029.6,2916.8c29.4-2.8,52.5,63.1,51.4,76.6s-30.7,55.1-57.7,53.8c-19-0.9-48.7-49.7-48.9-65.1
		C974.2,2966.7,1008.5,2918.8,1029.6,2916.8z,M974.4,2981.4c12.2,5.3,106.8,9.1,106.8,9.4s-0.1,2.1-2.4,2.1c-4.1,0.1-45.5-2.2-53.6-3c-11.5-1-45-4-48.6-5.9
		C973.9,2982.7,974.4,2981.4,974.4,2981.4z"/>
</g>
<g>
	<path id="svgid48" class="st0" d="M176.9,1816.7c0.1,25.3-0.7,56.7,4,71.3s11.8,35,85.8,35c68.7,0,92.5-7,97.5-45
		c3.6-27.5-0.7-77.3-14.7-95.3s-32-31.3-84.7-28.7S176.8,1781.4,176.9,1816.7z,M219.2,1828.5c4.3-2.3,9-4,13.8-5.2c4.8-1.1,9.9-1.7,14.9-1.1c5.1,0.5,10.2,2.6,14,6.3
			c3.8,3.7,6.1,8.6,7.4,13.5l-0.1-0.2c1.9,4.1,4.6,8,7.8,11.3c3.2,3.3,7.1,5.7,11.6,6.7c4.4,1,9.1,0.2,13.4-1.6
			c4.4-1.7,8.4-4.4,12.2-7.3c-3.3,3.5-7.2,6.5-11.5,8.7c-4.4,2.2-9.5,3.4-14.5,2.6c-5.1-0.7-9.6-3.5-13.2-7s-6.4-7.6-8.6-12.2v-0.1
			v-0.1c-1.2-4.5-3.2-8.9-6.4-12.1c-3.2-3.3-7.6-5.2-12.2-6c-4.7-0.8-9.5-0.6-14.3,0.2C228.6,1825.5,223.8,1826.8,219.2,1828.5z,M242.5,1864.4c10.4-6.5,21-12.4,31.3-18.7c5.2-3.1,10.3-6.3,15.2-9.8c2.4-1.8,4.9-3.5,7.1-5.6
			c2.1-2,4.5-4.2,4.6-7.3c0.4,1.5-0.1,3.1-0.8,4.5c-0.7,1.4-1.6,2.7-2.6,3.9c-2,2.4-4.3,4.5-6.7,6.5c-4.7,3.9-9.9,7.3-15.1,10.5
			C264.9,1854.7,254,1860.2,242.5,1864.4z"/>
</g>
<g>
	<path id="svgid47" class="st0" d="M201.5,2041c-8.9,32.6-10.7,86.7,28,108.7s116,18,148-3.3c23.5-15.7,18-70.7,12.7-94
		s-32-64.7-68.7-67.7S216.9,1985,201.5,2041z,M246,2061.4c4.3-2.3,9-4,13.8-5.2c4.8-1.1,9.9-1.7,14.9-1.1c5.1,0.5,10.2,2.6,14,6.3s6.1,8.6,7.4,13.5
			l-0.1-0.2c1.9,4.1,4.6,8,7.8,11.3c3.2,3.3,7.1,5.7,11.6,6.7c4.4,1,9.1,0.2,13.4-1.6c4.4-1.7,8.4-4.4,12.2-7.3
			c-3.3,3.5-7.2,6.5-11.5,8.7c-4.4,2.2-9.5,3.4-14.5,2.6c-5.1-0.7-9.6-3.5-13.2-7s-6.4-7.6-8.6-12.2v-0.1v-0.1
			c-1.2-4.5-3.2-8.9-6.4-12.1c-3.2-3.3-7.6-5.2-12.2-6c-4.7-0.8-9.5-0.6-14.3,0.2C255.4,2058.4,250.6,2059.8,246,2061.4z,M269.3,2097.4c10.4-6.5,21-12.4,31.3-18.7c5.2-3.1,10.3-6.4,15.2-9.8c2.4-1.8,4.9-3.5,7.1-5.6
			c2.1-2,4.5-4.2,4.6-7.3c0.4,1.5-0.1,3.1-0.8,4.5c-0.7,1.4-1.6,2.7-2.6,3.9c-2,2.4-4.3,4.5-6.7,6.5c-4.7,3.9-9.9,7.3-15.1,10.5
			C291.7,2087.6,280.8,2093.1,269.3,2097.4z"/>
</g>
<g>
	<path id="svgid46" class="st0" d="M264.9,2300.1c-4.3,29.2-7.3,66.7,4.7,84.7s32,39.3,94,35.3s90.6-30.8,93.3-64.7
		c2.6-32.7,6-84.9-26.7-104.4c-32.7-19.6-52.7-22.9-98.7-21.6S272.2,2250.8,264.9,2300.1z,M312.2,2310.2c4.3-2.3,9-4,13.8-5.2c4.8-1.1,9.9-1.7,14.9-1.1c5.1,0.5,10.2,2.6,14,6.3s6.1,8.6,7.4,13.5
			l-0.1-0.2c1.9,4.1,4.6,8,7.8,11.3c3.2,3.3,7.1,5.7,11.6,6.7c4.4,1,9.1,0.2,13.4-1.6c4.4-1.7,8.4-4.4,12.2-7.3
			c-3.3,3.5-7.2,6.5-11.5,8.7c-4.4,2.2-9.5,3.4-14.5,2.6c-5.1-0.7-9.6-3.5-13.2-7s-6.4-7.6-8.6-12.2v-0.1v-0.1
			c-1.2-4.5-3.2-8.9-6.4-12.1c-3.2-3.3-7.6-5.2-12.2-6c-4.7-0.8-9.5-0.6-14.3,0.2C321.6,2307.2,316.9,2308.6,312.2,2310.2z,M335.5,2346.2c10.4-6.5,21-12.4,31.3-18.7c5.2-3.1,10.3-6.4,15.2-9.8c2.4-1.8,4.9-3.6,7.1-5.6
			c2.1-2,4.5-4.2,4.6-7.3c0.4,1.5-0.1,3.1-0.8,4.5c-0.7,1.4-1.6,2.7-2.6,3.9c-2,2.4-4.3,4.5-6.7,6.5c-4.7,3.9-9.9,7.3-15.1,10.5
			C357.9,2336.4,347,2342,335.5,2346.2z"/>
</g>
<g>
	<path id="svgid45" class="st0" d="M390.1,2530.5c-9.1,15.4-34,35.5-15,61s49,45,93.5,33.5s57.1-39.7,53-67
		c-2.5-16.7-14-15.5-18.5-33.5s-11-54.5-56-53.5S396.1,2520.4,390.1,2530.5z,M412.1,2550c3-1.6,6.3-2.8,9.7-3.7c3.4-0.8,6.9-1.2,10.4-0.8c3.5,0.3,7.1,1.8,9.8,4.4c2.7,2.6,4.3,6,5.2,9.4
			l-0.1-0.2c1.3,2.9,3.2,5.6,5.4,7.9c2.2,2.3,5,4,8.1,4.7s6.4,0.2,9.4-1.1c3.1-1.2,5.8-3.1,8.5-5.1c-2.3,2.4-5,4.5-8.1,6.1
			c-3,1.5-6.6,2.4-10.1,1.8c-3.5-0.5-6.7-2.5-9.2-4.9c-2.5-2.5-4.5-5.3-6-8.5v-0.1v-0.1c-0.8-3.2-2.2-6.2-4.5-8.4
			c-2.2-2.3-5.3-3.6-8.5-4.2c-3.3-0.6-6.7-0.4-10,0.2C418.6,2547.9,415.3,2548.8,412.1,2550z,M428.3,2575.1c7.3-4.5,14.6-8.7,21.9-13.1c3.6-2.2,7.2-4.4,10.6-6.8c1.7-1.2,3.4-2.5,4.9-3.9s3.1-3,3.2-5.1
			c0.3,1.1-0.1,2.2-0.6,3.2s-1.1,1.9-1.8,2.7c-1.4,1.7-3,3.1-4.7,4.5c-3.3,2.8-6.9,5.1-10.5,7.4
			C444,2568.3,436.3,2572.1,428.3,2575.1z"/>
</g>
<g>
	<path id="svgid44" class="st0" d="M502.6,2713.8c-0.7,31.2-7.9,52.5,21.3,73.6s37.4,24.7,59.2,21.5c21.9-3.2,62.4-32,63.5-61.5
		c1.1-29.4-27.9-85-61.6-102.4C551.4,2627.7,503.6,2669.3,502.6,2713.8z,M536.7,2725.8c2.9-1.8,6.2-3.1,9.5-4.2c3.3-1,6.8-1.6,10.4-1.3c3.6,0.2,7.2,1.4,10,3.8
			c2.8,2.4,4.6,5.7,5.7,9.1l-0.1-0.1c1.5,2.8,3.5,5.4,5.8,7.6c2.3,2.2,5.2,3.7,8.3,4.2s6.4-0.2,9.3-1.6c3-1.4,5.7-3.4,8.2-5.6
			c-2.2,2.5-4.8,4.8-7.7,6.5c-3,1.7-6.5,2.7-10,2.3c-3.6-0.3-6.8-2.1-9.5-4.4c-2.6-2.3-4.8-5-6.4-8.2v-0.1v-0.1
			c-1-3.1-2.5-6.1-4.9-8.2c-2.4-2.2-5.5-3.3-8.8-3.7s-6.7,0-10,0.7C543.1,2723.3,539.9,2724.4,536.7,2725.8z,M554.3,2750c7-4.9,14.2-9.5,21.1-14.2c3.5-2.4,7-4.8,10.3-7.4c1.6-1.3,3.3-2.7,4.7-4.2s3-3.1,2.9-5.3
			c0.3,1,0,2.2-0.4,3.2s-1,1.9-1.7,2.8c-1.3,1.7-2.8,3.3-4.4,4.8c-3.2,2.9-6.6,5.5-10.1,7.9C569.6,2742.3,562.1,2746.6,554.3,2750z"/>

</g>
<g>
	<path id="svgid32" class="st0" d="M1325.9,2903.4c-22.6,2.1-64.5,60.6-64.3,75.3s44.8,61.2,78.8,59.5s55.5-67.1,53.9-81.3
		C1392.9,2942.8,1345.8,2901.6,1325.9,2903.4z,M1394.5,2957.9c-14.9,6.6-132.8,20.6-132.9,20.9c0,0.3,0.3,2.1,3.1,1.8c5.1-0.4,56.7-7.1,66.8-8.7
		c14.2-2.3,55.9-8.9,60.4-11.1C1395.2,2959.2,1394.5,2957.9,1394.5,2957.9z"/>

</g>
<g>
	<path id="svgid33" class="st0" d="M1471.4,2813.4c-18.7,10.6-44.5,78.7-27.9,110s78,45.4,104.7,33.7
		c26.7-11.6,29.5-90.9,20.6-108.8C1559.9,2830.6,1492.7,2801.4,1471.4,2813.4z,M1568.1,2847.2c-12.2,12.6-123.9,77.3-123.8,77.6s1.1,1.8,3.8,0.3c5-2.6,53.6-31.5,62.9-37.4
		c13.3-8.3,52.1-32.7,55.6-36.7C1569.3,2848,1568.1,2847.2,1568.1,2847.2z"/>

</g>
<g>
	<path id="svgid31" class="st0" d="M1170.2,2917.8c-29.4-3.1-53.3,62.4-52.3,75.9s30,55.4,57,54.5c19-0.7,49.3-49.1,49.7-64.5
		C1225.1,2968.4,1191.3,2920.1,1170.2,2917.8z,M1224.7,2983.1c-12.3,5.1-106.9,7.8-106.9,8.1s0.1,2.1,2.4,2.1c4.1,0.1,45.5-1.7,53.6-2.3
		c11.5-0.9,45-3.5,48.7-5.3C1225.1,2984.4,1224.7,2983.1,1224.7,2983.1z"/>

</g>
<g>
	<path id="svgid38" class="st0" d="M1994.9,1813.3c-0.1,25.3,0.7,56.7-4,71.3c-4.7,14.7-11.8,35-85.8,35c-68.7,0-92.5-7-97.5-45
		c-3.6-27.5,0.7-77.3,14.7-95.3s32-31.3,84.7-28.7C1959.6,1753.3,1995,1778,1994.9,1813.3z,M1952.6,1825.1c-4.3-2.3-9-4-13.8-5.2c-4.8-1.1-9.9-1.7-14.9-1.1c-5.1,0.5-10.2,2.6-14,6.3
			c-3.8,3.7-6.1,8.6-7.4,13.5l0.1-0.2c-1.9,4.1-4.6,8-7.8,11.3c-3.2,3.3-7.1,5.7-11.6,6.7c-4.4,1-9.1,0.2-13.4-1.6
			c-4.4-1.7-8.4-4.4-12.2-7.3c3.3,3.5,7.2,6.5,11.5,8.7c4.4,2.2,9.5,3.4,14.5,2.6c5.1-0.7,9.6-3.5,13.2-7s6.4-7.6,8.6-12.2v-0.1
			v-0.1c1.2-4.5,3.2-8.9,6.4-12.1c3.2-3.3,7.6-5.2,12.2-6c4.7-0.8,9.5-0.6,14.3,0.2C1943.3,1822.1,1948,1823.4,1952.6,1825.1z,M1929.3,1861c-10.4-6.5-21-12.4-31.3-18.7c-5.2-3.1-10.3-6.3-15.2-9.8c-2.4-1.8-4.9-3.5-7.1-5.6
			c-2.1-2-4.5-4.2-4.6-7.3c-0.4,1.5,0.1,3.1,0.8,4.5c0.7,1.4,1.6,2.7,2.6,3.9c2,2.4,4.3,4.5,6.7,6.5c4.7,3.9,9.9,7.3,15.1,10.5
			C1906.9,1851.3,1917.8,1856.8,1929.3,1861z"/>
</g>
<g>
	<path id="svgid37" class="st0" d="M1968.4,2035.9c8.9,32.6,10.7,86.7-28,108.7s-116,18-148-3.3c-23.5-15.7-18-70.7-12.7-94
		s32-64.7,68.7-67.7C1885,1976.6,1953,1979.9,1968.4,2035.9z,M1923.9,2056.4c-4.3-2.3-9-4-13.8-5.2c-4.8-1.1-9.9-1.7-14.9-1.1c-5.1,0.5-10.2,2.6-14,6.3s-6.1,8.6-7.4,13.5
			l0.1-0.2c-1.9,4.1-4.6,8-7.8,11.3c-3.2,3.3-7.1,5.7-11.6,6.7c-4.4,1-9.1,0.2-13.4-1.6c-4.4-1.7-8.4-4.4-12.2-7.3
			c3.3,3.5,7.2,6.5,11.5,8.7c4.4,2.2,9.5,3.4,14.5,2.6c5.1-0.7,9.6-3.5,13.2-7s6.4-7.6,8.6-12.2v-0.1v-0.1c1.2-4.5,3.2-8.9,6.4-12.1
			c3.2-3.3,7.6-5.2,12.2-6c4.7-0.8,9.5-0.6,14.3,0.2C1914.5,2053.4,1919.3,2054.7,1923.9,2056.4z,M1900.6,2092.3c-10.4-6.5-21-12.4-31.3-18.7c-5.2-3.1-10.3-6.3-15.2-9.8c-2.4-1.8-4.9-3.5-7.1-5.6
			c-2.1-2-4.5-4.2-4.6-7.3c-0.4,1.5,0.1,3.1,0.8,4.5c0.7,1.4,1.6,2.7,2.6,3.9c2,2.4,4.3,4.5,6.7,6.5c4.7,3.9,9.9,7.3,15.1,10.5
			C1878.2,2082.6,1889.1,2088.1,1900.6,2092.3z"/>
</g>
<g>
	<path id="svgid36" class="st0" d="M1908.8,2296.2c4.3,29.2,7.3,66.7-4.7,84.7s-32,39.3-94,35.3s-90.6-30.8-93.3-64.7
		c-2.6-32.7-6-84.9,26.7-104.4s52.7-22.9,98.7-21.6C1888.1,2226.9,1901.4,2246.9,1908.8,2296.2z,M1861.4,2306.3c-4.3-2.3-9-4-13.8-5.2c-4.8-1.1-9.9-1.7-14.9-1.1c-5.1,0.5-10.2,2.6-14,6.3s-6.1,8.6-7.4,13.5
			l0.1-0.2c-1.9,4.1-4.6,8-7.8,11.3c-3.2,3.3-7.1,5.7-11.6,6.7c-4.4,1-9.1,0.2-13.4-1.6c-4.4-1.7-8.4-4.4-12.2-7.3
			c3.3,3.5,7.2,6.5,11.5,8.7c4.4,2.2,9.5,3.4,14.5,2.6c5.1-0.7,9.6-3.5,13.2-7s6.4-7.6,8.6-12.2v-0.1v-0.1c1.2-4.5,3.2-8.9,6.4-12.1
			c3.2-3.3,7.6-5.2,12.2-6c4.7-0.8,9.5-0.6,14.3,0.2C1852.1,2303.3,1856.8,2304.6,1861.4,2306.3z,M1838.1,2342.3c-10.4-6.5-21-12.4-31.3-18.7c-5.2-3.1-10.3-6.3-15.2-9.8c-2.4-1.8-4.9-3.5-7.1-5.6
			c-2.1-2-4.5-4.2-4.6-7.3c-0.4,1.5,0.1,3.1,0.8,4.5c0.7,1.4,1.6,2.7,2.6,3.9c2,2.4,4.3,4.5,6.7,6.5c4.7,3.9,9.9,7.3,15.1,10.5
			C1815.7,2332.5,1826.7,2338,1838.1,2342.3z"/>
</g>
<g>
	<path id="svgid35" class="st0" d="M1793.3,2530.5c9.1,15.4,34,35.5,15,61s-49,45-93.5,33.5s-57.1-39.7-53-67
		c2.5-16.7,14-15.5,18.5-33.5s11-54.5,56-53.5S1787.3,2520.4,1793.3,2530.5z,M1771.4,2550c-3-1.6-6.3-2.8-9.7-3.7c-3.4-0.8-6.9-1.2-10.4-0.8c-3.5,0.3-7.1,1.8-9.8,4.4
			c-2.7,2.6-4.3,6-5.2,9.4l0.1-0.2c-1.3,2.9-3.2,5.6-5.4,7.9c-2.2,2.3-5,4-8.1,4.7s-6.4,0.2-9.4-1.1c-3.1-1.2-5.8-3.1-8.5-5.1
			c2.3,2.4,5,4.5,8.1,6.1c3,1.5,6.6,2.4,10.1,1.8c3.5-0.5,6.7-2.5,9.2-4.9c2.5-2.5,4.5-5.3,6-8.5v-0.1v-0.1c0.8-3.2,2.2-6.2,4.5-8.4
			c2.2-2.3,5.3-3.6,8.5-4.2c3.3-0.6,6.7-0.4,10,0.2C1764.8,2547.9,1768.1,2548.8,1771.4,2550z,M1755.1,2575.1c-7.3-4.5-14.6-8.7-21.9-13.1c-3.6-2.2-7.2-4.4-10.6-6.8c-1.7-1.2-3.4-2.5-4.9-3.9
			s-3.1-3-3.2-5.1c-0.3,1.1,0.1,2.2,0.6,3.2s1.1,1.9,1.8,2.7c1.4,1.7,3,3.1,4.7,4.5c3.3,2.8,6.9,5.1,10.5,7.4
			C1739.4,2568.3,1747.1,2572.1,1755.1,2575.1z"/>

</g>
<g>
	<path id="svgid34" class="st0" d="M1693.2,2712.6c1.4,31.2,9,52.3-19.7,74.1s-36.8,25.5-58.8,22.8c-21.9-2.7-63.1-30.7-64.8-60.1
		c-1.7-29.4,26.1-85.6,59.3-103.7C1642.5,2627.6,1691.2,2668.1,1693.2,2712.6z,M1659.4,2725.3c-3-1.7-6.2-3-9.5-4c-3.3-0.9-6.9-1.4-10.4-1.1c-3.6,0.2-7.2,1.6-9.9,4.1
			c-2.8,2.5-4.5,5.8-5.5,9.2l0.1-0.2c-1.4,2.8-3.4,5.5-5.7,7.7c-2.3,2.2-5.1,3.8-8.2,4.4c-3.1,0.6-6.4-0.1-9.3-1.4
			c-3-1.3-5.7-3.3-8.3-5.4c2.3,2.5,4.9,4.7,7.9,6.4c3,1.6,6.5,2.6,10.1,2.1c3.6-0.4,6.8-2.3,9.4-4.6c2.6-2.4,4.6-5.2,6.3-8.3v-0.1
			v-0.1c0.9-3.1,2.4-6.1,4.8-8.3c2.3-2.2,5.4-3.4,8.7-3.9c3.3-0.5,6.7-0.2,10,0.5C1652.9,2723,1656.2,2724,1659.4,2725.3z,M1642.3,2749.9c-7.1-4.8-14.4-9.2-21.4-13.8c-3.6-2.3-7.1-4.7-10.4-7.2c-1.7-1.3-3.3-2.6-4.8-4
			c-1.4-1.4-3-3.1-3-5.2c-0.3,1,0,2.2,0.5,3.2s1.1,1.9,1.7,2.8c1.4,1.7,2.9,3.2,4.5,4.7c3.2,2.9,6.7,5.3,10.3,7.7
			C1626.9,2742.6,1634.4,2746.6,1642.3,2749.9z"/>
</g>
<text id="txt11" transform="matrix(1 0 0 1 921.7419 85.7246)" class="st3 st4">11</text>
<text id="txt21" transform="matrix(1 0 0 1 1144.7625 85.7246)" class="st3 st4">21</text>
<text id="txt22" transform="matrix(1 0 0 1 1457.2075 175.6208)" class="st3 st4">22</text>
<text id="txt23" transform="matrix(1 0 0 1 1681.3877 370.4944)" class="st3 st4">23</text>
<text id="txt24" transform="matrix(1 0 0 1 1841.5525 548.7122)" class="st3 st4">24</text>
<text id="txt25" transform="matrix(1 0 0 1 1923.8816 747.8696)" class="st3 st4">25</text>
<text id="txt26" transform="matrix(1 0 0 1 1998.8904 962.3701)" class="st3 st4">26</text>
<text id="txt36" transform="matrix(1 0 0 1 1976.895 2383.7227)" class="st3 st4">36</text>
<text id="txt35" transform="matrix(1 0 0 1 1871.0076 2618.2959)" class="st3 st4">35</text>
<text id="txt34" transform="matrix(1 0 0 1 1748.7466 2818.166)" class="st3 st4">34</text>
<text id="txt33" transform="matrix(1 0 0 1 1573.4219 3068.3601)" class="st3 st4">33</text>
<text id="txt32" transform="matrix(1 0 0 1 1303.0913 3166.8691)" class="st3 st4">32</text>
<text id="txt31" transform="matrix(1 0 0 1 1128.7622 3193.8516)" class="st3 st4">31</text>
<text id="txt41" transform="matrix(1 0 0 1 959.7922 3193.8516)" class="st3 st4">41</text>
<text id="txt42" transform="matrix(1 0 0 1 763.7297 3166.8691)" class="st3 st4">42</text>
<text id="txt43" transform="matrix(1 0 0 1 514.2742 3068.3601)" class="st3 st4">43</text>
<text id="txt44" transform="matrix(1 0 0 1 335.5085 2818.166)" class="st3 st4">44</text>
<text id="txt45" transform="matrix(1 0 0 1 176.9106 2618.2957)" class="st3 st4">45</text>
<text id="txt46" transform="matrix(1 0 0 1 75.1963 2383.7227)" class="st3 st4">46</text>
<text id="txt47" transform="matrix(1 0 0 1 24 2122.6531)" class="st3 st4">47</text>
<text id="txt48" transform="matrix(1 0 0 1 0 1879.4363)" class="st3 st4">48</text>
<text id="txt27" transform="matrix(1 0 0 1 2024.8928 1213.3052)" class="st3 st4">27</text>
<text id="txt37" transform="matrix(1 0 0 1 2034.8928 2122.6531)" class="st3 st4">37</text>
<text id="txt28" transform="matrix(1 0 0 1 2040.8948 1465.7427)" class="st3 st4">28</text>
<text id="txt38" transform="matrix(1 0 0 1 2055.8948 1879.4363)" class="st3 st4">38</text>
<text id="txt12" transform="matrix(1 0 0 1 607.6877 175.6213)" class="st3 st4">12</text>
<text id="txt13" transform="matrix(1 0 0 1 376.1584 370.4946)" class="st3 st4">13</text>
<text id="txt14" transform="matrix(1 0 0 1 248.6484 548.7114)" class="st3 st4">14</text>
<text id="txt15" transform="matrix(1 0 0 1 164.0005 747.8704)" class="st3 st4">15</text>
<text id="txt16" transform="matrix(1 0 0 1 62.0005 962.3704)" class="st3 st4">16</text>
<text id="txt17" transform="matrix(1 0 0 1 22.0005 1213.3049)" class="st3 st4">17</text>
<text id="txt18" transform="matrix(1 0 0 1 4.882813e-04 1465.7424)" class="st3 st4">18</text>
</svg>
