<?xml version="1.0" encoding="utf-8"?>
<!-- Generator: Adobe Illustrator 22.1.0, SVG Export Plug-In . SVG Version: 6.00 Build 0)  -->
<svg version="1.1" id="图层_1" xmlns="http://www.w3.org/2000/svg" xmlns:xlink="http://www.w3.org/1999/xlink" x="0px" y="0px"
	 viewBox="0 0 128.9 17.3" style="enable-background:new 0 0 128.9 17.3;" xml:space="preserve">
<style type="text/css">
	.st0{fill:url(#SVGID_1_);}
</style>
<linearGradient id="SVGID_1_" gradientUnits="userSpaceOnUse" x1="0" y1="8.644" x2="128.9" y2="8.644">
	<stop  offset="0" style="stop-color:#70CEDA"/>
	<stop  offset="0.7151" style="stop-color:#589AF4"/>
	<stop  offset="1" style="stop-color:#4E84FF"/>
</linearGradient>
<path class="st0" d="M120.8,14l1.7-10h2.5l-0.2,1.2c0,0,0.2-0.2,0.5-0.4c0.3-0.2,0.7-0.4,1.2-0.6c0.4-0.2,1.8-0.3,2.5,0l-0.1,1
	c-0.9,0-2.1-0.1-3.7,1.6c-0.4,0.4-0.8,1.2-0.9,1.6l-1,5.7H120.8z M20.1,13.7l0.2-1.2c0.2,0.1,0.5,0.2,0.8,0.4
	c0.6,0.2,1.3,0.4,2.1,0.4c0.9,0,1.6-0.2,2-0.5c0.4-0.3,0.7-0.8,0.8-1.4c0-0.2,0.1-0.4,0.1-0.5c0-0.6-0.3-1-0.7-1.2
	c-0.4-0.2-1.1-0.3-1.9-0.5c-0.8-0.1-1.5-0.3-1.9-0.6c-0.4-0.2-0.6-0.7-0.6-1.3c0-0.2,0-0.5,0.1-0.8c0.3-1.6,1.6-2.4,4-2.5
	c0.1,0,0.2,0,0.4,0c0.1,0,0.2,0,0.3,0c0.9,0,1.6,0.1,2.1,0.2c0.4,0.1,1,0.3,1.2,0.4l-0.2,1.1c-0.2-0.1-0.4-0.2-0.7-0.3
	C27.5,5.1,26.7,5,25.8,5c-0.7,0-1.2,0.1-1.6,0.2c-0.4,0.2-0.7,0.6-0.9,1.1l0,0l0,0c0,0.5,0.4,0.8,1.1,1.1C25,7.8,25.6,8,26.2,8.1
	c0.6,0.2,1.1,0.5,1.6,0.9c0.4,0.4,0.6,1,0.7,1.7c-0.2,1.2-0.6,2.1-1.3,2.6c-0.7,0.5-1.7,0.8-2.9,0.9c-0.1,0-0.4,0-0.7,0
	c-0.8,0-1.6-0.1-2.1-0.2C21,13.9,20.4,13.7,20.1,13.7z M101.7,13.7l0.2-1.2c0.2,0.1,0.5,0.2,0.8,0.4c0.6,0.2,1.3,0.4,2.1,0.4
	c0.9,0,1.6-0.2,2-0.5c0.4-0.3,0.7-0.8,0.8-1.4c0-0.2,0.1-0.4,0.1-0.5c0-0.6-0.3-1-0.7-1.2c-0.4-0.2-1.1-0.3-1.9-0.5
	c-0.8-0.1-1.5-0.3-1.9-0.6c-0.4-0.2-0.6-0.7-0.6-1.3c0-0.2,0-0.5,0.1-0.8c0.3-1.6,1.6-2.4,4-2.5c0.1,0,0.2,0,0.4,0
	c0.1,0,0.2,0,0.3,0c0.9,0,1.6,0.1,2.1,0.2c0.4,0.1,1,0.3,1.2,0.4l-0.2,1.1c-0.2-0.1-0.4-0.2-0.7-0.3C109,5.1,108.3,5,107.3,5
	c-0.7,0-1.2,0.1-1.6,0.2c-0.4,0.2-0.7,0.6-0.9,1.1l0,0l0,0c0,0.5,0.4,0.8,1.1,1.1c0.6,0.2,1.3,0.4,1.9,0.6c0.6,0.2,1.1,0.5,1.6,0.9
	c0.4,0.4,0.6,1,0.7,1.7c-0.2,1.2-0.6,2.1-1.3,2.6c-0.7,0.5-1.7,0.8-2.9,0.9c-0.1,0-0.4,0-0.7,0c-0.8,0-1.6-0.1-2.1-0.2
	C102.5,13.9,101.9,13.7,101.7,13.7z M30.9,4.2l-1.5,10h2.4l1.5-10H30.9z M33.6,0.3C33.4,0.1,33.1,0,32.7,0c-0.5,0-0.9,0.2-1.2,0.6
	c-0.3,0.4-0.5,0.8-0.5,1.2c0,0.3,0.1,0.6,0.3,0.8c0.2,0.2,0.5,0.3,0.9,0.3c0.5,0,0.9-0.2,1.2-0.6c0.3-0.4,0.5-0.8,0.5-1.3
	C33.9,0.8,33.8,0.5,33.6,0.3z M43.1,7.4c0-0.7-0.2-1.4-0.4-1.9c-0.3-0.5-0.7-0.8-1.2-1.1c-0.6-0.2-1.3-0.4-2.2-0.4
	c-3,0-4.8,1.7-5.3,5.1c-0.1,0.7-0.1,1.2-0.1,1.6c0,1.2,0.3,2,1,2.6c0.6,0.5,1.6,0.8,2.9,0.8c0.8,0,1.6-0.1,2.2-0.3
	c0.6-0.2,1.1-0.5,1.6-0.9c0.4-0.4,0.8-0.9,1.1-1.6c0.3-0.6,0.5-1.4,0.6-2.3C43,8.5,43.1,7.9,43.1,7.4z M40.5,9.2
	c-0.1,0.8-0.3,1.5-0.4,2c-0.1,0.5-0.4,1-0.8,1.4c-0.4,0.4-0.9,0.6-1.5,0.6c-0.8,0-1.7-0.4-1.8-2.1c0-0.4,0-1.1,0.1-1.9l0,0
	C36.4,8,36.7,7,37,6.3c0.4-0.7,1.1-1.1,2-1.2c0.8,0,1.7,0.4,1.7,2.1C40.7,7.7,40.7,8.4,40.5,9.2z M89.9,0l-2.1,14.1h2.4L92.2,0H89.9
	z M4.3,7.5h4.7l0.2-1.4H4.5L4.3,7.5z M2.1,0L0,14.2h2.8L4.7,1.4H11L11.2,0H2.1z M18.2,4.2l-1.5,10h1.7l1.5-10H18.2z M16.4,12.4
	C16.3,12.5,16.3,12.5,16.4,12.4c-0.5,0.5-1.1,0.7-1.9,0.7c-0.5,0-0.8-0.1-1.1-0.4c-0.3-0.3-0.4-0.7-0.4-1.2l0,0l0,0L14,4.2h-2.4
	l-1.1,7.4c-0.1,0.5-0.1,0.6-0.1,0.6c0,0.6,0.2,1.1,0.6,1.5c0.4,0.3,0.9,0.5,1.6,0.6c1.1,0,2-0.1,2.6-0.4c0.5-0.2,0.8-0.3,1-0.5
	L16.4,12.4z M47.4,4.2H45l-1.5,10h2.4L47.4,4.2z M50.5,4.1c-0.5,0-1,0.1-1.4,0.2c-0.4,0.1-0.7,0.3-1,0.4c-0.1,0-0.1,0.1-0.2,0.1
	l-0.2,1.1c0.4-0.4,0.9-0.6,1.5-0.7c0,0,0,0,0,0c0.7,0,1.1,0.1,1.4,0.3c0.3,0.2,0.5,0.6,0.5,1.2L50,14.2h1.7l1.2-7.8
	C52.9,4.9,52.1,4.1,50.5,4.1z M71.1,4.2h-2.4l-1.5,10h2.4L71.1,4.2z M74.1,4.1c-0.5,0-1,0.1-1.4,0.2c-0.4,0.1-0.7,0.3-1,0.4
	c-0.1,0-0.1,0.1-0.2,0.1l-0.2,1.1c0.4-0.4,0.9-0.6,1.5-0.7c0,0,0,0,0,0c0.7,0,1.1,0.1,1.4,0.3c0.3,0.2,0.5,0.6,0.5,1.2l-1.1,7.4h1.7
	l1.2-7.8C76.6,4.9,75.8,4.1,74.1,4.1z M63,0h-3.3l-6.8,14.1h1.8L60.5,2l1.3,7h-4.1l-0.9,1.7h5.2l0.7,3.5h2.8L63,0z M87,6.5
	c0-1.6-1-2.3-3.7-2.3c-0.8,0-1.4,0.1-2,0.2c-0.6,0.2-1,0.3-1.4,0.5c-0.3,0.2-0.8,0.4-0.8,0.4L78.5,7c0.3-0.2,1-0.6,1.7-1
	C81,5.6,81.9,5.4,83,5.4c0.5,0,0.8,0.2,1.1,0.4c0.3,0.2,0.4,0.5,0.4,0.8c0,0.2,0,0.4-0.1,0.6l-0.6,3.5l0,0l-0.1,0.7
	c0,0.1-0.1,0.3-0.3,0.6c-0.2,0.2-0.6,0.5-1.3,0.6c-0.4,0.1-0.7,0.1-1,0.1c-1,0-1.5-0.3-1.5-1c0.1-0.6,0.3-1,0.8-1.2
	c0.5-0.2,1.1-0.4,2-0.5c0.5-0.1,0.8-0.1,1.1-0.3c0,0,0,0,0.1,0l0.3-1.9c-0.4,0.3-0.9,0.4-1.6,0.5c-1.5,0.1-2.6,0.4-3.4,0.9
	c-0.8,0.5-1.3,1.3-1.5,2.3c0,0.3-0.1,0.5-0.1,0.5c0,0.7,0.3,1.3,0.8,1.6c0.5,0.4,1.2,0.5,2,0.6c1.1,0,1.8-0.1,2.3-0.4
	c0.5-0.3,0.8-0.5,0.9-0.7l-0.2,1.1h2.5L86.9,7C87,6.8,87,6.6,87,6.5z M100.6,4.3l-3,5.3l-2.5,4.5l-0.2,0.4c-0.4,0.8-0.9,1.3-1.6,1.4
	c-0.1,0-0.4,0.1-0.7,0.1c-0.1,0-0.3,0-0.5,0l-0.2,0l0.4,1.2c1.1,0,1.8-0.1,2.3-0.3c0.7-0.4,1.3-1,1.7-1.8l6-10.8H100.6z M96.9,9.8
	l-1.6-5.5l-2.6,0l2.4,8.8L96.9,9.8z M120.7,7.2c0-0.8-0.1-1.4-0.4-1.8c-0.5-0.9-1.6-1.4-3.4-1.4c-3.1,0-4.7,1.6-5.2,5.2
	c-0.1,0.6-0.1,1.1-0.1,1.5c0,1.1,0.3,1.9,0.9,2.4c0.6,0.5,1.2,1,2.4,1.1c0.2,0,0.5,0,0.8,0c0.9,0,1.7-0.1,2.3-0.3
	c0.6-0.2,0.9-0.3,0.9-0.4l0.7-1.7c-0.2,0.2-0.6,0.4-1.2,0.7c-0.6,0.3-1.4,0.4-2.5,0.4c-1.3,0-1.9-0.7-1.9-2.1c0-0.3,0.1-0.9,0.1-0.9
	s0.2-1.3,0.3-1.9c0.1-0.4,0.2-0.9,0.5-1.6c0.3-0.6,1-1.1,2-1.2c1.3,0,1.9,0.6,1.9,1.9c0,0.3,0,0.5-0.1,0.7c0,0.2-0.1,0.3-0.1,0.4
	h-3.9l-0.2,1.3h5.7c0,0,0.1-0.3,0.2-0.8C120.6,8.2,120.7,7.7,120.7,7.2z"/>
</svg>
