<?xml version="1.0" encoding="utf-8"?>
<!-- Generator: Adobe Illustrator 22.0.0, SVG Export Plug-In . SVG Version: 6.00 Build 0)  -->
<svg version="1.1" id="图层_1" xmlns="http://www.w3.org/2000/svg" xmlns:xlink="http://www.w3.org/1999/xlink" x="0px" y="0px"
	 viewBox="0 0 32 32" style="enable-background:new 0 0 32 32;" xml:space="preserve">
<style type="text/css">
	.st0{display:none;}
	.st1{display:inline;}
	.st2{fill:#FFFFFF;}
	.st3{display:inline;fill:#FFFFFF;}
	.st4{fill:#48D8FD;}
</style>
<g class="st0">
	<g class="st1">
		<path class="st2" d="M8.1,7.5L8.1,7.5L4.6,9.3l-0.5-2L8.4,5h2.2v19.5H8.1V7.5z"/>
		<path class="st2" d="M23.5,7.5L23.5,7.5L20,9.3l-0.5-2L23.8,5H26v19.5h-2.6V7.5z"/>
	</g>
</g>
<g class="st0">
	<path class="st3" d="M2.4,24.5v-1.6l2.1-2c5-4.7,7.2-7.3,7.3-10.2c0-2-1-3.8-3.9-3.8C6,6.9,4.6,7.8,3.7,8.5L2.8,6.7
		c1.3-1.1,3.3-2,5.5-2c4.2,0,6,2.9,6,5.7c0,3.6-2.6,6.5-6.7,10.5L6,22.3v0.1h8.8v2.2H2.4z"/>
	<path class="st3" d="M23.5,7.5L23.5,7.5L20,9.3l-0.5-2L23.8,5H26v19.5h-2.5V7.5z"/>
</g>
<g>
	<g>
		<path class="st4" d="M7.7,7.5L7.7,7.5L4.3,9.3l-0.5-2L8,5h2.2v19.5H7.7V7.5z"/>
		<path class="st4" d="M23.1,7.5L23.1,7.5l-3.4,1.8l-0.5-2L23.4,5h2.2v19.5h-2.5V7.5z"/>
	</g>
</g>
<g class="st0">
	<g class="st1">
		<path class="st4" d="M2,24.5v-1.6l2.1-2c5-4.7,7.2-7.3,7.3-10.2c0-2-1-3.8-3.9-3.8c-1.8,0-3.2,0.9-4.1,1.6L2.5,6.7
			c1.3-1.1,3.3-2,5.5-2c4.2,0,6,2.9,6,5.7c0,3.6-2.6,6.5-6.7,10.5l-1.6,1.4v0.1h8.8v2.2H2z"/>
		<path class="st4" d="M23.1,7.5L23.1,7.5l-3.4,1.8l-0.5-2L23.4,5h2.2v19.5h-2.5V7.5z"/>
	</g>
</g>
<rect x="3.6" y="27.2" class="st4" width="24.9" height="2"/>
</svg>
