<?xml version="1.0" encoding="utf-8"?>
<!-- Generator: Adobe Illustrator 22.0.0, SVG Export Plug-In . SVG Version: 6.00 Build 0)  -->
<svg version="1.1" id="图层_1" xmlns="http://www.w3.org/2000/svg" xmlns:xlink="http://www.w3.org/1999/xlink" x="0px" y="0px"
 viewBox="0 0 200 200" style="enable-background:new 0 0 200 200;" xml:space="preserve">
<style type="text/css">
	.st0{fill:#ffffff;}
</style>
<path class="st0" d="M186.1,171.9c-2,0-3.8-1.4-4.2-3.4c-0.1-0.3-2.8-13-14.7-25.4c-15.1-15.9-38.5-24.6-67.8-25.4v34.5
	c0,1.6-0.9,3.1-2.3,3.8c-1.4,0.7-3.1,0.6-4.4-0.3l-81.4-59c-1.1-0.8-1.8-2.1-1.8-3.4c0-1.4,0.6-2.6,1.7-3.4l81.4-59.3
	c1.3-0.9,3-1.1,4.4-0.4c1.4,0.7,2.3,2.2,2.3,3.8v36.6c5.2,0.2,14.4,1,25,3.8c16.9,4.5,30.9,12.3,41.7,23.2
	c16.6,16.8,24.7,40.4,24.2,70.2c0,2.2-1.7,4-3.9,4.2C186.4,171.9,186.2,171.9,186.1,171.9z M95.3,109.1c18.8,0,35.5,3,49.6,8.8
	c11.4,4.7,21.2,11.4,29,19.7c2.6,2.7,4.7,5.5,6.6,8.1c-2.8-17.2-9.6-31.3-20.3-42.2c-23-23.4-57-24.5-63.6-24.5c-0.7,0-1.1,0-1.1,0
	c-1.2,0-2.3-0.4-3.1-1.2C91.5,77,91,75.9,91,74.7l0-32.5L21.1,93.1L91,143.8v-30.5C91,111,92.9,109.1,95.3,109.1z"/>
</svg>
